<svg width="20" height="91" viewBox="0 0 20 91" fill="none" xmlns="http://www.w3.org/2000/svg">
<path d="M19.4444 0L17.4074 62.5007H2.59259L0.493827 0H19.4444ZM0 81.8505C0 79.2129 0.90535 77.0285 2.71605 75.2976C4.5679 73.5254 6.99588 72.6393 10 72.6393C13.0453 72.6393 15.4733 73.5254 17.284 75.2976C19.0947 77.0285 20 79.2129 20 81.8505C20 84.4058 19.0947 86.5695 17.284 88.3417C15.4733 90.1139 13.0453 91 10 91C6.99588 91 4.5679 90.1139 2.71605 88.3417C0.90535 86.5695 0 84.4058 0 81.8505Z" fill="#FFD200"/>
</svg>
