<svg width="317" height="137" viewBox="0 0 317 137" fill="none" xmlns="http://www.w3.org/2000/svg">
<rect x="0.5" y="0.5" width="316" height="136" stroke="#5B5B5B"/>
<rect x="239.5" y="0.5" width="57" height="136" stroke="#5B5B5B"/>
<rect x="20.5" y="0.5" width="57" height="136" stroke="#5B5B5B"/>
<rect x="249.5" y="16.5" width="7" height="12" fill="white" stroke="#5B5B5B"/>
<rect x="256.5" y="16.5" width="7" height="12" fill="white" stroke="#5B5B5B"/>
<rect x="249.5" y="62.5" width="7" height="12" fill="white" stroke="#5B5B5B"/>
<rect x="256.5" y="62.5" width="7" height="12" fill="white" stroke="#5B5B5B"/>
<rect x="249.5" y="108.5" width="7" height="12" fill="white" stroke="#5B5B5B"/>
<rect x="256.5" y="108.5" width="7" height="12" fill="white" stroke="#5B5B5B"/>
<rect x="30.5" y="16.5" width="7" height="12" fill="white" stroke="#5B5B5B"/>
<rect x="37.5" y="16.5" width="7" height="12" fill="white" stroke="#5B5B5B"/>
<rect x="30.5" y="62.5" width="7" height="12" fill="white" stroke="#5B5B5B"/>
<rect x="37.5" y="62.5" width="7" height="12" fill="white" stroke="#5B5B5B"/>
<rect x="30.5" y="108.5" width="7" height="12" fill="white" stroke="#5B5B5B"/>
<rect x="37.5" y="108.5" width="7" height="12" fill="white" stroke="#5B5B5B"/>
<rect x="214.5" y="16.5" width="7" height="12" fill="white" stroke="#5B5B5B"/>
<rect x="221.5" y="16.5" width="7" height="12" fill="white" stroke="#5B5B5B"/>
<rect x="214.5" y="62.5" width="7" height="12" fill="white" stroke="#5B5B5B"/>
<rect x="221.5" y="62.5" width="7" height="12" fill="white" stroke="#5B5B5B"/>
<rect x="214.5" y="108.5" width="7" height="12" fill="white" stroke="#5B5B5B"/>
<rect x="221.5" y="108.5" width="7" height="12" fill="white" stroke="#5B5B5B"/>
<rect x="194.5" y="16.5" width="7" height="12" fill="white" stroke="#5B5B5B"/>
<rect x="201.5" y="16.5" width="7" height="12" fill="white" stroke="#5B5B5B"/>
<rect x="194.5" y="62.5" width="7" height="12" fill="white" stroke="#5B5B5B"/>
<rect x="201.5" y="62.5" width="7" height="12" fill="white" stroke="#5B5B5B"/>
<rect x="194.5" y="108.5" width="7" height="12" fill="white" stroke="#5B5B5B"/>
<rect x="201.5" y="108.5" width="7" height="12" fill="white" stroke="#5B5B5B"/>
<rect x="161.5" y="16.5" width="7" height="12" fill="white" stroke="#5B5B5B"/>
<rect x="168.5" y="16.5" width="7" height="12" fill="white" stroke="#5B5B5B"/>
<rect x="161.5" y="62.5" width="7" height="12" fill="white" stroke="#5B5B5B"/>
<rect x="168.5" y="62.5" width="7" height="12" fill="white" stroke="#5B5B5B"/>
<rect x="141.5" y="16.5" width="7" height="12" fill="white" stroke="#5B5B5B"/>
<rect x="148.5" y="16.5" width="7" height="12" fill="white" stroke="#5B5B5B"/>
<rect x="141.5" y="62.5" width="7" height="12" fill="white" stroke="#5B5B5B"/>
<rect x="148.5" y="62.5" width="7" height="12" fill="white" stroke="#5B5B5B"/>
<rect x="108.5" y="16.5" width="7" height="12" fill="white" stroke="#5B5B5B"/>
<rect x="115.5" y="16.5" width="7" height="12" fill="white" stroke="#5B5B5B"/>
<rect x="108.5" y="62.5" width="7" height="12" fill="white" stroke="#5B5B5B"/>
<rect x="115.5" y="62.5" width="7" height="12" fill="white" stroke="#5B5B5B"/>
<rect x="108.5" y="108.5" width="7" height="12" fill="white" stroke="#5B5B5B"/>
<rect x="115.5" y="108.5" width="7" height="12" fill="white" stroke="#5B5B5B"/>
<rect x="88.5" y="16.5" width="7" height="12" fill="white" stroke="#5B5B5B"/>
<rect x="95.5" y="16.5" width="7" height="12" fill="white" stroke="#5B5B5B"/>
<rect x="88.5" y="62.5" width="7" height="12" fill="white" stroke="#5B5B5B"/>
<rect x="95.5" y="62.5" width="7" height="12" fill="white" stroke="#5B5B5B"/>
<rect x="88.5" y="108.5" width="7" height="12" fill="white" stroke="#5B5B5B"/>
<rect x="95.5" y="108.5" width="7" height="12" fill="white" stroke="#5B5B5B"/>
<rect x="272.5" y="16.5" width="7" height="12" fill="white" stroke="#5B5B5B"/>
<rect x="279.5" y="16.5" width="7" height="12" fill="white" stroke="#5B5B5B"/>
<rect x="272.5" y="62.5" width="7" height="12" fill="white" stroke="#5B5B5B"/>
<rect x="279.5" y="62.5" width="7" height="12" fill="white" stroke="#5B5B5B"/>
<rect x="272.5" y="108.5" width="7" height="12" fill="white" stroke="#5B5B5B"/>
<rect x="279.5" y="108.5" width="7" height="12" fill="white" stroke="#5B5B5B"/>
<rect x="53.5" y="16.5" width="7" height="12" fill="white" stroke="#5B5B5B"/>
<rect x="60.5" y="16.5" width="7" height="12" fill="white" stroke="#5B5B5B"/>
<rect x="53.5" y="62.5" width="7" height="12" fill="white" stroke="#5B5B5B"/>
<rect x="60.5" y="62.5" width="7" height="12" fill="white" stroke="#5B5B5B"/>
<rect x="53.5" y="108.5" width="7" height="12" fill="white" stroke="#5B5B5B"/>
<rect x="60.5" y="108.5" width="7" height="12" fill="white" stroke="#5B5B5B"/>
</svg>
