<svg width="309" height="223" viewBox="0 0 309 223" fill="none" xmlns="http://www.w3.org/2000/svg">
<path d="M67.0788 129.592H12.0968L0 139.613V169L12.1069 159.387L67.138 159.662L73.4666 168.451H158.765V91H152.301L143.779 138.625H73.4017L67.0788 129.592Z" fill="#FFD200"/>
<path d="M297.719 138.625H266.076V168.451L306.524 168.725H309V147.028L297.719 138.625Z" fill="#FFD200"/>
<path d="M12 82.5L0.5 91.5V182H309V91.5H158.5H73L67 82.5H12Z" fill="white"/>
<path fill-rule="evenodd" clip-rule="evenodd" d="M72 222V91H74V222H72Z" fill="#5B5B5B"/>
<path fill-rule="evenodd" clip-rule="evenodd" d="M11.6377 82H67.1501L73.4787 91.0702H158.765V92.1696H72.9042L66.5756 83.0994H12.0257L1.10062 91.8831V221.901H307.899V92.1696H266.076V91.0702H309V223H0V91.3567L11.6377 82Z" fill="#5B5B5B"/>
<path fill-rule="evenodd" clip-rule="evenodd" d="M158 0H172.459V9.1305H251.541V0H266V223H158V0ZM159.096 1.10123V221.899H264.904V1.10123H252.637V10.2317H171.363V1.10123H159.096Z" fill="#5B5B5B"/>
<path fill-rule="evenodd" clip-rule="evenodd" d="M11 82H66V223H11V82ZM12.1 83.1016V221.898H64.9V83.1016H12.1Z" fill="#5B5B5B"/>
<path fill-rule="evenodd" clip-rule="evenodd" d="M51.902 118.103H26.098V147.897H51.902V118.103ZM25 117V149H53V117H25Z" fill="#5B5B5B"/>
<path fill-rule="evenodd" clip-rule="evenodd" d="M51.902 118.1H26.098V126.9H51.902V118.1ZM25 117V128H53V117H25Z" fill="#5B5B5B"/>
<path fill-rule="evenodd" clip-rule="evenodd" d="M51.8571 128.1H38.1429V147.9H51.8571V128.1ZM37 127V149H53V127H37Z" fill="#5B5B5B"/>
<path fill-rule="evenodd" clip-rule="evenodd" d="M135.897 169.091H95.1026V202.909H135.897V169.091ZM94 168V204H137V168H94Z" fill="#5B5B5B"/>
<path fill-rule="evenodd" clip-rule="evenodd" d="M135.905 169.091H115.095V202.909H135.905V169.091ZM114 168V204H137V168H114Z" fill="#5B5B5B"/>
<path fill-rule="evenodd" clip-rule="evenodd" d="M196.909 96.0794H181.091V127.921H196.909V96.0794ZM180 95V129H198V95H180Z" fill="#5B5B5B"/>
<path fill-rule="evenodd" clip-rule="evenodd" d="M196.909 128.079H181.091V159.921H196.909V128.079ZM180 127V161H198V127H180Z" fill="#5B5B5B"/>
<path fill-rule="evenodd" clip-rule="evenodd" d="M211.909 96.0794H196.091V127.921H211.909V96.0794ZM195 95V129H213V95H195Z" fill="#5B5B5B"/>
<path fill-rule="evenodd" clip-rule="evenodd" d="M211.909 128.079H196.091V159.921H211.909V128.079ZM195 127V161H213V127H195Z" fill="#5B5B5B"/>
<path fill-rule="evenodd" clip-rule="evenodd" d="M227.909 96.0794H212.091V127.921H227.909V96.0794ZM211 95V129H229V95H211Z" fill="#5B5B5B"/>
<path fill-rule="evenodd" clip-rule="evenodd" d="M227.909 128.079H212.091V159.921H227.909V128.079ZM211 127V161H229V127H211Z" fill="#5B5B5B"/>
<path fill-rule="evenodd" clip-rule="evenodd" d="M242.909 96.0794H227.091V127.921H242.909V96.0794ZM226 95V129H244V95H226Z" fill="#5B5B5B"/>
<path fill-rule="evenodd" clip-rule="evenodd" d="M242.909 128.079H227.091V159.921H242.909V128.079ZM226 127V161H244V127H226Z" fill="#5B5B5B"/>
<path fill-rule="evenodd" clip-rule="evenodd" d="M196.909 20.1111H181.091V52.8889H196.909V20.1111ZM180 19V54H198V19H180Z" fill="#5B5B5B"/>
<path fill-rule="evenodd" clip-rule="evenodd" d="M196.909 52.1111H181.091V84.8889H196.909V52.1111ZM180 51V86H198V51H180Z" fill="#5B5B5B"/>
<path fill-rule="evenodd" clip-rule="evenodd" d="M211.909 20.1111H196.091V52.8889H211.909V20.1111ZM195 19V54H213V19H195Z" fill="#5B5B5B"/>
<path fill-rule="evenodd" clip-rule="evenodd" d="M211.909 52.1111H196.091V84.8889H211.909V52.1111ZM195 51V86H213V51H195Z" fill="#5B5B5B"/>
<path fill-rule="evenodd" clip-rule="evenodd" d="M227.909 20.1111H212.091V52.8889H227.909V20.1111ZM211 19V54H229V19H211Z" fill="#5B5B5B"/>
<path fill-rule="evenodd" clip-rule="evenodd" d="M227.909 52.1111H212.091V84.8889H227.909V52.1111ZM211 51V86H229V51H211Z" fill="#5B5B5B"/>
<path fill-rule="evenodd" clip-rule="evenodd" d="M242.909 20.1111H227.091V52.8889H242.909V20.1111ZM226 19V54H244V19H226Z" fill="#5B5B5B"/>
<path fill-rule="evenodd" clip-rule="evenodd" d="M242.909 52.1111H227.091V84.8889H242.909V52.1111ZM226 51V86H244V51H226Z" fill="#5B5B5B"/>
<path fill-rule="evenodd" clip-rule="evenodd" d="M211.909 190.097H196.091V221.903H211.909V190.097ZM195 189V223H213V189H195Z" fill="#5B5B5B"/>
<path fill-rule="evenodd" clip-rule="evenodd" d="M228.909 190.097H213.091V221.903H228.909V190.097ZM212 189V223H230V189H212Z" fill="#5B5B5B"/>
<path fill-rule="evenodd" clip-rule="evenodd" d="M108.897 133.095H95.1034V153.905H108.897V133.095ZM94 132V155H110V132H94Z" fill="#5B5B5B"/>
<path fill-rule="evenodd" clip-rule="evenodd" d="M108.897 118.103H95.1034V131.897H108.897V118.103ZM94 117V133H110V117H94Z" fill="#5B5B5B"/>
<path fill-rule="evenodd" clip-rule="evenodd" d="M135.897 133.095H122.103V153.905H135.897V133.095ZM121 132V155H137V132H121Z" fill="#5B5B5B"/>
<path fill-rule="evenodd" clip-rule="evenodd" d="M135.897 118.103H122.103V131.897H135.897V118.103ZM121 117V133H137V117H121Z" fill="#5B5B5B"/>
<path fill-rule="evenodd" clip-rule="evenodd" d="M293.897 140.095H280.103V160.905H293.897V140.095ZM279 139V162H295V139H279Z" fill="#5B5B5B"/>
<path fill-rule="evenodd" clip-rule="evenodd" d="M293.897 125.103H280.103V138.897H293.897V125.103ZM279 124V140H295V124H279Z" fill="#5B5B5B"/>
<path fill-rule="evenodd" clip-rule="evenodd" d="M212.5 171.209L186.657 183.919H238.343L212.5 171.209ZM212.5 170L182 185H243L212.5 170Z" fill="#5B5B5B"/>
<path fill-rule="evenodd" clip-rule="evenodd" d="M287 179.085C279.127 179.085 272.679 185.184 272.124 192.915H301.876C301.321 185.184 294.873 179.085 287 179.085ZM302.964 192.915C302.406 184.585 295.472 178 287 178C278.528 178 271.594 184.585 271.036 192.915C271.012 193.274 271 193.635 271 194H303C303 193.635 302.988 193.274 302.964 192.915Z" fill="#5B5B5B"/>
</svg>
