<svg width="169" height="132" viewBox="0 0 169 132" fill="none" xmlns="http://www.w3.org/2000/svg">
<path d="M84.5 1.00195L169 74.002H0L84.5 1.00195Z" fill="#FFD200"/>
<path d="M75 60.0039H85.3923V49.6404H75V60.0039Z" fill="white"/>
<path fill-rule="evenodd" clip-rule="evenodd" d="M83.6603 58.2767H76.7321V51.3677H83.6603V58.2767ZM75 60.0039V49.6404H85.3923V60.0039H75Z" fill="#5B5B5B"/>
<path d="M75 51.3652H85.3923V41.0017H75V51.3652Z" fill="white"/>
<path fill-rule="evenodd" clip-rule="evenodd" d="M83.6603 49.638H76.7321V42.729H83.6603V49.638ZM75 51.3652V41.0017H85.3923V51.3652H75Z" fill="#5B5B5B"/>
<path d="M83.6602 51.3652H94.0525V41.0017H83.6602V51.3652Z" fill="white"/>
<path fill-rule="evenodd" clip-rule="evenodd" d="M92.3204 49.638H85.3922V42.729H92.3204V49.638ZM83.6602 51.3652V41.0017H94.0525V51.3652H83.6602Z" fill="#5B5B5B"/>
<path d="M83.6602 60.0039H94.0525V49.6404H83.6602V60.0039Z" fill="white"/>
<path fill-rule="evenodd" clip-rule="evenodd" d="M92.3204 58.2767H85.3922V51.3677H92.3204V58.2767ZM83.6602 60.0039V49.6404H94.0525V60.0039H83.6602Z" fill="#5B5B5B"/>
<rect x="1" y="2.00195" width="167" height="128" fill="white"/>
<path fill-rule="evenodd" clip-rule="evenodd" d="M167.143 2.65815H1.73205V129.323H167.143V2.65815ZM0 0.980469V131.001H168.875V0.980469H0Z" fill="#5B5B5B"/>
<path fill-rule="evenodd" clip-rule="evenodd" d="M40.7037 26.9843H22.5172V78.9926H40.7037V26.9843ZM20.7852 25.3066V80.6703H42.4358V25.3066H20.7852Z" fill="#5B5B5B"/>
<path fill-rule="evenodd" clip-rule="evenodd" d="M126.438 26.9843H108.252V78.9926H126.438V26.9843ZM106.52 25.3066V80.6703H128.17V25.3066H106.52Z" fill="#5B5B5B"/>
<path fill-rule="evenodd" clip-rule="evenodd" d="M60.6217 26.9843H42.4352V78.9926H60.6217V26.9843ZM40.7031 25.3066V80.6703H62.3538V25.3066H40.7031Z" fill="#5B5B5B"/>
<path fill-rule="evenodd" clip-rule="evenodd" d="M146.356 26.9843H128.17V78.9926H146.356V26.9843ZM126.438 25.3066V80.6703H148.088V25.3066H126.438Z" fill="#5B5B5B"/>
<path fill-rule="evenodd" clip-rule="evenodd" d="M93.5319 94.0917H75.3453V129.323H93.5319V94.0917ZM73.6133 92.4141V131.001H95.2639V92.4141H73.6133Z" fill="#5B5B5B"/>
</svg>
