<svg width="316" height="139" viewBox="0 0 316 139" fill="none" xmlns="http://www.w3.org/2000/svg">
<rect x="77" y="14" width="111" height="30" fill="#FFD200"/>
<rect x="188" y="44" width="128" height="32" fill="#FFD200"/>
<path fill-rule="evenodd" clip-rule="evenodd" d="M188 0H77V14H188V44H316V0H188.238H188Z" fill="#FFD200"/>
<rect x="112.5" y="25.5" width="7" height="12" fill="white" stroke="#5B5B5B"/>
<rect x="112.5" y="18.5" width="7" height="7" fill="white" stroke="#5B5B5B"/>
<rect x="119.5" y="25.5" width="7" height="12" fill="white" stroke="#5B5B5B"/>
<rect x="119.5" y="18.5" width="7" height="7" fill="white" stroke="#5B5B5B"/>
<rect x="142.5" y="25.5" width="7" height="12" fill="white" stroke="#5B5B5B"/>
<rect x="142.5" y="18.5" width="7" height="7" fill="white" stroke="#5B5B5B"/>
<rect x="149.5" y="25.5" width="7" height="12" fill="white" stroke="#5B5B5B"/>
<rect x="149.5" y="18.5" width="7" height="7" fill="white" stroke="#5B5B5B"/>
<rect x="195.5" y="58.5" width="7" height="12" fill="white" stroke="#5B5B5B"/>
<rect x="195.5" y="51.5" width="7" height="7" fill="white" stroke="#5B5B5B"/>
<rect x="202.5" y="58.5" width="7" height="12" fill="white" stroke="#5B5B5B"/>
<rect x="202.5" y="51.5" width="7" height="7" fill="white" stroke="#5B5B5B"/>
<rect x="220.5" y="58.5" width="7" height="12" fill="white" stroke="#5B5B5B"/>
<rect x="220.5" y="51.5" width="7" height="7" fill="white" stroke="#5B5B5B"/>
<rect x="227.5" y="58.5" width="7" height="12" fill="white" stroke="#5B5B5B"/>
<rect x="227.5" y="51.5" width="7" height="7" fill="white" stroke="#5B5B5B"/>
<rect x="245.5" y="58.5" width="7" height="12" fill="white" stroke="#5B5B5B"/>
<rect x="245.5" y="51.5" width="7" height="7" fill="white" stroke="#5B5B5B"/>
<rect x="252.5" y="58.5" width="7" height="12" fill="white" stroke="#5B5B5B"/>
<rect x="252.5" y="51.5" width="7" height="7" fill="white" stroke="#5B5B5B"/>
<rect x="270.5" y="58.5" width="7" height="12" fill="white" stroke="#5B5B5B"/>
<rect x="270.5" y="51.5" width="7" height="7" fill="white" stroke="#5B5B5B"/>
<rect x="277.5" y="58.5" width="7" height="12" fill="white" stroke="#5B5B5B"/>
<rect x="277.5" y="51.5" width="7" height="7" fill="white" stroke="#5B5B5B"/>
<rect x="295.5" y="58.5" width="7" height="12" fill="white" stroke="#5B5B5B"/>
<rect x="295.5" y="51.5" width="7" height="7" fill="white" stroke="#5B5B5B"/>
<rect x="302.5" y="58.5" width="7" height="12" fill="white" stroke="#5B5B5B"/>
<rect x="302.5" y="51.5" width="7" height="7" fill="white" stroke="#5B5B5B"/>
<path d="M60.5 14H77V44.5H187.5V76H315.5V138.5H1V25H36V19.5H60.5V14Z" fill="white" stroke="#5B5B5B"/>
<rect x="13.5" y="58.5" width="7" height="12" fill="white" stroke="#5B5B5B"/>
<rect x="13.5" y="51.5" width="7" height="7" fill="white" stroke="#5B5B5B"/>
<rect x="37.5" y="58.5" width="7" height="12" fill="white" stroke="#5B5B5B"/>
<rect x="37.5" y="51.5" width="7" height="7" fill="white" stroke="#5B5B5B"/>
<rect x="62.5" y="58.5" width="7" height="12" fill="white" stroke="#5B5B5B"/>
<rect x="62.5" y="51.5" width="7" height="7" fill="white" stroke="#5B5B5B"/>
<rect x="87.5" y="58.5" width="7" height="12" fill="white" stroke="#5B5B5B"/>
<rect x="87.5" y="51.5" width="7" height="7" fill="white" stroke="#5B5B5B"/>
<rect x="94.5" y="58.5" width="7" height="12" fill="white" stroke="#5B5B5B"/>
<rect x="94.5" y="51.5" width="7" height="7" fill="white" stroke="#5B5B5B"/>
<rect x="87.5" y="85.9502" width="7" height="16.55" fill="white" stroke="#5B5B5B"/>
<rect x="87.5" y="76.5" width="7" height="9.8" fill="white" stroke="#5B5B5B"/>
<rect x="94.5" y="85.9502" width="7" height="16.55" fill="white" stroke="#5B5B5B"/>
<rect x="94.5" y="76.5" width="7" height="9.8" fill="white" stroke="#5B5B5B"/>
<rect x="59.5" y="90.5" width="7" height="12" fill="white" stroke="#5B5B5B"/>
<rect x="59.5" y="83.5" width="7" height="7" fill="white" stroke="#5B5B5B"/>
<rect x="66.5" y="90.5" width="7" height="12" fill="white" stroke="#5B5B5B"/>
<rect x="66.5" y="83.5" width="7" height="7" fill="white" stroke="#5B5B5B"/>
<rect x="34.5" y="90.5" width="7" height="12" fill="white" stroke="#5B5B5B"/>
<rect x="34.5" y="83.5" width="7" height="7" fill="white" stroke="#5B5B5B"/>
<rect x="41.5" y="90.5" width="7" height="12" fill="white" stroke="#5B5B5B"/>
<rect x="41.5" y="83.5" width="7" height="7" fill="white" stroke="#5B5B5B"/>
<rect x="34.5" y="120.5" width="7" height="12" fill="white" stroke="#5B5B5B"/>
<rect x="34.5" y="113.5" width="7" height="7" fill="white" stroke="#5B5B5B"/>
<rect x="41.5" y="120.5" width="7" height="12" fill="white" stroke="#5B5B5B"/>
<rect x="41.5" y="113.5" width="7" height="7" fill="white" stroke="#5B5B5B"/>
<rect x="53.5" y="120.5" width="12" height="18" fill="white" stroke="#5B5B5B"/>
<rect x="64.5" y="120.5" width="12" height="18" fill="white" stroke="#5B5B5B"/>
<rect x="10.5" y="90.5" width="7" height="12" fill="white" stroke="#5B5B5B"/>
<rect x="10.5" y="83.5" width="7" height="7" fill="white" stroke="#5B5B5B"/>
<rect x="17.5" y="90.5" width="7" height="12" fill="white" stroke="#5B5B5B"/>
<rect x="17.5" y="83.5" width="7" height="7" fill="white" stroke="#5B5B5B"/>
<rect x="10.5" y="120.5" width="7" height="12" fill="white" stroke="#5B5B5B"/>
<rect x="10.5" y="113.5" width="7" height="7" fill="white" stroke="#5B5B5B"/>
<rect x="17.5" y="120.5" width="7" height="12" fill="white" stroke="#5B5B5B"/>
<rect x="17.5" y="113.5" width="7" height="7" fill="white" stroke="#5B5B5B"/>
<rect x="112.5" y="58.5" width="7" height="12" fill="white" stroke="#5B5B5B"/>
<rect x="112.5" y="51.5" width="7" height="7" fill="white" stroke="#5B5B5B"/>
<rect x="119.5" y="58.5" width="7" height="12" fill="white" stroke="#5B5B5B"/>
<rect x="119.5" y="51.5" width="7" height="7" fill="white" stroke="#5B5B5B"/>
<rect x="112.5" y="90.5" width="7" height="12" fill="white" stroke="#5B5B5B"/>
<rect x="112.5" y="83.5" width="7" height="7" fill="white" stroke="#5B5B5B"/>
<rect x="119.5" y="90.5" width="7" height="12" fill="white" stroke="#5B5B5B"/>
<rect x="119.5" y="83.5" width="7" height="7" fill="white" stroke="#5B5B5B"/>
<rect x="112.5" y="120.5" width="7" height="12" fill="white" stroke="#5B5B5B"/>
<rect x="112.5" y="113.5" width="7" height="7" fill="white" stroke="#5B5B5B"/>
<rect x="119.5" y="120.5" width="7" height="12" fill="white" stroke="#5B5B5B"/>
<rect x="119.5" y="113.5" width="7" height="7" fill="white" stroke="#5B5B5B"/>
<rect x="84.5" y="115.5" width="20" height="23" fill="white" stroke="#5B5B5B"/>
<rect x="89.5" y="120.5" width="10" height="18" fill="white" stroke="#5B5B5B"/>
<rect x="89.5" y="115.5" width="10" height="5" fill="white" stroke="#5B5B5B"/>
<rect x="91.5" y="120.5" width="6" height="8" fill="white" stroke="#5B5B5B"/>
<rect x="142.5" y="58.5" width="7" height="12" fill="white" stroke="#5B5B5B"/>
<rect x="142.5" y="51.5" width="7" height="7" fill="white" stroke="#5B5B5B"/>
<rect x="149.5" y="58.5" width="7" height="12" fill="white" stroke="#5B5B5B"/>
<rect x="149.5" y="51.5" width="7" height="7" fill="white" stroke="#5B5B5B"/>
<rect x="142.5" y="90.5" width="7" height="12" fill="white" stroke="#5B5B5B"/>
<rect x="142.5" y="83.5" width="7" height="7" fill="white" stroke="#5B5B5B"/>
<rect x="149.5" y="90.5" width="7" height="12" fill="white" stroke="#5B5B5B"/>
<rect x="149.5" y="83.5" width="7" height="7" fill="white" stroke="#5B5B5B"/>
<rect x="142.5" y="120.5" width="7" height="12" fill="white" stroke="#5B5B5B"/>
<rect x="142.5" y="113.5" width="7" height="7" fill="white" stroke="#5B5B5B"/>
<rect x="149.5" y="120.5" width="7" height="12" fill="white" stroke="#5B5B5B"/>
<rect x="149.5" y="113.5" width="7" height="7" fill="white" stroke="#5B5B5B"/>
<rect x="163.5" y="58.5" width="7" height="12" fill="white" stroke="#5B5B5B"/>
<rect x="163.5" y="51.5" width="7" height="7" fill="white" stroke="#5B5B5B"/>
<rect x="170.5" y="58.5" width="7" height="12" fill="white" stroke="#5B5B5B"/>
<rect x="170.5" y="51.5" width="7" height="7" fill="white" stroke="#5B5B5B"/>
<rect x="163.5" y="90.5" width="7" height="12" fill="white" stroke="#5B5B5B"/>
<rect x="163.5" y="83.5" width="7" height="7" fill="white" stroke="#5B5B5B"/>
<rect x="170.5" y="90.5" width="7" height="12" fill="white" stroke="#5B5B5B"/>
<rect x="170.5" y="83.5" width="7" height="7" fill="white" stroke="#5B5B5B"/>
<rect x="195.5" y="90.5" width="7" height="12" fill="white" stroke="#5B5B5B"/>
<rect x="195.5" y="83.5" width="7" height="7" fill="white" stroke="#5B5B5B"/>
<rect x="202.5" y="90.5" width="7" height="12" fill="white" stroke="#5B5B5B"/>
<rect x="202.5" y="83.5" width="7" height="7" fill="white" stroke="#5B5B5B"/>
<rect x="195.5" y="120.5" width="7" height="12" fill="white" stroke="#5B5B5B"/>
<rect x="195.5" y="113.5" width="7" height="7" fill="white" stroke="#5B5B5B"/>
<rect x="202.5" y="120.5" width="7" height="12" fill="white" stroke="#5B5B5B"/>
<rect x="202.5" y="113.5" width="7" height="7" fill="white" stroke="#5B5B5B"/>
<rect x="220.5" y="90.5" width="7" height="12" fill="white" stroke="#5B5B5B"/>
<rect x="220.5" y="83.5" width="7" height="7" fill="white" stroke="#5B5B5B"/>
<rect x="227.5" y="90.5" width="7" height="12" fill="white" stroke="#5B5B5B"/>
<rect x="227.5" y="83.5" width="7" height="7" fill="white" stroke="#5B5B5B"/>
<rect x="220.5" y="120.5" width="7" height="12" fill="white" stroke="#5B5B5B"/>
<rect x="220.5" y="113.5" width="7" height="7" fill="white" stroke="#5B5B5B"/>
<rect x="227.5" y="120.5" width="7" height="12" fill="white" stroke="#5B5B5B"/>
<rect x="227.5" y="113.5" width="7" height="7" fill="white" stroke="#5B5B5B"/>
<rect x="245.5" y="90.5" width="7" height="12" fill="white" stroke="#5B5B5B"/>
<rect x="245.5" y="83.5" width="7" height="7" fill="white" stroke="#5B5B5B"/>
<rect x="252.5" y="90.5" width="7" height="12" fill="white" stroke="#5B5B5B"/>
<rect x="252.5" y="83.5" width="7" height="7" fill="white" stroke="#5B5B5B"/>
<rect x="245.5" y="120.5" width="7" height="12" fill="white" stroke="#5B5B5B"/>
<rect x="245.5" y="113.5" width="7" height="7" fill="white" stroke="#5B5B5B"/>
<rect x="252.5" y="120.5" width="7" height="12" fill="white" stroke="#5B5B5B"/>
<rect x="252.5" y="113.5" width="7" height="7" fill="white" stroke="#5B5B5B"/>
<rect x="270.5" y="90.5" width="7" height="12" fill="white" stroke="#5B5B5B"/>
<rect x="270.5" y="83.5" width="7" height="7" fill="white" stroke="#5B5B5B"/>
<rect x="277.5" y="90.5" width="7" height="12" fill="white" stroke="#5B5B5B"/>
<rect x="277.5" y="83.5" width="7" height="7" fill="white" stroke="#5B5B5B"/>
<rect x="270.5" y="113.5" width="14" height="19" fill="white" stroke="#5B5B5B"/>
<rect x="295.5" y="90.5" width="7" height="12" fill="white" stroke="#5B5B5B"/>
<rect x="295.5" y="83.5" width="7" height="7" fill="white" stroke="#5B5B5B"/>
<rect x="302.5" y="90.5" width="7" height="12" fill="white" stroke="#5B5B5B"/>
<rect x="302.5" y="83.5" width="7" height="7" fill="white" stroke="#5B5B5B"/>
<rect x="295.5" y="120.5" width="7" height="12" fill="white" stroke="#5B5B5B"/>
<rect x="295.5" y="113.5" width="7" height="7" fill="white" stroke="#5B5B5B"/>
<rect x="302.5" y="120.5" width="7" height="12" fill="white" stroke="#5B5B5B"/>
<rect x="302.5" y="113.5" width="7" height="7" fill="white" stroke="#5B5B5B"/>
<path d="M78 108L94 103L110 108" stroke="#5B5B5B"/>
<path d="M81 138V107" stroke="#5B5B5B"/>
<path d="M108 138V107.5" stroke="#5B5B5B"/>
<path fill-rule="evenodd" clip-rule="evenodd" d="M236.5 138.5V107H291.5V138.5H288.5H251V109H239V138.5H236.5ZM288 109H254V131H288V109Z" fill="#5B5B5B"/>
<path d="M236.5 107V106.5H236V107H236.5ZM236.5 138.5H236V139H236.5V138.5ZM291.5 107H292V106.5H291.5V107ZM291.5 138.5V139H292V138.5H291.5ZM251 138.5H250.5V139H251V138.5ZM251 109H251.5V108.5H251V109ZM239 109V108.5H238.5V109H239ZM239 138.5V139H239.5V138.5H239ZM254 109V108.5H253.5V109H254ZM288 109H288.5V108.5H288V109ZM254 131H253.5V131.5H254V131ZM288 131V131.5H288.5V131H288ZM236 107V138.5H237V107H236ZM291.5 106.5H236.5V107.5H291.5V106.5ZM292 138.5V107H291V138.5H292ZM288.5 139H291.5V138H288.5V139ZM251 139H288.5V138H251V139ZM250.5 109V138.5H251.5V109H250.5ZM239 109.5H251V108.5H239V109.5ZM239.5 138.5V109H238.5V138.5H239.5ZM236.5 139H239V138H236.5V139ZM254 109.5H288V108.5H254V109.5ZM254.5 131V109H253.5V131H254.5ZM288 130.5H254V131.5H288V130.5ZM287.5 109V131H288.5V109H287.5Z" fill="#5B5B5B"/>
</svg>
