<svg width="177" height="203" viewBox="0 0 177 203" fill="none" xmlns="http://www.w3.org/2000/svg">
<g filter="url(#filter0_d_1267_5404)">
<path d="M88.5 0L173 73H4L88.5 0Z" fill="white"/>
<path d="M79 59.001H89.3923V48.6375H79V59.001Z" fill="white"/>
<path fill-rule="evenodd" clip-rule="evenodd" d="M87.6603 57.2737H80.7321V50.3647H87.6603V57.2737ZM79 59.001V48.6375H89.3923V59.001H79Z" fill="white"/>
<path d="M79 50.3633H89.3923V39.9998H79V50.3633Z" fill="white"/>
<path fill-rule="evenodd" clip-rule="evenodd" d="M87.6603 48.636H80.7321V41.727H87.6603V48.636ZM79 50.3633V39.9998H89.3923V50.3633H79Z" fill="white"/>
<path d="M87.6602 50.3633H98.0525V39.9998H87.6602V50.3633Z" fill="white"/>
<path fill-rule="evenodd" clip-rule="evenodd" d="M96.3204 48.636H89.3922V41.727H96.3204V48.636ZM87.6602 50.3633V39.9998H98.0525V50.3633H87.6602Z" fill="white"/>
<path d="M87.6602 59.001H98.0525V48.6375H87.6602V59.001Z" fill="white"/>
<path fill-rule="evenodd" clip-rule="evenodd" d="M96.3204 57.2737H89.3922V50.3647H96.3204V57.2737ZM87.6602 59.001V48.6375H98.0525V59.001H87.6602Z" fill="white"/>
</g>
<rect x="5" y="74" width="167" height="128" fill="white"/>
<path fill-rule="evenodd" clip-rule="evenodd" d="M171.143 74.6572H5.73205V201.322H171.143V74.6572ZM4 72.9795V203H172.875V72.9795H4Z" fill="#5B5B5B"/>
<path fill-rule="evenodd" clip-rule="evenodd" d="M44.7037 98.9834H26.5172V150.992H44.7037V98.9834ZM24.7852 97.3057V152.669H46.4358V97.3057H24.7852Z" fill="#5B5B5B"/>
<path fill-rule="evenodd" clip-rule="evenodd" d="M130.44 98.9834H112.254V150.992H130.44V98.9834ZM110.521 97.3057V152.669H132.172V97.3057H110.521Z" fill="#5B5B5B"/>
<path fill-rule="evenodd" clip-rule="evenodd" d="M64.6217 98.9834H46.4352V150.992H64.6217V98.9834ZM44.7031 97.3057V152.669H66.3538V97.3057H44.7031Z" fill="#5B5B5B"/>
<path fill-rule="evenodd" clip-rule="evenodd" d="M150.358 98.9834H132.172V150.992H150.358V98.9834ZM130.439 97.3057V152.669H152.09V97.3057H130.439Z" fill="#5B5B5B"/>
<path fill-rule="evenodd" clip-rule="evenodd" d="M97.5299 166.091H79.3434V201.322H97.5299V166.091ZM77.6113 164.413V203H99.262V164.413H77.6113Z" fill="#5B5B5B"/>
<defs>
<filter id="filter0_d_1267_5404" x="0" y="0" width="177" height="81" filterUnits="userSpaceOnUse" color-interpolation-filters="sRGB">
<feFlood flood-opacity="0" result="BackgroundImageFix"/>
<feColorMatrix in="SourceAlpha" type="matrix" values="0 0 0 0 0 0 0 0 0 0 0 0 0 0 0 0 0 0 127 0" result="hardAlpha"/>
<feOffset dy="4"/>
<feGaussianBlur stdDeviation="2"/>
<feComposite in2="hardAlpha" operator="out"/>
<feColorMatrix type="matrix" values="0 0 0 0 0 0 0 0 0 0 0 0 0 0 0 0 0 0 0.25 0"/>
<feBlend mode="normal" in2="BackgroundImageFix" result="effect1_dropShadow_1267_5404"/>
<feBlend mode="normal" in="SourceGraphic" in2="effect1_dropShadow_1267_5404" result="shape"/>
</filter>
</defs>
</svg>
