<svg width="308" height="148" viewBox="0 0 308 148" fill="none" xmlns="http://www.w3.org/2000/svg">
<rect x="0.5" y="0.5" width="63" height="6" fill="white" stroke="#5B5B5B"/>
<rect x="63.5" y="0.5" width="89" height="18" fill="white" stroke="#5B5B5B"/>
<rect x="152.5" y="0.5" width="63" height="6" fill="white" stroke="#5B5B5B"/>
<rect x="215.5" y="0.5" width="92" height="6" fill="white" stroke="#5B5B5B"/>
<rect x="0.5" y="6.5" width="63" height="6" fill="white" stroke="#5B5B5B"/>
<rect x="152.5" y="6.5" width="63" height="6" fill="white" stroke="#5B5B5B"/>
<rect x="215.5" y="6.5" width="92" height="6" fill="white" stroke="#5B5B5B"/>
<rect x="0.5" y="12.5" width="63" height="6" fill="white" stroke="#5B5B5B"/>
<rect x="8.5" y="18.5" width="29" height="6" fill="white" stroke="#5B5B5B"/>
<rect x="178.5" y="18.5" width="29" height="6" fill="white" stroke="#5B5B5B"/>
<rect x="270.5" y="18.5" width="29" height="6" fill="white" stroke="#5B5B5B"/>
<rect x="8.5" y="141.5" width="199" height="6" fill="white" stroke="#5B5B5B"/>
<rect x="270.5" y="141.5" width="29" height="6" fill="white" stroke="#5B5B5B"/>
<rect x="13.5" y="24.5" width="19" height="117" fill="white" stroke="#5B5B5B"/>
<rect x="183.5" y="24.5" width="19" height="117" fill="white" stroke="#5B5B5B"/>
<rect x="275.5" y="24.5" width="19" height="117" fill="white" stroke="#5B5B5B"/>
<rect x="152.5" y="12.5" width="63" height="6" fill="white" stroke="#5B5B5B"/>
<rect x="215.5" y="12.5" width="92" height="6" fill="white" stroke="#5B5B5B"/>
<mask id="path-19-outside-1_1264_913" maskUnits="userSpaceOnUse" x="70.4922" y="1.39746" width="76" height="16" fill="black">
<rect fill="white" x="70.4922" y="1.39746" width="76" height="16"/>
<path d="M76.1842 2.54882V13.5674H75.2609V2.54882H76.1842ZM79.9605 2.54882V3.35099H71.4922V2.54882H79.9605Z"/>
<path d="M81.6027 6.95323V16.7156H80.6945V5.37914H81.5421L81.6027 6.95323ZM87.2936 9.39761V9.55653C87.2936 10.167 87.223 10.727 87.0817 11.2366C86.9404 11.7461 86.7361 12.1876 86.4687 12.5609C86.2064 12.9292 85.881 13.2143 85.4925 13.4161C85.104 13.6179 84.6626 13.7188 84.1681 13.7188C83.6787 13.7188 83.2423 13.6431 82.8589 13.4917C82.4755 13.3404 82.145 13.126 81.8675 12.8485C81.5951 12.566 81.3756 12.238 81.2091 11.8647C81.0477 11.4863 80.9342 11.0726 80.8686 10.6236V8.52732C80.9443 8.03289 81.0679 7.58388 81.2394 7.18026C81.411 6.77665 81.6304 6.42854 81.8978 6.13592C82.1702 5.8433 82.4931 5.61879 82.8665 5.46239C83.2398 5.30599 83.6661 5.22779 84.1454 5.22779C84.6449 5.22779 85.0889 5.32617 85.4773 5.52293C85.8709 5.71465 86.2013 5.99465 86.4687 6.36295C86.7412 6.7262 86.9455 7.16513 87.0817 7.67973C87.223 8.18929 87.2936 8.76192 87.2936 9.39761ZM86.3855 9.55653V9.39761C86.3855 8.91832 86.335 8.47434 86.2341 8.06569C86.1383 7.65703 85.9894 7.30135 85.7876 6.99864C85.5909 6.69088 85.3386 6.45124 85.0308 6.2797C84.7281 6.10817 84.3674 6.0224 83.9487 6.0224C83.5148 6.0224 83.144 6.09556 82.8362 6.24187C82.5335 6.38313 82.2812 6.57232 82.0794 6.80944C81.8776 7.04152 81.7187 7.2963 81.6027 7.57379C81.4866 7.85127 81.4009 8.12371 81.3454 8.3911V10.8052C81.4412 11.1886 81.5951 11.5443 81.807 11.8723C82.0189 12.1951 82.3014 12.455 82.6546 12.6517C83.0128 12.8434 83.4492 12.9393 83.9638 12.9393C84.3775 12.9393 84.7357 12.8535 85.0384 12.682C85.3411 12.5105 85.5909 12.2708 85.7876 11.9631C85.9894 11.6553 86.1383 11.2971 86.2341 10.8884C86.335 10.4798 86.3855 10.0358 86.3855 9.55653Z"/>
<path d="M94.2862 12.0993V7.87649C94.2862 7.48802 94.2055 7.15252 94.044 6.86999C93.8826 6.58746 93.6454 6.37052 93.3326 6.21916C93.0198 6.06781 92.6339 5.99213 92.1748 5.99213C91.751 5.99213 91.3726 6.06781 91.0396 6.21916C90.7117 6.36547 90.4519 6.56475 90.2601 6.81701C90.0735 7.06422 89.9801 7.33919 89.9801 7.64189L89.072 7.63433C89.072 7.32657 89.1477 7.02891 89.299 6.74134C89.4504 6.45376 89.6648 6.19646 89.9423 5.96943C90.2198 5.7424 90.5502 5.56329 90.9337 5.43212C91.3222 5.2959 91.7485 5.22779 92.2126 5.22779C92.7979 5.22779 93.3125 5.32617 93.7564 5.52293C94.2055 5.71969 94.5561 6.01483 94.8083 6.40836C95.0606 6.80188 95.1867 7.2963 95.1867 7.89163V11.8496C95.1867 12.1321 95.2069 12.4247 95.2473 12.7274C95.2927 13.0301 95.3557 13.2798 95.4365 13.4766V13.5674H94.4754C94.4148 13.3858 94.3669 13.1588 94.3316 12.8863C94.3013 12.6088 94.2862 12.3465 94.2862 12.0993ZM94.4981 8.79976L94.5132 9.49599H92.7348C92.2706 9.49599 91.8544 9.53887 91.4861 9.62464C91.1229 9.70536 90.8151 9.82644 90.5629 9.98789C90.3106 10.1443 90.1164 10.3335 89.9801 10.5555C89.849 10.7775 89.7834 11.0297 89.7834 11.3122C89.7834 11.6049 89.8565 11.8723 90.0028 12.1144C90.1542 12.3566 90.3661 12.5508 90.6385 12.6971C90.916 12.8384 91.244 12.909 91.6223 12.909C92.1269 12.909 92.5708 12.8157 92.9543 12.629C93.3427 12.4424 93.6631 12.1977 93.9154 11.895C94.1676 11.5922 94.3366 11.2618 94.4224 10.9036L94.8159 11.4258C94.7503 11.678 94.6292 11.9378 94.4527 12.2052C94.2811 12.4676 94.0566 12.7148 93.7791 12.9469C93.5017 13.1739 93.1737 13.3606 92.7953 13.5069C92.422 13.6481 91.9982 13.7188 91.524 13.7188C90.9892 13.7188 90.5225 13.6179 90.1239 13.4161C89.7304 13.2143 89.4227 12.9393 89.2007 12.5912C88.9837 12.238 88.8753 11.8395 88.8753 11.3955C88.8753 10.9919 88.961 10.6311 89.1326 10.3133C89.3041 9.99041 89.5513 9.71797 89.8742 9.49599C90.2021 9.26896 90.5956 9.09742 91.0548 8.98138C91.5189 8.8603 92.0386 8.79976 92.6137 8.79976H94.4981Z"/>
<path d="M103.201 9.04192V9.81383H98.3425V9.04192H103.201ZM98.5771 5.37914V13.5674H97.6765V5.37914H98.5771ZM103.897 5.37914V13.5674H102.989V5.37914H103.897Z"/>
<path d="M109.354 12.9393C109.737 12.9393 110.095 12.8687 110.428 12.7274C110.766 12.5811 111.044 12.3667 111.261 12.0841C111.483 11.7966 111.609 11.4459 111.639 11.0322H112.502C112.476 11.5519 112.318 12.016 112.025 12.4247C111.737 12.8283 111.359 13.1462 110.89 13.3782C110.426 13.6053 109.914 13.7188 109.354 13.7188C108.783 13.7188 108.279 13.6154 107.84 13.4085C107.406 13.2016 107.043 12.9141 106.75 12.5458C106.458 12.1724 106.236 11.7386 106.084 11.2441C105.938 10.7447 105.865 10.2074 105.865 9.63221V9.31436C105.865 8.73921 105.938 8.20443 106.084 7.71C106.236 7.21053 106.458 6.77665 106.75 6.40836C107.043 6.03501 107.406 5.74492 107.84 5.53807C108.274 5.33122 108.776 5.22779 109.346 5.22779C109.931 5.22779 110.456 5.34635 110.92 5.58347C111.389 5.8206 111.763 6.1561 112.04 6.58998C112.323 7.02386 112.476 7.53847 112.502 8.1338H111.639C111.614 7.69487 111.498 7.31648 111.291 6.99864C111.084 6.68079 110.812 6.4361 110.474 6.26457C110.136 6.09303 109.76 6.00727 109.346 6.00727C108.882 6.00727 108.486 6.09808 108.158 6.2797C107.83 6.45628 107.562 6.70097 107.356 7.01377C107.154 7.32153 107.005 7.67469 106.909 8.07326C106.813 8.46678 106.765 8.88048 106.765 9.31436V9.63221C106.765 10.0711 106.811 10.4899 106.902 10.8884C106.997 11.282 107.146 11.6326 107.348 11.9404C107.555 12.2481 107.822 12.4928 108.15 12.6744C108.483 12.851 108.884 12.9393 109.354 12.9393Z"/>
<path d="M121.939 3.20721L118.125 13.5674H117.156L121.318 2.54882H121.992L121.939 3.20721ZM125.405 13.5674L121.583 3.20721L121.53 2.54882H122.204L126.373 13.5674H125.405ZM124.724 9.67761V10.4798H118.874V9.67761H124.724Z"/>
<path d="M131.209 8.20191H129.847V7.54351H131.171C131.847 7.54351 132.395 7.45522 132.813 7.27864C133.232 7.10206 133.537 6.85485 133.729 6.53701C133.921 6.21916 134.017 5.84582 134.017 5.41698C134.017 4.99824 133.916 4.62237 133.714 4.28939C133.512 3.95137 133.199 3.68397 132.776 3.48721C132.352 3.29045 131.807 3.19207 131.141 3.19207C130.631 3.19207 130.167 3.28541 129.749 3.47208C129.335 3.6537 129.002 3.91353 128.75 4.25155C128.502 4.58958 128.379 4.98562 128.379 5.43969H127.448C127.448 4.97049 127.546 4.54922 127.743 4.17588C127.94 3.79749 128.207 3.47712 128.545 3.21478C128.888 2.94738 129.282 2.74558 129.726 2.60936C130.175 2.46809 130.647 2.39746 131.141 2.39746C131.721 2.39746 132.243 2.46305 132.708 2.59422C133.177 2.72035 133.578 2.91207 133.911 3.16937C134.249 3.42667 134.506 3.74452 134.683 4.1229C134.859 4.50129 134.948 4.94274 134.948 5.44725C134.948 5.82564 134.862 6.18132 134.69 6.5143C134.524 6.84728 134.279 7.1399 133.956 7.39216C133.638 7.64442 133.247 7.8437 132.783 7.99001C132.324 8.13127 131.799 8.20191 131.209 8.20191ZM129.847 7.71H131.209C131.855 7.71 132.42 7.77307 132.904 7.8992C133.394 8.02533 133.802 8.20947 134.13 8.45164C134.458 8.69381 134.705 8.99399 134.872 9.3522C135.038 9.70536 135.122 10.1115 135.122 10.5706C135.122 11.0751 135.023 11.5216 134.826 11.9101C134.63 12.2986 134.352 12.629 133.994 12.9015C133.641 13.1739 133.222 13.3808 132.738 13.522C132.253 13.6582 131.721 13.7263 131.141 13.7263C130.677 13.7263 130.215 13.6633 129.756 13.5372C129.302 13.406 128.888 13.2117 128.515 12.9544C128.147 12.6921 127.849 12.3591 127.622 11.9555C127.4 11.5468 127.289 11.065 127.289 10.5101H128.227C128.227 10.9692 128.349 11.3804 128.591 11.7436C128.838 12.1069 129.178 12.3969 129.612 12.6139C130.051 12.8258 130.561 12.9317 131.141 12.9317C131.792 12.9317 132.342 12.8359 132.791 12.6442C133.245 12.4474 133.59 12.175 133.828 11.8268C134.07 11.4737 134.191 11.065 134.191 10.6009C134.191 10.2074 134.125 9.86933 133.994 9.5868C133.863 9.29923 133.669 9.06463 133.411 8.883C133.159 8.70138 132.846 8.56768 132.473 8.48191C132.1 8.39614 131.666 8.35326 131.171 8.35326H129.847V7.71Z"/>
<path d="M144.105 10.1317H145.035C144.96 10.8733 144.755 11.514 144.422 12.0539C144.089 12.5887 143.635 12.9998 143.06 13.2874C142.485 13.575 141.791 13.7188 140.979 13.7188C140.353 13.7188 139.786 13.6002 139.276 13.3631C138.772 13.126 138.338 12.7905 137.975 12.3566C137.611 11.9177 137.331 11.393 137.135 10.7825C136.938 10.172 136.839 9.49347 136.839 8.74678V7.36946C136.839 6.62277 136.938 5.94672 137.135 5.34131C137.331 4.73084 137.614 4.20615 137.982 3.76722C138.351 3.32829 138.792 2.99027 139.307 2.75314C139.821 2.51602 140.401 2.39746 141.047 2.39746C141.829 2.39746 142.505 2.54125 143.075 2.82882C143.645 3.11135 144.094 3.52001 144.422 4.05479C144.755 4.58958 144.96 5.23536 145.035 5.99213H144.105C144.034 5.3968 143.877 4.89229 143.635 4.47859C143.393 4.06488 143.058 3.74956 142.629 3.53262C142.205 3.31063 141.678 3.19964 141.047 3.19964C140.533 3.19964 140.073 3.29802 139.67 3.49478C139.266 3.69154 138.923 3.97407 138.641 4.34237C138.358 4.70562 138.141 5.14202 137.99 5.65158C137.843 6.16114 137.77 6.72872 137.77 7.35432V8.74678C137.77 9.3522 137.841 9.90969 137.982 10.4193C138.123 10.9288 138.33 11.3703 138.603 11.7436C138.88 12.1169 139.218 12.407 139.617 12.6139C140.015 12.8207 140.469 12.9242 140.979 12.9242C141.63 12.9242 142.172 12.8207 142.606 12.6139C143.045 12.402 143.386 12.0892 143.628 11.6755C143.87 11.2618 144.029 10.7472 144.105 10.1317Z"/>
</mask>
<path d="M76.1842 2.54882V13.5674H75.2609V2.54882H76.1842ZM79.9605 2.54882V3.35099H71.4922V2.54882H79.9605Z" stroke="#5B5B5B" mask="url(#path-19-outside-1_1264_913)"/>
<path d="M81.6027 6.95323V16.7156H80.6945V5.37914H81.5421L81.6027 6.95323ZM87.2936 9.39761V9.55653C87.2936 10.167 87.223 10.727 87.0817 11.2366C86.9404 11.7461 86.7361 12.1876 86.4687 12.5609C86.2064 12.9292 85.881 13.2143 85.4925 13.4161C85.104 13.6179 84.6626 13.7188 84.1681 13.7188C83.6787 13.7188 83.2423 13.6431 82.8589 13.4917C82.4755 13.3404 82.145 13.126 81.8675 12.8485C81.5951 12.566 81.3756 12.238 81.2091 11.8647C81.0477 11.4863 80.9342 11.0726 80.8686 10.6236V8.52732C80.9443 8.03289 81.0679 7.58388 81.2394 7.18026C81.411 6.77665 81.6304 6.42854 81.8978 6.13592C82.1702 5.8433 82.4931 5.61879 82.8665 5.46239C83.2398 5.30599 83.6661 5.22779 84.1454 5.22779C84.6449 5.22779 85.0889 5.32617 85.4773 5.52293C85.8709 5.71465 86.2013 5.99465 86.4687 6.36295C86.7412 6.7262 86.9455 7.16513 87.0817 7.67973C87.223 8.18929 87.2936 8.76192 87.2936 9.39761ZM86.3855 9.55653V9.39761C86.3855 8.91832 86.335 8.47434 86.2341 8.06569C86.1383 7.65703 85.9894 7.30135 85.7876 6.99864C85.5909 6.69088 85.3386 6.45124 85.0308 6.2797C84.7281 6.10817 84.3674 6.0224 83.9487 6.0224C83.5148 6.0224 83.144 6.09556 82.8362 6.24187C82.5335 6.38313 82.2812 6.57232 82.0794 6.80944C81.8776 7.04152 81.7187 7.2963 81.6027 7.57379C81.4866 7.85127 81.4009 8.12371 81.3454 8.3911V10.8052C81.4412 11.1886 81.5951 11.5443 81.807 11.8723C82.0189 12.1951 82.3014 12.455 82.6546 12.6517C83.0128 12.8434 83.4492 12.9393 83.9638 12.9393C84.3775 12.9393 84.7357 12.8535 85.0384 12.682C85.3411 12.5105 85.5909 12.2708 85.7876 11.9631C85.9894 11.6553 86.1383 11.2971 86.2341 10.8884C86.335 10.4798 86.3855 10.0358 86.3855 9.55653Z" stroke="#5B5B5B" mask="url(#path-19-outside-1_1264_913)"/>
<path d="M94.2862 12.0993V7.87649C94.2862 7.48802 94.2055 7.15252 94.044 6.86999C93.8826 6.58746 93.6454 6.37052 93.3326 6.21916C93.0198 6.06781 92.6339 5.99213 92.1748 5.99213C91.751 5.99213 91.3726 6.06781 91.0396 6.21916C90.7117 6.36547 90.4519 6.56475 90.2601 6.81701C90.0735 7.06422 89.9801 7.33919 89.9801 7.64189L89.072 7.63433C89.072 7.32657 89.1477 7.02891 89.299 6.74134C89.4504 6.45376 89.6648 6.19646 89.9423 5.96943C90.2198 5.7424 90.5502 5.56329 90.9337 5.43212C91.3222 5.2959 91.7485 5.22779 92.2126 5.22779C92.7979 5.22779 93.3125 5.32617 93.7564 5.52293C94.2055 5.71969 94.5561 6.01483 94.8083 6.40836C95.0606 6.80188 95.1867 7.2963 95.1867 7.89163V11.8496C95.1867 12.1321 95.2069 12.4247 95.2473 12.7274C95.2927 13.0301 95.3557 13.2798 95.4365 13.4766V13.5674H94.4754C94.4148 13.3858 94.3669 13.1588 94.3316 12.8863C94.3013 12.6088 94.2862 12.3465 94.2862 12.0993ZM94.4981 8.79976L94.5132 9.49599H92.7348C92.2706 9.49599 91.8544 9.53887 91.4861 9.62464C91.1229 9.70536 90.8151 9.82644 90.5629 9.98789C90.3106 10.1443 90.1164 10.3335 89.9801 10.5555C89.849 10.7775 89.7834 11.0297 89.7834 11.3122C89.7834 11.6049 89.8565 11.8723 90.0028 12.1144C90.1542 12.3566 90.3661 12.5508 90.6385 12.6971C90.916 12.8384 91.244 12.909 91.6223 12.909C92.1269 12.909 92.5708 12.8157 92.9543 12.629C93.3427 12.4424 93.6631 12.1977 93.9154 11.895C94.1676 11.5922 94.3366 11.2618 94.4224 10.9036L94.8159 11.4258C94.7503 11.678 94.6292 11.9378 94.4527 12.2052C94.2811 12.4676 94.0566 12.7148 93.7791 12.9469C93.5017 13.1739 93.1737 13.3606 92.7953 13.5069C92.422 13.6481 91.9982 13.7188 91.524 13.7188C90.9892 13.7188 90.5225 13.6179 90.1239 13.4161C89.7304 13.2143 89.4227 12.9393 89.2007 12.5912C88.9837 12.238 88.8753 11.8395 88.8753 11.3955C88.8753 10.9919 88.961 10.6311 89.1326 10.3133C89.3041 9.99041 89.5513 9.71797 89.8742 9.49599C90.2021 9.26896 90.5956 9.09742 91.0548 8.98138C91.5189 8.8603 92.0386 8.79976 92.6137 8.79976H94.4981Z" stroke="#5B5B5B" mask="url(#path-19-outside-1_1264_913)"/>
<path d="M103.201 9.04192V9.81383H98.3425V9.04192H103.201ZM98.5771 5.37914V13.5674H97.6765V5.37914H98.5771ZM103.897 5.37914V13.5674H102.989V5.37914H103.897Z" stroke="#5B5B5B" mask="url(#path-19-outside-1_1264_913)"/>
<path d="M109.354 12.9393C109.737 12.9393 110.095 12.8687 110.428 12.7274C110.766 12.5811 111.044 12.3667 111.261 12.0841C111.483 11.7966 111.609 11.4459 111.639 11.0322H112.502C112.476 11.5519 112.318 12.016 112.025 12.4247C111.737 12.8283 111.359 13.1462 110.89 13.3782C110.426 13.6053 109.914 13.7188 109.354 13.7188C108.783 13.7188 108.279 13.6154 107.84 13.4085C107.406 13.2016 107.043 12.9141 106.75 12.5458C106.458 12.1724 106.236 11.7386 106.084 11.2441C105.938 10.7447 105.865 10.2074 105.865 9.63221V9.31436C105.865 8.73921 105.938 8.20443 106.084 7.71C106.236 7.21053 106.458 6.77665 106.75 6.40836C107.043 6.03501 107.406 5.74492 107.84 5.53807C108.274 5.33122 108.776 5.22779 109.346 5.22779C109.931 5.22779 110.456 5.34635 110.92 5.58347C111.389 5.8206 111.763 6.1561 112.04 6.58998C112.323 7.02386 112.476 7.53847 112.502 8.1338H111.639C111.614 7.69487 111.498 7.31648 111.291 6.99864C111.084 6.68079 110.812 6.4361 110.474 6.26457C110.136 6.09303 109.76 6.00727 109.346 6.00727C108.882 6.00727 108.486 6.09808 108.158 6.2797C107.83 6.45628 107.562 6.70097 107.356 7.01377C107.154 7.32153 107.005 7.67469 106.909 8.07326C106.813 8.46678 106.765 8.88048 106.765 9.31436V9.63221C106.765 10.0711 106.811 10.4899 106.902 10.8884C106.997 11.282 107.146 11.6326 107.348 11.9404C107.555 12.2481 107.822 12.4928 108.15 12.6744C108.483 12.851 108.884 12.9393 109.354 12.9393Z" stroke="#5B5B5B" mask="url(#path-19-outside-1_1264_913)"/>
<path d="M121.939 3.20721L118.125 13.5674H117.156L121.318 2.54882H121.992L121.939 3.20721ZM125.405 13.5674L121.583 3.20721L121.53 2.54882H122.204L126.373 13.5674H125.405ZM124.724 9.67761V10.4798H118.874V9.67761H124.724Z" stroke="#5B5B5B" mask="url(#path-19-outside-1_1264_913)"/>
<path d="M131.209 8.20191H129.847V7.54351H131.171C131.847 7.54351 132.395 7.45522 132.813 7.27864C133.232 7.10206 133.537 6.85485 133.729 6.53701C133.921 6.21916 134.017 5.84582 134.017 5.41698C134.017 4.99824 133.916 4.62237 133.714 4.28939C133.512 3.95137 133.199 3.68397 132.776 3.48721C132.352 3.29045 131.807 3.19207 131.141 3.19207C130.631 3.19207 130.167 3.28541 129.749 3.47208C129.335 3.6537 129.002 3.91353 128.75 4.25155C128.502 4.58958 128.379 4.98562 128.379 5.43969H127.448C127.448 4.97049 127.546 4.54922 127.743 4.17588C127.94 3.79749 128.207 3.47712 128.545 3.21478C128.888 2.94738 129.282 2.74558 129.726 2.60936C130.175 2.46809 130.647 2.39746 131.141 2.39746C131.721 2.39746 132.243 2.46305 132.708 2.59422C133.177 2.72035 133.578 2.91207 133.911 3.16937C134.249 3.42667 134.506 3.74452 134.683 4.1229C134.859 4.50129 134.948 4.94274 134.948 5.44725C134.948 5.82564 134.862 6.18132 134.69 6.5143C134.524 6.84728 134.279 7.1399 133.956 7.39216C133.638 7.64442 133.247 7.8437 132.783 7.99001C132.324 8.13127 131.799 8.20191 131.209 8.20191ZM129.847 7.71H131.209C131.855 7.71 132.42 7.77307 132.904 7.8992C133.394 8.02533 133.802 8.20947 134.13 8.45164C134.458 8.69381 134.705 8.99399 134.872 9.3522C135.038 9.70536 135.122 10.1115 135.122 10.5706C135.122 11.0751 135.023 11.5216 134.826 11.9101C134.63 12.2986 134.352 12.629 133.994 12.9015C133.641 13.1739 133.222 13.3808 132.738 13.522C132.253 13.6582 131.721 13.7263 131.141 13.7263C130.677 13.7263 130.215 13.6633 129.756 13.5372C129.302 13.406 128.888 13.2117 128.515 12.9544C128.147 12.6921 127.849 12.3591 127.622 11.9555C127.4 11.5468 127.289 11.065 127.289 10.5101H128.227C128.227 10.9692 128.349 11.3804 128.591 11.7436C128.838 12.1069 129.178 12.3969 129.612 12.6139C130.051 12.8258 130.561 12.9317 131.141 12.9317C131.792 12.9317 132.342 12.8359 132.791 12.6442C133.245 12.4474 133.59 12.175 133.828 11.8268C134.07 11.4737 134.191 11.065 134.191 10.6009C134.191 10.2074 134.125 9.86933 133.994 9.5868C133.863 9.29923 133.669 9.06463 133.411 8.883C133.159 8.70138 132.846 8.56768 132.473 8.48191C132.1 8.39614 131.666 8.35326 131.171 8.35326H129.847V7.71Z" stroke="#5B5B5B" mask="url(#path-19-outside-1_1264_913)"/>
<path d="M144.105 10.1317H145.035C144.96 10.8733 144.755 11.514 144.422 12.0539C144.089 12.5887 143.635 12.9998 143.06 13.2874C142.485 13.575 141.791 13.7188 140.979 13.7188C140.353 13.7188 139.786 13.6002 139.276 13.3631C138.772 13.126 138.338 12.7905 137.975 12.3566C137.611 11.9177 137.331 11.393 137.135 10.7825C136.938 10.172 136.839 9.49347 136.839 8.74678V7.36946C136.839 6.62277 136.938 5.94672 137.135 5.34131C137.331 4.73084 137.614 4.20615 137.982 3.76722C138.351 3.32829 138.792 2.99027 139.307 2.75314C139.821 2.51602 140.401 2.39746 141.047 2.39746C141.829 2.39746 142.505 2.54125 143.075 2.82882C143.645 3.11135 144.094 3.52001 144.422 4.05479C144.755 4.58958 144.96 5.23536 145.035 5.99213H144.105C144.034 5.3968 143.877 4.89229 143.635 4.47859C143.393 4.06488 143.058 3.74956 142.629 3.53262C142.205 3.31063 141.678 3.19964 141.047 3.19964C140.533 3.19964 140.073 3.29802 139.67 3.49478C139.266 3.69154 138.923 3.97407 138.641 4.34237C138.358 4.70562 138.141 5.14202 137.99 5.65158C137.843 6.16114 137.77 6.72872 137.77 7.35432V8.74678C137.77 9.3522 137.841 9.90969 137.982 10.4193C138.123 10.9288 138.33 11.3703 138.603 11.7436C138.88 12.1169 139.218 12.407 139.617 12.6139C140.015 12.8207 140.469 12.9242 140.979 12.9242C141.63 12.9242 142.172 12.8207 142.606 12.6139C143.045 12.402 143.386 12.0892 143.628 11.6755C143.87 11.2618 144.029 10.7472 144.105 10.1317Z" stroke="#5B5B5B" mask="url(#path-19-outside-1_1264_913)"/>
<path d="M38 92C38 89.2386 40.2386 87 43 87H60C62.7614 87 65 89.2386 65 92V141H43C40.2386 141 38 138.761 38 136V92Z" fill="white"/>
<path d="M74 107L66.5 96.5V100L69.5 104V105.5L69 109L71 111.5L72.5 113L74.5 126.5C75.3333 130.333 77 138.3 77 139.5C77 141 76 142.5 75 143.5C74 144.5 71.5 143.5 71 142C70.5 140.5 71 135.5 71.5 133C72 130.5 71 129.5 70.5 128C70.1 126.8 67.6667 126.167 66.5 126V128C67 127.667 68.5 129 69 130.5C69.5 132 67.5 136 69 141.5C70.5 147 78 144.5 79 141.5C80 138.5 78 131.5 77 127C76 122.5 74.5 113 74.5 111C74.5 109.4 74.1667 107.667 74 107Z" fill="white"/>
<path fill-rule="evenodd" clip-rule="evenodd" d="M60 88H42C39.7909 88 38 89.7909 38 92V141H64V92C64 89.7909 62.2091 88 60 88ZM42 87C39.2386 87 37 89.2386 37 92V142H65V92C65 89.2386 62.7614 87 60 87H42Z" fill="#5B5B5B"/>
<path fill-rule="evenodd" clip-rule="evenodd" d="M59 97H43V113H59V97ZM42 96V114H60V96H42Z" fill="#5B5B5B"/>
<path d="M70.5 144C68.9 142.4 68.5 141 68.5 140.5L70.5 140C71.1667 142 72.1 145.6 70.5 144Z" fill="white"/>
<path d="M76.8828 144C78.4828 142.4 78.8828 141 78.8828 140.5L76.8828 140C76.2161 142 75.2828 145.6 76.8828 144Z" fill="white"/>
<path fill-rule="evenodd" clip-rule="evenodd" d="M65.8438 94.7749L74.7436 106.876L74.7526 107.357C74.8024 109.991 75.219 116.763 76.4711 122.606C76.7536 123.924 77.0931 125.352 77.443 126.823L77.4437 126.826L77.446 126.836C78.0541 129.392 78.6936 132.081 79.1038 134.505C79.4299 136.433 79.6343 138.309 79.5587 139.941C79.4853 141.529 79.1363 143.164 78.0852 144.332C76.3887 146.217 73.7702 147.138 71.458 146.118C69.0749 145.067 67.8304 142.34 68.0393 138.623C68.1283 137.039 68.2939 135.616 68.4362 134.393L68.4806 134.01C68.6359 132.667 68.7373 131.657 68.7049 130.847C68.6731 130.052 68.5163 129.667 68.3373 129.444C68.1665 129.23 67.7951 128.939 66.8383 128.735L66.8372 128.735L65.8438 128.521L65.8438 125.319L67.4915 125.67C68.8585 125.961 70.0023 126.508 70.7846 127.486C71.5584 128.453 71.7921 129.612 71.8364 130.722C71.8803 131.818 71.7436 133.075 71.5939 134.37L71.5501 134.748L71.5496 134.752C71.4066 135.981 71.2517 137.315 71.1684 138.799C70.9964 141.859 72.0342 142.947 72.7226 143.25C73.4823 143.585 74.7122 143.395 75.7557 142.235C76.0765 141.879 76.3658 141.141 76.4281 139.796C76.4883 138.494 76.3259 136.873 76.0137 135.028C75.6188 132.694 75.0209 130.183 74.4238 127.677L74.4231 127.674L74.4224 127.671C74.068 126.183 73.7142 124.698 73.4066 123.263C72.677 119.858 72.2221 116.183 71.9532 113.125L71.3921 112.769C69.6911 111.69 68.9692 110.084 68.7544 108.62C68.5457 107.197 68.7972 105.838 69.1066 104.975L69.2393 104.605L65.8438 99.9273L65.8438 94.7749ZM66.8438 97.8223L73.7497 107.212L73.7528 107.376C73.8032 110.048 74.2231 116.888 75.4933 122.816C75.7785 124.147 76.1207 125.585 76.47 127.054L76.4708 127.057L76.4715 127.06C77.082 129.627 77.7138 132.284 78.1178 134.672C78.4395 136.573 78.6305 138.368 78.5598 139.895C78.4899 141.406 78.16 142.754 77.3419 143.663C75.8507 145.32 73.6749 146.003 71.8615 145.203C70.0225 144.392 68.8404 142.192 69.0377 138.679C69.1249 137.126 69.2874 135.73 69.43 134.504L69.474 134.126C69.6274 132.798 69.7402 131.708 69.7041 130.807C69.6683 129.911 69.4868 129.28 69.1182 128.819C68.7528 128.362 68.1358 127.989 67.0478 127.757C67.0478 127.757 67.0478 127.757 67.0478 127.757C67.0475 127.757 67.0471 127.757 67.0467 127.757L66.8438 127.713L66.8438 126.554L67.2831 126.648C68.5199 126.911 69.4168 127.377 70.0037 128.11C70.5876 128.84 70.7969 129.752 70.8372 130.762C70.8774 131.766 70.752 132.945 70.6006 134.255C70.6006 134.255 70.6006 134.255 70.6006 134.255L70.5573 134.628L70.5568 134.633L70.5562 134.637C70.4135 135.864 70.2552 137.225 70.1699 138.743C69.9858 142.019 71.0944 143.625 72.3191 144.165C73.5692 144.717 75.2428 144.3 76.499 142.904C77.0528 142.289 77.3612 141.265 77.427 139.842C77.4921 138.435 77.3163 136.733 76.9997 134.861C76.5986 132.491 75.993 129.949 75.3982 127.452L75.3961 127.443L75.3953 127.439C75.0404 125.95 74.6892 124.476 74.3844 123.053C73.647 119.612 73.192 115.875 72.9281 112.792L72.907 112.545L71.9276 111.924C70.5278 111.036 69.9269 109.722 69.7438 108.474C69.5629 107.241 69.7839 106.049 70.048 105.312L70.3589 104.445L66.8438 99.6026L66.8438 97.8223ZM70.9867 105.31L72.6222 107.563L72.6263 107.718C72.6439 108.384 72.6805 109.247 72.7417 110.253L72.8173 111.496L71.903 110.65C71.189 109.99 70.8548 109.158 70.7333 108.329C70.6349 107.659 70.6789 107 70.7772 106.46L70.9867 105.31Z" fill="#5B5B5B"/>
<path d="M240 92C240 89.2386 237.761 87 235 87H218C215.239 87 213 89.2386 213 92V141H235C237.761 141 240 138.761 240 136V92Z" fill="white"/>
<path fill-rule="evenodd" clip-rule="evenodd" d="M236 88H218C215.791 88 214 89.7909 214 92V141H240V92C240 89.7909 238.209 88 236 88ZM218 87C215.239 87 213 89.2386 213 92V142H241V92C241 89.2386 238.761 87 236 87H218Z" fill="#5B5B5B"/>
<path fill-rule="evenodd" clip-rule="evenodd" d="M235 97H219V113H235V97ZM218 96V114H236V96H218Z" fill="#5B5B5B"/>
<path fill-rule="evenodd" clip-rule="evenodd" d="M242 142.167H212V146.833H242V142.167ZM212 141C211.448 141 211 141.522 211 142.167V146.833C211 147.478 211.448 148 212 148H242C242.552 148 243 147.478 243 146.833V142.167C243 141.522 242.552 141 242 141H212Z" fill="#5B5B5B"/>
<path fill-rule="evenodd" clip-rule="evenodd" d="M241.844 94.7749L250.744 106.876L250.753 107.357C250.802 109.991 251.219 116.763 252.471 122.606C252.754 123.924 253.093 125.352 253.443 126.823L253.444 126.826L253.446 126.836C254.054 129.392 254.694 132.081 255.104 134.505C255.43 136.433 255.634 138.309 255.559 139.941C255.485 141.529 255.136 143.164 254.085 144.332C252.389 146.217 249.77 147.138 247.458 146.118C245.075 145.067 243.83 142.34 244.039 138.623C244.128 137.039 244.294 135.616 244.436 134.393L244.481 134.01C244.636 132.667 244.737 131.657 244.705 130.847C244.673 130.052 244.516 129.667 244.337 129.444C244.167 129.23 243.795 128.939 242.838 128.735L242.837 128.735L241.844 128.521L241.844 125.319L243.492 125.67C244.858 125.961 246.002 126.508 246.785 127.486C247.558 128.453 247.792 129.612 247.836 130.722C247.88 131.818 247.744 133.075 247.594 134.37L247.55 134.748L247.55 134.752C247.407 135.981 247.252 137.315 247.168 138.799C246.996 141.859 248.034 142.947 248.723 143.25C249.482 143.585 250.712 143.395 251.756 142.235C252.076 141.879 252.366 141.141 252.428 139.796C252.488 138.494 252.326 136.873 252.014 135.028C251.619 132.694 251.021 130.183 250.424 127.677L250.423 127.674L250.422 127.671C250.068 126.183 249.714 124.698 249.407 123.263C248.677 119.858 248.222 116.183 247.953 113.125L247.392 112.769C245.691 111.69 244.969 110.084 244.754 108.62C244.546 107.197 244.797 105.838 245.107 104.975L245.239 104.605L241.844 99.9273L241.844 94.7749ZM242.844 97.8223L249.75 107.212L249.753 107.376C249.803 110.048 250.223 116.888 251.493 122.816C251.779 124.147 252.121 125.585 252.47 127.054L252.471 127.057L252.472 127.06C253.082 129.627 253.714 132.284 254.118 134.672C254.439 136.573 254.63 138.368 254.56 139.895C254.49 141.406 254.16 142.754 253.342 143.663C251.851 145.32 249.675 146.003 247.862 145.203C246.023 144.392 244.84 142.192 245.038 138.679C245.125 137.126 245.287 135.73 245.43 134.504L245.474 134.126C245.627 132.798 245.74 131.708 245.704 130.807C245.668 129.911 245.487 129.28 245.118 128.819C244.753 128.362 244.136 127.989 243.048 127.757C243.048 127.757 243.048 127.757 243.048 127.757C243.047 127.757 243.047 127.757 243.047 127.757L242.844 127.713L242.844 126.554L243.283 126.648C244.52 126.911 245.417 127.377 246.004 128.11C246.588 128.84 246.797 129.752 246.837 130.762C246.877 131.766 246.752 132.945 246.601 134.255C246.601 134.255 246.601 134.255 246.601 134.255L246.557 134.628L246.557 134.633L246.556 134.637C246.414 135.864 246.255 137.225 246.17 138.743C245.986 142.019 247.094 143.625 248.319 144.165C249.569 144.717 251.243 144.3 252.499 142.904C253.053 142.289 253.361 141.265 253.427 139.842C253.492 138.435 253.316 136.733 253 134.861C252.599 132.491 251.993 129.949 251.398 127.452L251.396 127.443L251.395 127.439C251.04 125.95 250.689 124.476 250.384 123.053C249.647 119.612 249.192 115.875 248.928 112.792L248.907 112.545L247.928 111.924C246.528 111.036 245.927 109.722 245.744 108.474C245.563 107.241 245.784 106.049 246.048 105.312L246.359 104.445L242.844 99.6026L242.844 97.8223ZM246.987 105.31L248.622 107.563L248.626 107.718C248.644 108.384 248.681 109.247 248.742 110.253L248.817 111.496L247.903 110.65C247.189 109.99 246.855 109.158 246.733 108.329C246.635 107.659 246.679 107 246.777 106.46L246.987 105.31Z" fill="#5B5B5B"/>
<rect x="212" y="142" width="30" height="5" fill="white"/>
</svg>
