<svg width="317" height="158" viewBox="0 0 317 158" fill="none" xmlns="http://www.w3.org/2000/svg">
<rect x="78" y="14" width="111" height="30" fill="#FFD200"/>
<rect x="189" y="44" width="128" height="32" fill="#FFD200"/>
<path fill-rule="evenodd" clip-rule="evenodd" d="M189 0H78V14H189V44H317V0H189.238H189Z" fill="#FFD200"/>
<rect x="113.5" y="25.5" width="7" height="12" fill="white" stroke="#5B5B5B"/>
<rect x="113.5" y="18.5" width="7" height="7" fill="white" stroke="#5B5B5B"/>
<rect x="120.5" y="25.5" width="7" height="12" fill="white" stroke="#5B5B5B"/>
<rect x="120.5" y="18.5" width="7" height="7" fill="white" stroke="#5B5B5B"/>
<rect x="143.5" y="25.5" width="7" height="12" fill="white" stroke="#5B5B5B"/>
<rect x="143.5" y="18.5" width="7" height="7" fill="white" stroke="#5B5B5B"/>
<rect x="150.5" y="25.5" width="7" height="12" fill="white" stroke="#5B5B5B"/>
<rect x="150.5" y="18.5" width="7" height="7" fill="white" stroke="#5B5B5B"/>
<rect x="196.5" y="58.5" width="7" height="12" fill="white" stroke="#5B5B5B"/>
<rect x="196.5" y="51.5" width="7" height="7" fill="white" stroke="#5B5B5B"/>
<rect x="203.5" y="58.5" width="7" height="12" fill="white" stroke="#5B5B5B"/>
<rect x="203.5" y="51.5" width="7" height="7" fill="white" stroke="#5B5B5B"/>
<rect x="221.5" y="58.5" width="7" height="12" fill="white" stroke="#5B5B5B"/>
<rect x="221.5" y="51.5" width="7" height="7" fill="white" stroke="#5B5B5B"/>
<rect x="228.5" y="58.5" width="7" height="12" fill="white" stroke="#5B5B5B"/>
<rect x="228.5" y="51.5" width="7" height="7" fill="white" stroke="#5B5B5B"/>
<rect x="246.5" y="58.5" width="7" height="12" fill="white" stroke="#5B5B5B"/>
<rect x="246.5" y="51.5" width="7" height="7" fill="white" stroke="#5B5B5B"/>
<rect x="253.5" y="58.5" width="7" height="12" fill="white" stroke="#5B5B5B"/>
<rect x="253.5" y="51.5" width="7" height="7" fill="white" stroke="#5B5B5B"/>
<rect x="271.5" y="58.5" width="7" height="12" fill="white" stroke="#5B5B5B"/>
<rect x="271.5" y="51.5" width="7" height="7" fill="white" stroke="#5B5B5B"/>
<rect x="278.5" y="58.5" width="7" height="12" fill="white" stroke="#5B5B5B"/>
<rect x="278.5" y="51.5" width="7" height="7" fill="white" stroke="#5B5B5B"/>
<rect x="296.5" y="58.5" width="7" height="12" fill="white" stroke="#5B5B5B"/>
<rect x="296.5" y="51.5" width="7" height="7" fill="white" stroke="#5B5B5B"/>
<rect x="303.5" y="58.5" width="7" height="12" fill="white" stroke="#5B5B5B"/>
<rect x="303.5" y="51.5" width="7" height="7" fill="white" stroke="#5B5B5B"/>
<rect y="139" width="317" height="19" fill="white"/>
<path d="M61.5 14H78V44.5H188.5V76H316.5V138.5H2V25H37V19.5H61.5V14Z" fill="white" stroke="#5B5B5B"/>
<rect x="14.5" y="58.5" width="7" height="12" fill="white" stroke="#5B5B5B"/>
<rect x="14.5" y="51.5" width="7" height="7" fill="white" stroke="#5B5B5B"/>
<rect x="38.5" y="58.5" width="7" height="12" fill="white" stroke="#5B5B5B"/>
<rect x="38.5" y="51.5" width="7" height="7" fill="white" stroke="#5B5B5B"/>
<rect x="63.5" y="58.5" width="7" height="12" fill="white" stroke="#5B5B5B"/>
<rect x="63.5" y="51.5" width="7" height="7" fill="white" stroke="#5B5B5B"/>
<rect x="88.5" y="58.5" width="7" height="12" fill="white" stroke="#5B5B5B"/>
<rect x="88.5" y="51.5" width="7" height="7" fill="white" stroke="#5B5B5B"/>
<rect x="95.5" y="58.5" width="7" height="12" fill="white" stroke="#5B5B5B"/>
<rect x="95.5" y="51.5" width="7" height="7" fill="white" stroke="#5B5B5B"/>
<rect x="88.5" y="85.9502" width="7" height="16.55" fill="white" stroke="#5B5B5B"/>
<rect x="88.5" y="76.5" width="7" height="9.8" fill="white" stroke="#5B5B5B"/>
<rect x="95.5" y="85.9502" width="7" height="16.55" fill="white" stroke="#5B5B5B"/>
<rect x="95.5" y="76.5" width="7" height="9.8" fill="white" stroke="#5B5B5B"/>
<rect x="60.5" y="90.5" width="7" height="12" fill="white" stroke="#5B5B5B"/>
<rect x="60.5" y="83.5" width="7" height="7" fill="white" stroke="#5B5B5B"/>
<rect x="67.5" y="90.5" width="7" height="12" fill="white" stroke="#5B5B5B"/>
<rect x="67.5" y="83.5" width="7" height="7" fill="white" stroke="#5B5B5B"/>
<rect x="35.5" y="90.5" width="7" height="12" fill="white" stroke="#5B5B5B"/>
<rect x="35.5" y="83.5" width="7" height="7" fill="white" stroke="#5B5B5B"/>
<rect x="42.5" y="90.5" width="7" height="12" fill="white" stroke="#5B5B5B"/>
<rect x="42.5" y="83.5" width="7" height="7" fill="white" stroke="#5B5B5B"/>
<rect x="35.5" y="120.5" width="7" height="12" fill="white" stroke="#5B5B5B"/>
<rect x="35.5" y="113.5" width="7" height="7" fill="white" stroke="#5B5B5B"/>
<rect x="42.5" y="120.5" width="7" height="12" fill="white" stroke="#5B5B5B"/>
<rect x="42.5" y="113.5" width="7" height="7" fill="white" stroke="#5B5B5B"/>
<rect x="54.5" y="120.5" width="12" height="18" fill="white" stroke="#5B5B5B"/>
<rect x="65.5" y="120.5" width="12" height="18" fill="white" stroke="#5B5B5B"/>
<rect x="11.5" y="90.5" width="7" height="12" fill="white" stroke="#5B5B5B"/>
<rect x="11.5" y="83.5" width="7" height="7" fill="white" stroke="#5B5B5B"/>
<rect x="18.5" y="90.5" width="7" height="12" fill="white" stroke="#5B5B5B"/>
<rect x="18.5" y="83.5" width="7" height="7" fill="white" stroke="#5B5B5B"/>
<rect x="11.5" y="120.5" width="7" height="12" fill="white" stroke="#5B5B5B"/>
<rect x="11.5" y="113.5" width="7" height="7" fill="white" stroke="#5B5B5B"/>
<rect x="18.5" y="120.5" width="7" height="12" fill="white" stroke="#5B5B5B"/>
<rect x="18.5" y="113.5" width="7" height="7" fill="white" stroke="#5B5B5B"/>
<rect x="113.5" y="58.5" width="7" height="12" fill="white" stroke="#5B5B5B"/>
<rect x="113.5" y="51.5" width="7" height="7" fill="white" stroke="#5B5B5B"/>
<rect x="120.5" y="58.5" width="7" height="12" fill="white" stroke="#5B5B5B"/>
<rect x="120.5" y="51.5" width="7" height="7" fill="white" stroke="#5B5B5B"/>
<rect x="113.5" y="90.5" width="7" height="12" fill="white" stroke="#5B5B5B"/>
<rect x="113.5" y="83.5" width="7" height="7" fill="white" stroke="#5B5B5B"/>
<rect x="120.5" y="90.5" width="7" height="12" fill="white" stroke="#5B5B5B"/>
<rect x="120.5" y="83.5" width="7" height="7" fill="white" stroke="#5B5B5B"/>
<rect x="113.5" y="120.5" width="7" height="12" fill="white" stroke="#5B5B5B"/>
<rect x="113.5" y="113.5" width="7" height="7" fill="white" stroke="#5B5B5B"/>
<rect x="120.5" y="120.5" width="7" height="12" fill="white" stroke="#5B5B5B"/>
<rect x="120.5" y="113.5" width="7" height="7" fill="white" stroke="#5B5B5B"/>
<rect x="85.5" y="115.5" width="20" height="23" fill="white" stroke="#5B5B5B"/>
<rect x="90.5" y="120.5" width="10" height="18" fill="white" stroke="#5B5B5B"/>
<rect x="90.5" y="115.5" width="10" height="5" fill="white" stroke="#5B5B5B"/>
<rect x="92.5" y="120.5" width="6" height="8" fill="white" stroke="#5B5B5B"/>
<rect x="143.5" y="58.5" width="7" height="12" fill="white" stroke="#5B5B5B"/>
<rect x="143.5" y="51.5" width="7" height="7" fill="white" stroke="#5B5B5B"/>
<rect x="150.5" y="58.5" width="7" height="12" fill="white" stroke="#5B5B5B"/>
<rect x="150.5" y="51.5" width="7" height="7" fill="white" stroke="#5B5B5B"/>
<rect x="143.5" y="90.5" width="7" height="12" fill="white" stroke="#5B5B5B"/>
<rect x="143.5" y="83.5" width="7" height="7" fill="white" stroke="#5B5B5B"/>
<rect x="150.5" y="90.5" width="7" height="12" fill="white" stroke="#5B5B5B"/>
<rect x="150.5" y="83.5" width="7" height="7" fill="white" stroke="#5B5B5B"/>
<rect x="143.5" y="120.5" width="7" height="12" fill="white" stroke="#5B5B5B"/>
<rect x="143.5" y="113.5" width="7" height="7" fill="white" stroke="#5B5B5B"/>
<rect x="150.5" y="120.5" width="7" height="12" fill="white" stroke="#5B5B5B"/>
<rect x="150.5" y="113.5" width="7" height="7" fill="white" stroke="#5B5B5B"/>
<rect x="164.5" y="58.5" width="7" height="12" fill="white" stroke="#5B5B5B"/>
<rect x="164.5" y="51.5" width="7" height="7" fill="white" stroke="#5B5B5B"/>
<rect x="171.5" y="58.5" width="7" height="12" fill="white" stroke="#5B5B5B"/>
<rect x="171.5" y="51.5" width="7" height="7" fill="white" stroke="#5B5B5B"/>
<rect x="164.5" y="90.5" width="7" height="12" fill="white" stroke="#5B5B5B"/>
<rect x="164.5" y="83.5" width="7" height="7" fill="white" stroke="#5B5B5B"/>
<rect x="171.5" y="90.5" width="7" height="12" fill="white" stroke="#5B5B5B"/>
<rect x="171.5" y="83.5" width="7" height="7" fill="white" stroke="#5B5B5B"/>
<rect x="196.5" y="90.5" width="7" height="12" fill="white" stroke="#5B5B5B"/>
<rect x="196.5" y="83.5" width="7" height="7" fill="white" stroke="#5B5B5B"/>
<rect x="203.5" y="90.5" width="7" height="12" fill="white" stroke="#5B5B5B"/>
<rect x="203.5" y="83.5" width="7" height="7" fill="white" stroke="#5B5B5B"/>
<rect x="196.5" y="120.5" width="7" height="12" fill="white" stroke="#5B5B5B"/>
<rect x="196.5" y="113.5" width="7" height="7" fill="white" stroke="#5B5B5B"/>
<rect x="203.5" y="120.5" width="7" height="12" fill="white" stroke="#5B5B5B"/>
<rect x="203.5" y="113.5" width="7" height="7" fill="white" stroke="#5B5B5B"/>
<rect x="221.5" y="90.5" width="7" height="12" fill="white" stroke="#5B5B5B"/>
<rect x="221.5" y="83.5" width="7" height="7" fill="white" stroke="#5B5B5B"/>
<rect x="228.5" y="90.5" width="7" height="12" fill="white" stroke="#5B5B5B"/>
<rect x="228.5" y="83.5" width="7" height="7" fill="white" stroke="#5B5B5B"/>
<rect x="221.5" y="120.5" width="7" height="12" fill="white" stroke="#5B5B5B"/>
<rect x="221.5" y="113.5" width="7" height="7" fill="white" stroke="#5B5B5B"/>
<rect x="228.5" y="120.5" width="7" height="12" fill="white" stroke="#5B5B5B"/>
<rect x="228.5" y="113.5" width="7" height="7" fill="white" stroke="#5B5B5B"/>
<rect x="246.5" y="90.5" width="7" height="12" fill="white" stroke="#5B5B5B"/>
<rect x="246.5" y="83.5" width="7" height="7" fill="white" stroke="#5B5B5B"/>
<rect x="253.5" y="90.5" width="7" height="12" fill="white" stroke="#5B5B5B"/>
<rect x="253.5" y="83.5" width="7" height="7" fill="white" stroke="#5B5B5B"/>
<rect x="246.5" y="120.5" width="7" height="12" fill="white" stroke="#5B5B5B"/>
<rect x="246.5" y="113.5" width="7" height="7" fill="white" stroke="#5B5B5B"/>
<rect x="253.5" y="120.5" width="7" height="12" fill="white" stroke="#5B5B5B"/>
<rect x="253.5" y="113.5" width="7" height="7" fill="white" stroke="#5B5B5B"/>
<rect x="271.5" y="90.5" width="7" height="12" fill="white" stroke="#5B5B5B"/>
<rect x="271.5" y="83.5" width="7" height="7" fill="white" stroke="#5B5B5B"/>
<rect x="278.5" y="90.5" width="7" height="12" fill="white" stroke="#5B5B5B"/>
<rect x="278.5" y="83.5" width="7" height="7" fill="white" stroke="#5B5B5B"/>
<rect x="271.5" y="113.5" width="14" height="19" fill="white" stroke="#5B5B5B"/>
<rect x="296.5" y="90.5" width="7" height="12" fill="white" stroke="#5B5B5B"/>
<rect x="296.5" y="83.5" width="7" height="7" fill="white" stroke="#5B5B5B"/>
<rect x="303.5" y="90.5" width="7" height="12" fill="white" stroke="#5B5B5B"/>
<rect x="303.5" y="83.5" width="7" height="7" fill="white" stroke="#5B5B5B"/>
<rect x="296.5" y="120.5" width="7" height="12" fill="white" stroke="#5B5B5B"/>
<rect x="296.5" y="113.5" width="7" height="7" fill="white" stroke="#5B5B5B"/>
<rect x="303.5" y="120.5" width="7" height="12" fill="white" stroke="#5B5B5B"/>
<rect x="303.5" y="113.5" width="7" height="7" fill="white" stroke="#5B5B5B"/>
<path d="M79 108L95 103L111 108" stroke="#5B5B5B"/>
<path d="M82 138V107" stroke="#5B5B5B"/>
<path d="M109 138V107.5" stroke="#5B5B5B"/>
<path fill-rule="evenodd" clip-rule="evenodd" d="M237.5 138.5V107H292.5V138.5H289.5H252V109H240V138.5H237.5ZM289 109H255V131H289V109Z" fill="#5B5B5B"/>
<path d="M237.5 107V106.5H237V107H237.5ZM237.5 138.5H237V139H237.5V138.5ZM292.5 107H293V106.5H292.5V107ZM292.5 138.5V139H293V138.5H292.5ZM252 138.5H251.5V139H252V138.5ZM252 109H252.5V108.5H252V109ZM240 109V108.5H239.5V109H240ZM240 138.5V139H240.5V138.5H240ZM255 109V108.5H254.5V109H255ZM289 109H289.5V108.5H289V109ZM255 131H254.5V131.5H255V131ZM289 131V131.5H289.5V131H289ZM237 107V138.5H238V107H237ZM292.5 106.5H237.5V107.5H292.5V106.5ZM293 138.5V107H292V138.5H293ZM289.5 139H292.5V138H289.5V139ZM252 139H289.5V138H252V139ZM251.5 109V138.5H252.5V109H251.5ZM240 109.5H252V108.5H240V109.5ZM240.5 138.5V109H239.5V138.5H240.5ZM237.5 139H240V138H237.5V139ZM255 109.5H289V108.5H255V109.5ZM255.5 131V109H254.5V131H255.5ZM289 130.5H255V131.5H289V130.5ZM288.5 109V131H289.5V109H288.5Z" fill="#5B5B5B"/>
</svg>
