<svg width="326" height="102" viewBox="0 0 326 102" fill="none" xmlns="http://www.w3.org/2000/svg">
<path d="M5 21.5V42H314.5V7.5L308 1H89L71.5 6.5H44.5L3.5 18V21.5H5Z" fill="#FFD200"/>
<rect x="7" y="22" width="6" height="15" stroke="#5B5B5B"/>
<rect x="151" y="22" width="6" height="15" stroke="#5B5B5B"/>
<rect x="79" y="22" width="6" height="15" stroke="#5B5B5B"/>
<rect x="223" y="22" width="6" height="15" stroke="#5B5B5B"/>
<rect x="43" y="22" width="6" height="15" stroke="#5B5B5B"/>
<rect x="187" y="22" width="6" height="15" stroke="#5B5B5B"/>
<rect x="115" y="22" width="6" height="15" stroke="#5B5B5B"/>
<rect x="259" y="22" width="6" height="15" stroke="#5B5B5B"/>
<rect x="25" y="22" width="6" height="15" stroke="#5B5B5B"/>
<rect x="169" y="22" width="6" height="15" stroke="#5B5B5B"/>
<rect x="97" y="22" width="6" height="15" stroke="#5B5B5B"/>
<rect x="241" y="22" width="6" height="15" stroke="#5B5B5B"/>
<rect x="61" y="22" width="6" height="15" stroke="#5B5B5B"/>
<rect x="205" y="22" width="6" height="15" stroke="#5B5B5B"/>
<rect x="133" y="22" width="6" height="15" stroke="#5B5B5B"/>
<rect x="277" y="22" width="6" height="15" stroke="#5B5B5B"/>
<rect x="13" y="22" width="6" height="15" stroke="#5B5B5B"/>
<rect x="157" y="22" width="6" height="15" stroke="#5B5B5B"/>
<rect x="85" y="22" width="6" height="15" stroke="#5B5B5B"/>
<rect x="229" y="22" width="6" height="15" stroke="#5B5B5B"/>
<rect x="49" y="22" width="6" height="15" stroke="#5B5B5B"/>
<rect x="193" y="22" width="6" height="15" stroke="#5B5B5B"/>
<rect x="121" y="22" width="6" height="15" stroke="#5B5B5B"/>
<rect x="265" y="22" width="6" height="15" stroke="#5B5B5B"/>
<rect x="31" y="22" width="6" height="15" stroke="#5B5B5B"/>
<rect x="175" y="22" width="6" height="15" stroke="#5B5B5B"/>
<rect x="103" y="22" width="6" height="15" stroke="#5B5B5B"/>
<rect x="247" y="22" width="6" height="15" stroke="#5B5B5B"/>
<rect x="67" y="22" width="6" height="15" stroke="#5B5B5B"/>
<rect x="211" y="22" width="6" height="15" stroke="#5B5B5B"/>
<rect x="139" y="22" width="6" height="15" stroke="#5B5B5B"/>
<rect x="283" y="22" width="6" height="15" stroke="#5B5B5B"/>
<rect x="19" y="22" width="6" height="15" stroke="#5B5B5B"/>
<rect x="163" y="22" width="6" height="15" stroke="#5B5B5B"/>
<rect x="91" y="22" width="6" height="15" stroke="#5B5B5B"/>
<rect x="235" y="22" width="6" height="15" stroke="#5B5B5B"/>
<rect x="55" y="22" width="6" height="15" stroke="#5B5B5B"/>
<rect x="199" y="22" width="6" height="15" stroke="#5B5B5B"/>
<rect x="127" y="22" width="6" height="15" stroke="#5B5B5B"/>
<rect x="271" y="22" width="6" height="15" stroke="#5B5B5B"/>
<rect x="37" y="22" width="6" height="15" stroke="#5B5B5B"/>
<rect x="181" y="22" width="6" height="15" stroke="#5B5B5B"/>
<rect x="109" y="22" width="6" height="15" stroke="#5B5B5B"/>
<rect x="253" y="22" width="6" height="15" stroke="#5B5B5B"/>
<rect x="73" y="22" width="6" height="15" stroke="#5B5B5B"/>
<rect x="217" y="22" width="6" height="15" stroke="#5B5B5B"/>
<rect x="145" y="22" width="6" height="15" stroke="#5B5B5B"/>
<rect x="289" y="22" width="6" height="15" stroke="#5B5B5B"/>
<rect x="295" y="22" width="6" height="15" stroke="#5B5B5B"/>
<rect x="301" y="22" width="6" height="15" stroke="#5B5B5B"/>
<rect x="307" y="22" width="6" height="15" stroke="#5B5B5B"/>
<path d="M314 1H5V26H1V80.5H5V101.5H325V70H318.5V26H314V1Z" fill="white" stroke="black"/>
<rect x="21" y="38.7052" width="7" height="11.4526" fill="white" stroke="#5B5B5B"/>
<rect x="21" y="32" width="7" height="6.66316" fill="white" stroke="#5B5B5B"/>
<rect x="28" y="38.7052" width="7" height="11.4526" fill="white" stroke="#5B5B5B"/>
<rect x="28" y="32" width="7" height="6.66316" fill="white" stroke="#5B5B5B"/>
<rect x="52" y="38.7052" width="7" height="11.4526" fill="white" stroke="#5B5B5B"/>
<rect x="52" y="32" width="7" height="6.66316" fill="white" stroke="#5B5B5B"/>
<rect x="59" y="38.7052" width="7" height="11.4526" fill="white" stroke="#5B5B5B"/>
<rect x="59" y="32" width="7" height="6.66316" fill="white" stroke="#5B5B5B"/>
<rect x="83" y="38.7052" width="7" height="11.4526" fill="white" stroke="#5B5B5B"/>
<rect x="83" y="32" width="7" height="6.66316" fill="white" stroke="#5B5B5B"/>
<rect x="90" y="38.7052" width="7" height="11.4526" fill="white" stroke="#5B5B5B"/>
<rect x="90" y="32" width="7" height="6.66316" fill="white" stroke="#5B5B5B"/>
<rect x="114" y="38.7052" width="7" height="11.4526" fill="white" stroke="#5B5B5B"/>
<rect x="114" y="32" width="7" height="6.66316" fill="white" stroke="#5B5B5B"/>
<rect x="121" y="38.7052" width="7" height="11.4526" fill="white" stroke="#5B5B5B"/>
<rect x="121" y="32" width="7" height="6.66316" fill="white" stroke="#5B5B5B"/>
<rect x="21" y="87.5508" width="7" height="7.45" fill="white" stroke="#5B5B5B"/>
<rect x="21" y="83" width="7" height="4.2" fill="white" stroke="#5B5B5B"/>
<rect x="28" y="87.5508" width="7" height="7.45" fill="white" stroke="#5B5B5B"/>
<rect x="28" y="83" width="7" height="4.2" fill="white" stroke="#5B5B5B"/>
<rect x="52" y="87.5508" width="7" height="7.45" fill="white" stroke="#5B5B5B"/>
<rect x="52" y="83" width="7" height="4.2" fill="white" stroke="#5B5B5B"/>
<rect x="59" y="87.5508" width="7" height="7.45" fill="white" stroke="#5B5B5B"/>
<rect x="59" y="83" width="7" height="4.2" fill="white" stroke="#5B5B5B"/>
<rect x="83" y="87.5508" width="7" height="7.45" fill="white" stroke="#5B5B5B"/>
<rect x="83" y="83" width="7" height="4.2" fill="white" stroke="#5B5B5B"/>
<rect x="90" y="87.5508" width="7" height="7.45" fill="white" stroke="#5B5B5B"/>
<rect x="90" y="83" width="7" height="4.2" fill="white" stroke="#5B5B5B"/>
<rect x="114" y="87.5508" width="7" height="7.45" fill="white" stroke="#5B5B5B"/>
<rect x="114" y="83" width="7" height="4.2" fill="white" stroke="#5B5B5B"/>
<rect x="121" y="87.5508" width="7" height="7.45" fill="white" stroke="#5B5B5B"/>
<rect x="121" y="83" width="7" height="4.2" fill="white" stroke="#5B5B5B"/>
<rect x="21" y="10.7053" width="7" height="11.4526" fill="white" stroke="#5B5B5B"/>
<rect x="21" y="4" width="7" height="6.66316" fill="white" stroke="#5B5B5B"/>
<rect x="28" y="10.7053" width="7" height="11.4526" fill="white" stroke="#5B5B5B"/>
<rect x="28" y="4" width="7" height="6.66316" fill="white" stroke="#5B5B5B"/>
<rect x="52" y="10.7053" width="7" height="11.4526" fill="white" stroke="#5B5B5B"/>
<rect x="52" y="4" width="7" height="6.66316" fill="white" stroke="#5B5B5B"/>
<rect x="59" y="10.7053" width="7" height="11.4526" fill="white" stroke="#5B5B5B"/>
<rect x="59" y="4" width="7" height="6.66316" fill="white" stroke="#5B5B5B"/>
<rect x="83" y="10.7053" width="7" height="11.4526" fill="white" stroke="#5B5B5B"/>
<rect x="83" y="4" width="7" height="6.66316" fill="white" stroke="#5B5B5B"/>
<rect x="90" y="10.7053" width="7" height="11.4526" fill="white" stroke="#5B5B5B"/>
<rect x="90" y="4" width="7" height="6.66316" fill="white" stroke="#5B5B5B"/>
<rect x="114" y="10.7053" width="7" height="11.4526" fill="white" stroke="#5B5B5B"/>
<rect x="114" y="4" width="7" height="6.66316" fill="white" stroke="#5B5B5B"/>
<rect x="121" y="10.7053" width="7" height="11.4526" fill="white" stroke="#5B5B5B"/>
<rect x="121" y="4" width="7" height="6.66316" fill="white" stroke="#5B5B5B"/>
<rect x="21" y="62.6527" width="7" height="11.4526" fill="white" stroke="#5B5B5B"/>
<rect x="21" y="55.9474" width="7" height="6.66316" fill="white" stroke="#5B5B5B"/>
<rect x="28" y="62.6527" width="7" height="11.4526" fill="white" stroke="#5B5B5B"/>
<rect x="28" y="55.9474" width="7" height="6.66316" fill="white" stroke="#5B5B5B"/>
<rect x="52" y="62.6527" width="7" height="11.4526" fill="white" stroke="#5B5B5B"/>
<rect x="52" y="55.9474" width="7" height="6.66316" fill="white" stroke="#5B5B5B"/>
<rect x="59" y="62.6527" width="7" height="11.4526" fill="white" stroke="#5B5B5B"/>
<rect x="59" y="55.9474" width="7" height="6.66316" fill="white" stroke="#5B5B5B"/>
<rect x="83" y="62.6527" width="7" height="11.4526" fill="white" stroke="#5B5B5B"/>
<rect x="83" y="55.9474" width="7" height="6.66316" fill="white" stroke="#5B5B5B"/>
<rect x="90" y="62.6527" width="7" height="11.4526" fill="white" stroke="#5B5B5B"/>
<rect x="90" y="55.9474" width="7" height="6.66316" fill="white" stroke="#5B5B5B"/>
<rect x="114" y="62.6527" width="7" height="11.4526" fill="white" stroke="#5B5B5B"/>
<rect x="114" y="55.9474" width="7" height="6.66316" fill="white" stroke="#5B5B5B"/>
<rect x="121" y="62.6527" width="7" height="11.4526" fill="white" stroke="#5B5B5B"/>
<rect x="121" y="55.9474" width="7" height="6.66316" fill="white" stroke="#5B5B5B"/>
<rect x="156" y="38.7052" width="7" height="11.4526" fill="white" stroke="#5B5B5B"/>
<rect x="156" y="32" width="7" height="6.66316" fill="white" stroke="#5B5B5B"/>
<rect x="163" y="38.7052" width="7" height="11.4526" fill="white" stroke="#5B5B5B"/>
<rect x="163" y="32" width="7" height="6.66316" fill="white" stroke="#5B5B5B"/>
<rect x="187" y="38.7052" width="7" height="11.4526" fill="white" stroke="#5B5B5B"/>
<rect x="187" y="32" width="7" height="6.66316" fill="white" stroke="#5B5B5B"/>
<rect x="194" y="38.7052" width="7" height="11.4526" fill="white" stroke="#5B5B5B"/>
<rect x="194" y="32" width="7" height="6.66316" fill="white" stroke="#5B5B5B"/>
<rect x="218" y="38.7052" width="7" height="11.4526" fill="white" stroke="#5B5B5B"/>
<rect x="218" y="32" width="7" height="6.66316" fill="white" stroke="#5B5B5B"/>
<rect x="225" y="38.7052" width="7" height="11.4526" fill="white" stroke="#5B5B5B"/>
<rect x="225" y="32" width="7" height="6.66316" fill="white" stroke="#5B5B5B"/>
<rect x="249" y="38.7052" width="7" height="11.4526" fill="white" stroke="#5B5B5B"/>
<rect x="249" y="32" width="7" height="6.66316" fill="white" stroke="#5B5B5B"/>
<rect x="256" y="38.7052" width="7" height="11.4526" fill="white" stroke="#5B5B5B"/>
<rect x="256" y="32" width="7" height="6.66316" fill="white" stroke="#5B5B5B"/>
<rect x="156" y="87.6052" width="7" height="7.55263" fill="white" stroke="#5B5B5B"/>
<rect x="156" y="83" width="7" height="4.26316" fill="white" stroke="#5B5B5B"/>
<rect x="163" y="87.6052" width="7" height="7.55263" fill="white" stroke="#5B5B5B"/>
<rect x="163" y="83" width="7" height="4.26316" fill="white" stroke="#5B5B5B"/>
<rect x="187" y="87.6052" width="7" height="7.55263" fill="white" stroke="#5B5B5B"/>
<rect x="187" y="83" width="7" height="4.26316" fill="white" stroke="#5B5B5B"/>
<rect x="194" y="87.6052" width="7" height="7.55263" fill="white" stroke="#5B5B5B"/>
<rect x="194" y="83" width="7" height="4.26316" fill="white" stroke="#5B5B5B"/>
<rect x="218" y="87.6052" width="7" height="7.55263" fill="white" stroke="#5B5B5B"/>
<rect x="218" y="83" width="7" height="4.26316" fill="white" stroke="#5B5B5B"/>
<rect x="225" y="87.6052" width="7" height="7.55263" fill="white" stroke="#5B5B5B"/>
<rect x="225" y="83" width="7" height="4.26316" fill="white" stroke="#5B5B5B"/>
<rect x="249" y="87.6052" width="7" height="7.55263" fill="white" stroke="#5B5B5B"/>
<rect x="249" y="83" width="7" height="4.26316" fill="white" stroke="#5B5B5B"/>
<rect x="256" y="87.6052" width="7" height="7.55263" fill="white" stroke="#5B5B5B"/>
<rect x="256" y="83" width="7" height="4.26316" fill="white" stroke="#5B5B5B"/>
<rect x="156" y="10.7053" width="7" height="11.4526" fill="white" stroke="#5B5B5B"/>
<rect x="156" y="4" width="7" height="6.66316" fill="white" stroke="#5B5B5B"/>
<rect x="163" y="10.7053" width="7" height="11.4526" fill="white" stroke="#5B5B5B"/>
<rect x="163" y="4" width="7" height="6.66316" fill="white" stroke="#5B5B5B"/>
<rect x="187" y="10.7053" width="7" height="11.4526" fill="white" stroke="#5B5B5B"/>
<rect x="187" y="4" width="7" height="6.66316" fill="white" stroke="#5B5B5B"/>
<rect x="194" y="10.7053" width="7" height="11.4526" fill="white" stroke="#5B5B5B"/>
<rect x="194" y="4" width="7" height="6.66316" fill="white" stroke="#5B5B5B"/>
<rect x="218" y="10.7053" width="7" height="11.4526" fill="white" stroke="#5B5B5B"/>
<rect x="218" y="4" width="7" height="6.66316" fill="white" stroke="#5B5B5B"/>
<rect x="225" y="10.7053" width="7" height="11.4526" fill="white" stroke="#5B5B5B"/>
<rect x="225" y="4" width="7" height="6.66316" fill="white" stroke="#5B5B5B"/>
<rect x="249" y="10.7053" width="7" height="11.4526" fill="white" stroke="#5B5B5B"/>
<rect x="249" y="4" width="7" height="6.66316" fill="white" stroke="#5B5B5B"/>
<rect x="256" y="10.7053" width="7" height="11.4526" fill="white" stroke="#5B5B5B"/>
<rect x="256" y="4" width="7" height="6.66316" fill="white" stroke="#5B5B5B"/>
<rect x="156" y="62.6527" width="7" height="11.4526" fill="white" stroke="#5B5B5B"/>
<rect x="156" y="55.9474" width="7" height="6.66316" fill="white" stroke="#5B5B5B"/>
<rect x="163" y="62.6527" width="7" height="11.4526" fill="white" stroke="#5B5B5B"/>
<rect x="163" y="55.9474" width="7" height="6.66316" fill="white" stroke="#5B5B5B"/>
<rect x="187" y="62.6527" width="7" height="11.4526" fill="white" stroke="#5B5B5B"/>
<rect x="187" y="55.9474" width="7" height="6.66316" fill="white" stroke="#5B5B5B"/>
<rect x="194" y="62.6527" width="7" height="11.4526" fill="white" stroke="#5B5B5B"/>
<rect x="194" y="55.9474" width="7" height="6.66316" fill="white" stroke="#5B5B5B"/>
<rect x="218" y="62.6527" width="7" height="11.4526" fill="white" stroke="#5B5B5B"/>
<rect x="218" y="55.9474" width="7" height="6.66316" fill="white" stroke="#5B5B5B"/>
<rect x="225" y="62.6527" width="7" height="11.4526" fill="white" stroke="#5B5B5B"/>
<rect x="225" y="55.9474" width="7" height="6.66316" fill="white" stroke="#5B5B5B"/>
<rect x="249" y="62.6527" width="7" height="11.4526" fill="white" stroke="#5B5B5B"/>
<rect x="249" y="55.9474" width="7" height="6.66316" fill="white" stroke="#5B5B5B"/>
<rect x="256" y="62.6527" width="7" height="11.4526" fill="white" stroke="#5B5B5B"/>
<rect x="256" y="55.9474" width="7" height="6.66316" fill="white" stroke="#5B5B5B"/>
<rect x="291" y="38.7052" width="7" height="11.4526" fill="white" stroke="#5B5B5B"/>
<rect x="291" y="32" width="7" height="6.66316" fill="white" stroke="#5B5B5B"/>
<rect x="298" y="38.7052" width="7" height="11.4526" fill="white" stroke="#5B5B5B"/>
<rect x="298" y="32" width="7" height="6.66316" fill="white" stroke="#5B5B5B"/>
<rect x="291" y="87.6052" width="7" height="7.55263" fill="white" stroke="#5B5B5B"/>
<rect x="291" y="83" width="7" height="4.26316" fill="white" stroke="#5B5B5B"/>
<rect x="298" y="87.6052" width="7" height="7.55263" fill="white" stroke="#5B5B5B"/>
<rect x="298" y="83" width="7" height="4.26316" fill="white" stroke="#5B5B5B"/>
<rect x="291" y="10.7053" width="7" height="11.4526" fill="white" stroke="#5B5B5B"/>
<rect x="291" y="4" width="7" height="6.66316" fill="white" stroke="#5B5B5B"/>
<rect x="298" y="10.7053" width="7" height="11.4526" fill="white" stroke="#5B5B5B"/>
<rect x="298" y="4" width="7" height="6.66316" fill="white" stroke="#5B5B5B"/>
<rect x="291" y="62.6527" width="7" height="11.4526" fill="white" stroke="#5B5B5B"/>
<rect x="291" y="55.9474" width="7" height="6.66316" fill="white" stroke="#5B5B5B"/>
<rect x="298" y="62.6527" width="7" height="11.4526" fill="white" stroke="#5B5B5B"/>
<rect x="298" y="55.9474" width="7" height="6.66316" fill="white" stroke="#5B5B5B"/>
<path d="M5 26L314 26" stroke="black"/>
<path d="M6 81H311V70H318" stroke="black"/>
</svg>
