<svg width="326" height="142" viewBox="0 0 326 142" fill="none" xmlns="http://www.w3.org/2000/svg">
<path d="M5 20.5V41H314.5V6.5L308 0H89L71.5 5.5H44.5L3.5 17V20.5H5Z" fill="#FFD200"/>
<rect x="7" y="21" width="6" height="15" stroke="#5B5B5B"/>
<rect x="151" y="21" width="6" height="15" stroke="#5B5B5B"/>
<rect x="79" y="21" width="6" height="15" stroke="#5B5B5B"/>
<rect x="223" y="21" width="6" height="15" stroke="#5B5B5B"/>
<rect x="43" y="21" width="6" height="15" stroke="#5B5B5B"/>
<rect x="187" y="21" width="6" height="15" stroke="#5B5B5B"/>
<rect x="115" y="21" width="6" height="15" stroke="#5B5B5B"/>
<rect x="259" y="21" width="6" height="15" stroke="#5B5B5B"/>
<rect x="25" y="21" width="6" height="15" stroke="#5B5B5B"/>
<rect x="169" y="21" width="6" height="15" stroke="#5B5B5B"/>
<rect x="97" y="21" width="6" height="15" stroke="#5B5B5B"/>
<rect x="241" y="21" width="6" height="15" stroke="#5B5B5B"/>
<rect x="61" y="21" width="6" height="15" stroke="#5B5B5B"/>
<rect x="205" y="21" width="6" height="15" stroke="#5B5B5B"/>
<rect x="133" y="21" width="6" height="15" stroke="#5B5B5B"/>
<rect x="277" y="21" width="6" height="15" stroke="#5B5B5B"/>
<rect x="13" y="21" width="6" height="15" stroke="#5B5B5B"/>
<rect x="157" y="21" width="6" height="15" stroke="#5B5B5B"/>
<rect x="85" y="21" width="6" height="15" stroke="#5B5B5B"/>
<rect x="229" y="21" width="6" height="15" stroke="#5B5B5B"/>
<rect x="49" y="21" width="6" height="15" stroke="#5B5B5B"/>
<rect x="193" y="21" width="6" height="15" stroke="#5B5B5B"/>
<rect x="121" y="21" width="6" height="15" stroke="#5B5B5B"/>
<rect x="265" y="21" width="6" height="15" stroke="#5B5B5B"/>
<rect x="31" y="21" width="6" height="15" stroke="#5B5B5B"/>
<rect x="175" y="21" width="6" height="15" stroke="#5B5B5B"/>
<rect x="103" y="21" width="6" height="15" stroke="#5B5B5B"/>
<rect x="247" y="21" width="6" height="15" stroke="#5B5B5B"/>
<rect x="67" y="21" width="6" height="15" stroke="#5B5B5B"/>
<rect x="211" y="21" width="6" height="15" stroke="#5B5B5B"/>
<rect x="139" y="21" width="6" height="15" stroke="#5B5B5B"/>
<rect x="283" y="21" width="6" height="15" stroke="#5B5B5B"/>
<rect x="19" y="21" width="6" height="15" stroke="#5B5B5B"/>
<rect x="163" y="21" width="6" height="15" stroke="#5B5B5B"/>
<rect x="91" y="21" width="6" height="15" stroke="#5B5B5B"/>
<rect x="235" y="21" width="6" height="15" stroke="#5B5B5B"/>
<rect x="55" y="21" width="6" height="15" stroke="#5B5B5B"/>
<rect x="199" y="21" width="6" height="15" stroke="#5B5B5B"/>
<rect x="127" y="21" width="6" height="15" stroke="#5B5B5B"/>
<rect x="271" y="21" width="6" height="15" stroke="#5B5B5B"/>
<rect x="37" y="21" width="6" height="15" stroke="#5B5B5B"/>
<rect x="181" y="21" width="6" height="15" stroke="#5B5B5B"/>
<rect x="109" y="21" width="6" height="15" stroke="#5B5B5B"/>
<rect x="253" y="21" width="6" height="15" stroke="#5B5B5B"/>
<rect x="73" y="21" width="6" height="15" stroke="#5B5B5B"/>
<rect x="217" y="21" width="6" height="15" stroke="#5B5B5B"/>
<rect x="145" y="21" width="6" height="15" stroke="#5B5B5B"/>
<rect x="289" y="21" width="6" height="15" stroke="#5B5B5B"/>
<rect x="295" y="21" width="6" height="15" stroke="#5B5B5B"/>
<rect x="301" y="21" width="6" height="15" stroke="#5B5B5B"/>
<rect x="307" y="21" width="6" height="15" stroke="#5B5B5B"/>
<path d="M314 41H5V66H1V120.5H5V141.5H325V110H318.5V66H314V41Z" fill="white" stroke="black"/>
<rect x="21" y="78.7051" width="7" height="11.4526" fill="white" stroke="#5B5B5B"/>
<rect x="21" y="72" width="7" height="6.66316" fill="white" stroke="#5B5B5B"/>
<rect x="28" y="78.7051" width="7" height="11.4526" fill="white" stroke="#5B5B5B"/>
<rect x="28" y="72" width="7" height="6.66316" fill="white" stroke="#5B5B5B"/>
<rect x="52" y="78.7051" width="7" height="11.4526" fill="white" stroke="#5B5B5B"/>
<rect x="52" y="72" width="7" height="6.66316" fill="white" stroke="#5B5B5B"/>
<rect x="59" y="78.7051" width="7" height="11.4526" fill="white" stroke="#5B5B5B"/>
<rect x="59" y="72" width="7" height="6.66316" fill="white" stroke="#5B5B5B"/>
<rect x="83" y="78.7051" width="7" height="11.4526" fill="white" stroke="#5B5B5B"/>
<rect x="83" y="72" width="7" height="6.66316" fill="white" stroke="#5B5B5B"/>
<rect x="90" y="78.7051" width="7" height="11.4526" fill="white" stroke="#5B5B5B"/>
<rect x="90" y="72" width="7" height="6.66316" fill="white" stroke="#5B5B5B"/>
<rect x="114" y="78.7051" width="7" height="11.4526" fill="white" stroke="#5B5B5B"/>
<rect x="114" y="72" width="7" height="6.66316" fill="white" stroke="#5B5B5B"/>
<rect x="121" y="78.7051" width="7" height="11.4526" fill="white" stroke="#5B5B5B"/>
<rect x="121" y="72" width="7" height="6.66316" fill="white" stroke="#5B5B5B"/>
<rect x="21" y="127.55" width="7" height="7.45" fill="white" stroke="#5B5B5B"/>
<rect x="21" y="123" width="7" height="4.2" fill="white" stroke="#5B5B5B"/>
<rect x="28" y="127.55" width="7" height="7.45" fill="white" stroke="#5B5B5B"/>
<rect x="28" y="123" width="7" height="4.2" fill="white" stroke="#5B5B5B"/>
<rect x="52" y="127.55" width="7" height="7.45" fill="white" stroke="#5B5B5B"/>
<rect x="52" y="123" width="7" height="4.2" fill="white" stroke="#5B5B5B"/>
<rect x="59" y="127.55" width="7" height="7.45" fill="white" stroke="#5B5B5B"/>
<rect x="59" y="123" width="7" height="4.2" fill="white" stroke="#5B5B5B"/>
<rect x="83" y="127.55" width="7" height="7.45" fill="white" stroke="#5B5B5B"/>
<rect x="83" y="123" width="7" height="4.2" fill="white" stroke="#5B5B5B"/>
<rect x="90" y="127.55" width="7" height="7.45" fill="white" stroke="#5B5B5B"/>
<rect x="90" y="123" width="7" height="4.2" fill="white" stroke="#5B5B5B"/>
<rect x="114" y="127.55" width="7" height="7.45" fill="white" stroke="#5B5B5B"/>
<rect x="114" y="123" width="7" height="4.2" fill="white" stroke="#5B5B5B"/>
<rect x="121" y="127.55" width="7" height="7.45" fill="white" stroke="#5B5B5B"/>
<rect x="121" y="123" width="7" height="4.2" fill="white" stroke="#5B5B5B"/>
<rect x="21" y="50.7051" width="7" height="11.4526" fill="white" stroke="#5B5B5B"/>
<rect x="21" y="44" width="7" height="6.66316" fill="white" stroke="#5B5B5B"/>
<rect x="28" y="50.7051" width="7" height="11.4526" fill="white" stroke="#5B5B5B"/>
<rect x="28" y="44" width="7" height="6.66316" fill="white" stroke="#5B5B5B"/>
<rect x="52" y="50.7051" width="7" height="11.4526" fill="white" stroke="#5B5B5B"/>
<rect x="52" y="44" width="7" height="6.66316" fill="white" stroke="#5B5B5B"/>
<rect x="59" y="50.7051" width="7" height="11.4526" fill="white" stroke="#5B5B5B"/>
<rect x="59" y="44" width="7" height="6.66316" fill="white" stroke="#5B5B5B"/>
<rect x="83" y="50.7051" width="7" height="11.4526" fill="white" stroke="#5B5B5B"/>
<rect x="83" y="44" width="7" height="6.66316" fill="white" stroke="#5B5B5B"/>
<rect x="90" y="50.7051" width="7" height="11.4526" fill="white" stroke="#5B5B5B"/>
<rect x="90" y="44" width="7" height="6.66316" fill="white" stroke="#5B5B5B"/>
<rect x="114" y="50.7051" width="7" height="11.4526" fill="white" stroke="#5B5B5B"/>
<rect x="114" y="44" width="7" height="6.66316" fill="white" stroke="#5B5B5B"/>
<rect x="121" y="50.7051" width="7" height="11.4526" fill="white" stroke="#5B5B5B"/>
<rect x="121" y="44" width="7" height="6.66316" fill="white" stroke="#5B5B5B"/>
<rect x="21" y="102.652" width="7" height="11.4526" fill="white" stroke="#5B5B5B"/>
<rect x="21" y="95.9473" width="7" height="6.66316" fill="white" stroke="#5B5B5B"/>
<rect x="28" y="102.652" width="7" height="11.4526" fill="white" stroke="#5B5B5B"/>
<rect x="28" y="95.9473" width="7" height="6.66316" fill="white" stroke="#5B5B5B"/>
<rect x="52" y="102.652" width="7" height="11.4526" fill="white" stroke="#5B5B5B"/>
<rect x="52" y="95.9473" width="7" height="6.66316" fill="white" stroke="#5B5B5B"/>
<rect x="59" y="102.652" width="7" height="11.4526" fill="white" stroke="#5B5B5B"/>
<rect x="59" y="95.9473" width="7" height="6.66316" fill="white" stroke="#5B5B5B"/>
<rect x="83" y="102.652" width="7" height="11.4526" fill="white" stroke="#5B5B5B"/>
<rect x="83" y="95.9473" width="7" height="6.66316" fill="white" stroke="#5B5B5B"/>
<rect x="90" y="102.652" width="7" height="11.4526" fill="white" stroke="#5B5B5B"/>
<rect x="90" y="95.9473" width="7" height="6.66316" fill="white" stroke="#5B5B5B"/>
<rect x="114" y="102.652" width="7" height="11.4526" fill="white" stroke="#5B5B5B"/>
<rect x="114" y="95.9473" width="7" height="6.66316" fill="white" stroke="#5B5B5B"/>
<rect x="121" y="102.652" width="7" height="11.4526" fill="white" stroke="#5B5B5B"/>
<rect x="121" y="95.9473" width="7" height="6.66316" fill="white" stroke="#5B5B5B"/>
<rect x="156" y="78.7051" width="7" height="11.4526" fill="white" stroke="#5B5B5B"/>
<rect x="156" y="72" width="7" height="6.66316" fill="white" stroke="#5B5B5B"/>
<rect x="163" y="78.7051" width="7" height="11.4526" fill="white" stroke="#5B5B5B"/>
<rect x="163" y="72" width="7" height="6.66316" fill="white" stroke="#5B5B5B"/>
<rect x="187" y="78.7051" width="7" height="11.4526" fill="white" stroke="#5B5B5B"/>
<rect x="187" y="72" width="7" height="6.66316" fill="white" stroke="#5B5B5B"/>
<rect x="194" y="78.7051" width="7" height="11.4526" fill="white" stroke="#5B5B5B"/>
<rect x="194" y="72" width="7" height="6.66316" fill="white" stroke="#5B5B5B"/>
<rect x="218" y="78.7051" width="7" height="11.4526" fill="white" stroke="#5B5B5B"/>
<rect x="218" y="72" width="7" height="6.66316" fill="white" stroke="#5B5B5B"/>
<rect x="225" y="78.7051" width="7" height="11.4526" fill="white" stroke="#5B5B5B"/>
<rect x="225" y="72" width="7" height="6.66316" fill="white" stroke="#5B5B5B"/>
<rect x="249" y="78.7051" width="7" height="11.4526" fill="white" stroke="#5B5B5B"/>
<rect x="249" y="72" width="7" height="6.66316" fill="white" stroke="#5B5B5B"/>
<rect x="256" y="78.7051" width="7" height="11.4526" fill="white" stroke="#5B5B5B"/>
<rect x="256" y="72" width="7" height="6.66316" fill="white" stroke="#5B5B5B"/>
<rect x="156" y="127.605" width="7" height="7.55263" fill="white" stroke="#5B5B5B"/>
<rect x="156" y="123" width="7" height="4.26316" fill="white" stroke="#5B5B5B"/>
<rect x="163" y="127.605" width="7" height="7.55263" fill="white" stroke="#5B5B5B"/>
<rect x="163" y="123" width="7" height="4.26316" fill="white" stroke="#5B5B5B"/>
<rect x="187" y="127.605" width="7" height="7.55263" fill="white" stroke="#5B5B5B"/>
<rect x="187" y="123" width="7" height="4.26316" fill="white" stroke="#5B5B5B"/>
<rect x="194" y="127.605" width="7" height="7.55263" fill="white" stroke="#5B5B5B"/>
<rect x="194" y="123" width="7" height="4.26316" fill="white" stroke="#5B5B5B"/>
<rect x="218" y="127.605" width="7" height="7.55263" fill="white" stroke="#5B5B5B"/>
<rect x="218" y="123" width="7" height="4.26316" fill="white" stroke="#5B5B5B"/>
<rect x="225" y="127.605" width="7" height="7.55263" fill="white" stroke="#5B5B5B"/>
<rect x="225" y="123" width="7" height="4.26316" fill="white" stroke="#5B5B5B"/>
<rect x="249" y="127.605" width="7" height="7.55263" fill="white" stroke="#5B5B5B"/>
<rect x="249" y="123" width="7" height="4.26316" fill="white" stroke="#5B5B5B"/>
<rect x="256" y="127.605" width="7" height="7.55263" fill="white" stroke="#5B5B5B"/>
<rect x="256" y="123" width="7" height="4.26316" fill="white" stroke="#5B5B5B"/>
<rect x="156" y="50.7051" width="7" height="11.4526" fill="white" stroke="#5B5B5B"/>
<rect x="156" y="44" width="7" height="6.66316" fill="white" stroke="#5B5B5B"/>
<rect x="163" y="50.7051" width="7" height="11.4526" fill="white" stroke="#5B5B5B"/>
<rect x="163" y="44" width="7" height="6.66316" fill="white" stroke="#5B5B5B"/>
<rect x="187" y="50.7051" width="7" height="11.4526" fill="white" stroke="#5B5B5B"/>
<rect x="187" y="44" width="7" height="6.66316" fill="white" stroke="#5B5B5B"/>
<rect x="194" y="50.7051" width="7" height="11.4526" fill="white" stroke="#5B5B5B"/>
<rect x="194" y="44" width="7" height="6.66316" fill="white" stroke="#5B5B5B"/>
<rect x="218" y="50.7051" width="7" height="11.4526" fill="white" stroke="#5B5B5B"/>
<rect x="218" y="44" width="7" height="6.66316" fill="white" stroke="#5B5B5B"/>
<rect x="225" y="50.7051" width="7" height="11.4526" fill="white" stroke="#5B5B5B"/>
<rect x="225" y="44" width="7" height="6.66316" fill="white" stroke="#5B5B5B"/>
<rect x="249" y="50.7051" width="7" height="11.4526" fill="white" stroke="#5B5B5B"/>
<rect x="249" y="44" width="7" height="6.66316" fill="white" stroke="#5B5B5B"/>
<rect x="256" y="50.7051" width="7" height="11.4526" fill="white" stroke="#5B5B5B"/>
<rect x="256" y="44" width="7" height="6.66316" fill="white" stroke="#5B5B5B"/>
<rect x="156" y="102.652" width="7" height="11.4526" fill="white" stroke="#5B5B5B"/>
<rect x="156" y="95.9473" width="7" height="6.66316" fill="white" stroke="#5B5B5B"/>
<rect x="163" y="102.652" width="7" height="11.4526" fill="white" stroke="#5B5B5B"/>
<rect x="163" y="95.9473" width="7" height="6.66316" fill="white" stroke="#5B5B5B"/>
<rect x="187" y="102.652" width="7" height="11.4526" fill="white" stroke="#5B5B5B"/>
<rect x="187" y="95.9473" width="7" height="6.66316" fill="white" stroke="#5B5B5B"/>
<rect x="194" y="102.652" width="7" height="11.4526" fill="white" stroke="#5B5B5B"/>
<rect x="194" y="95.9473" width="7" height="6.66316" fill="white" stroke="#5B5B5B"/>
<rect x="218" y="102.652" width="7" height="11.4526" fill="white" stroke="#5B5B5B"/>
<rect x="218" y="95.9473" width="7" height="6.66316" fill="white" stroke="#5B5B5B"/>
<rect x="225" y="102.652" width="7" height="11.4526" fill="white" stroke="#5B5B5B"/>
<rect x="225" y="95.9473" width="7" height="6.66316" fill="white" stroke="#5B5B5B"/>
<rect x="249" y="102.652" width="7" height="11.4526" fill="white" stroke="#5B5B5B"/>
<rect x="249" y="95.9473" width="7" height="6.66316" fill="white" stroke="#5B5B5B"/>
<rect x="256" y="102.652" width="7" height="11.4526" fill="white" stroke="#5B5B5B"/>
<rect x="256" y="95.9473" width="7" height="6.66316" fill="white" stroke="#5B5B5B"/>
<rect x="291" y="78.7051" width="7" height="11.4526" fill="white" stroke="#5B5B5B"/>
<rect x="291" y="72" width="7" height="6.66316" fill="white" stroke="#5B5B5B"/>
<rect x="298" y="78.7051" width="7" height="11.4526" fill="white" stroke="#5B5B5B"/>
<rect x="298" y="72" width="7" height="6.66316" fill="white" stroke="#5B5B5B"/>
<rect x="291" y="127.605" width="7" height="7.55263" fill="white" stroke="#5B5B5B"/>
<rect x="291" y="123" width="7" height="4.26316" fill="white" stroke="#5B5B5B"/>
<rect x="298" y="127.605" width="7" height="7.55263" fill="white" stroke="#5B5B5B"/>
<rect x="298" y="123" width="7" height="4.26316" fill="white" stroke="#5B5B5B"/>
<rect x="291" y="50.7051" width="7" height="11.4526" fill="white" stroke="#5B5B5B"/>
<rect x="291" y="44" width="7" height="6.66316" fill="white" stroke="#5B5B5B"/>
<rect x="298" y="50.7051" width="7" height="11.4526" fill="white" stroke="#5B5B5B"/>
<rect x="298" y="44" width="7" height="6.66316" fill="white" stroke="#5B5B5B"/>
<rect x="291" y="102.652" width="7" height="11.4526" fill="white" stroke="#5B5B5B"/>
<rect x="291" y="95.9473" width="7" height="6.66316" fill="white" stroke="#5B5B5B"/>
<rect x="298" y="102.652" width="7" height="11.4526" fill="white" stroke="#5B5B5B"/>
<rect x="298" y="95.9473" width="7" height="6.66316" fill="white" stroke="#5B5B5B"/>
<path d="M5 66L314 66" stroke="black"/>
<path d="M6 121H311V110H318" stroke="black"/>
</svg>
