<svg width="308" height="148" viewBox="0 0 308 148" fill="none" xmlns="http://www.w3.org/2000/svg">
<path d="M63 35C63 31.134 66.134 28 70 28H209C212.866 28 216 31.134 216 35V142H63V35Z" fill="#FFD200"/>
<rect x="120.5" y="65.5" width="50" height="50" fill="white" stroke="#5B5B5B"/>
<rect x="120.5" y="65.5" width="50" height="16" fill="white" stroke="#5B5B5B"/>
<rect x="0.5" y="0.5" width="63" height="6" fill="white" stroke="#5B5B5B"/>
<rect x="63.5" y="0.5" width="89" height="18" fill="white" stroke="#5B5B5B"/>
<rect x="152.5" y="0.5" width="63" height="6" fill="white" stroke="#5B5B5B"/>
<rect x="215.5" y="0.5" width="92" height="6" fill="white" stroke="#5B5B5B"/>
<rect x="0.5" y="6.5" width="63" height="6" fill="white" stroke="#5B5B5B"/>
<rect x="152.5" y="6.5" width="63" height="6" fill="white" stroke="#5B5B5B"/>
<rect x="215.5" y="6.5" width="92" height="6" fill="white" stroke="#5B5B5B"/>
<rect x="0.5" y="12.5" width="63" height="6" fill="white" stroke="#5B5B5B"/>
<rect x="8.5" y="18.5" width="29" height="6" fill="white" stroke="#5B5B5B"/>
<rect x="178.5" y="18.5" width="29" height="6" fill="white" stroke="#5B5B5B"/>
<rect x="270.5" y="18.5" width="29" height="6" fill="white" stroke="#5B5B5B"/>
<rect x="8.5" y="141.5" width="199" height="6" fill="white" stroke="#5B5B5B"/>
<rect x="270.5" y="141.5" width="29" height="6" fill="white" stroke="#5B5B5B"/>
<rect x="13.5" y="24.5" width="19" height="117" fill="white" stroke="#5B5B5B"/>
<rect x="183.5" y="24.5" width="19" height="117" fill="white" stroke="#5B5B5B"/>
<rect x="275.5" y="24.5" width="19" height="117" fill="white" stroke="#5B5B5B"/>
<rect x="152.5" y="12.5" width="63" height="6" fill="white" stroke="#5B5B5B"/>
<rect x="215.5" y="12.5" width="92" height="6" fill="white" stroke="#5B5B5B"/>
<mask id="path-22-outside-1_1267_3723" maskUnits="userSpaceOnUse" x="70.4941" y="1.39746" width="76" height="16" fill="black">
<rect fill="white" x="70.4941" y="1.39746" width="76" height="16"/>
<path d="M76.1861 2.54882V13.5674H75.2629V2.54882H76.1861ZM79.9624 2.54882V3.35099H71.4941V2.54882H79.9624Z"/>
<path d="M81.6046 6.95323V16.7156H80.6965V5.37914H81.5441L81.6046 6.95323ZM87.2956 9.39761V9.55653C87.2956 10.167 87.2249 10.727 87.0837 11.2366C86.9424 11.7461 86.7381 12.1876 86.4707 12.5609C86.2083 12.9292 85.8829 13.2143 85.4944 13.4161C85.106 13.6179 84.6645 13.7188 84.1701 13.7188C83.6807 13.7188 83.2443 13.6431 82.8609 13.4917C82.4774 13.3404 82.147 13.126 81.8695 12.8485C81.5971 12.566 81.3776 12.238 81.2111 11.8647C81.0497 11.4863 80.9361 11.0726 80.8706 10.6236V8.52732C80.9462 8.03289 81.0698 7.58388 81.2414 7.18026C81.4129 6.77665 81.6324 6.42854 81.8998 6.13592C82.1722 5.8433 82.4951 5.61879 82.8684 5.46239C83.2418 5.30599 83.6681 5.22779 84.1474 5.22779C84.6468 5.22779 85.0908 5.32617 85.4793 5.52293C85.8728 5.71465 86.2033 5.99465 86.4707 6.36295C86.7431 6.7262 86.9474 7.16513 87.0837 7.67973C87.2249 8.18929 87.2956 8.76192 87.2956 9.39761ZM86.3874 9.55653V9.39761C86.3874 8.91832 86.337 8.47434 86.2361 8.06569C86.1402 7.65703 85.9914 7.30135 85.7896 6.99864C85.5928 6.69088 85.3406 6.45124 85.0328 6.2797C84.7301 6.10817 84.3694 6.0224 83.9506 6.0224C83.5167 6.0224 83.1459 6.09556 82.8382 6.24187C82.5355 6.38313 82.2832 6.57232 82.0814 6.80944C81.8796 7.04152 81.7207 7.2963 81.6046 7.57379C81.4886 7.85127 81.4028 8.12371 81.3473 8.3911V10.8052C81.4432 11.1886 81.5971 11.5443 81.8089 11.8723C82.0208 12.1951 82.3034 12.455 82.6565 12.6517C83.0147 12.8434 83.4511 12.9393 83.9658 12.9393C84.3795 12.9393 84.7377 12.8535 85.0404 12.682C85.3431 12.5105 85.5928 12.2708 85.7896 11.9631C85.9914 11.6553 86.1402 11.2971 86.2361 10.8884C86.337 10.4798 86.3874 10.0358 86.3874 9.55653Z"/>
<path d="M94.2881 12.0993V7.87649C94.2881 7.48802 94.2074 7.15252 94.046 6.86999C93.8845 6.58746 93.6474 6.37052 93.3346 6.21916C93.0218 6.06781 92.6358 5.99213 92.1767 5.99213C91.7529 5.99213 91.3746 6.06781 91.0416 6.21916C90.7136 6.36547 90.4538 6.56475 90.2621 6.81701C90.0754 7.06422 89.9821 7.33919 89.9821 7.64189L89.074 7.63433C89.074 7.32657 89.1496 7.02891 89.301 6.74134C89.4524 6.45376 89.6668 6.19646 89.9443 5.96943C90.2217 5.7424 90.5522 5.56329 90.9356 5.43212C91.3241 5.2959 91.7504 5.22779 92.2146 5.22779C92.7998 5.22779 93.3144 5.32617 93.7584 5.52293C94.2074 5.71969 94.558 6.01483 94.8103 6.40836C95.0626 6.80188 95.1887 7.2963 95.1887 7.89163V11.8496C95.1887 12.1321 95.2089 12.4247 95.2492 12.7274C95.2946 13.0301 95.3577 13.2798 95.4384 13.4766V13.5674H94.4773C94.4168 13.3858 94.3689 13.1588 94.3335 12.8863C94.3033 12.6088 94.2881 12.3465 94.2881 12.0993ZM94.5 8.79976L94.5152 9.49599H92.7367C92.2726 9.49599 91.8564 9.53887 91.4881 9.62464C91.1248 9.70536 90.8171 9.82645 90.5648 9.98789C90.3126 10.1443 90.1183 10.3335 89.9821 10.5555C89.8509 10.7775 89.7853 11.0297 89.7853 11.3122C89.7853 11.6049 89.8585 11.8723 90.0048 12.1144C90.1562 12.3566 90.368 12.5508 90.6405 12.6971C90.918 12.8384 91.2459 12.909 91.6243 12.909C92.1288 12.909 92.5728 12.8157 92.9562 12.629C93.3447 12.4424 93.6651 12.1977 93.9173 11.895C94.1696 11.5922 94.3386 11.2618 94.4243 10.9036L94.8179 11.4258C94.7523 11.678 94.6312 11.9378 94.4546 12.2052C94.2831 12.4676 94.0586 12.7148 93.7811 12.9469C93.5036 13.1739 93.1757 13.3606 92.7973 13.5069C92.4239 13.6481 92.0002 13.7188 91.5259 13.7188C90.9911 13.7188 90.5244 13.6179 90.1259 13.4161C89.7324 13.2143 89.4246 12.9393 89.2026 12.5912C88.9857 12.238 88.8772 11.8395 88.8772 11.3955C88.8772 10.9919 88.963 10.6311 89.1345 10.3133C89.306 9.99041 89.5533 9.71797 89.8761 9.49599C90.2041 9.26896 90.5976 9.09742 91.0567 8.98138C91.5209 8.8603 92.0405 8.79976 92.6157 8.79976H94.5Z"/>
<path d="M103.203 9.04192V9.81383H98.3444V9.04192H103.203ZM98.579 5.37914V13.5674H97.6785V5.37914H98.579ZM103.899 5.37914V13.5674H102.991V5.37914H103.899Z"/>
<path d="M109.355 12.9393C109.739 12.9393 110.097 12.8687 110.43 12.7274C110.768 12.5811 111.046 12.3667 111.263 12.0841C111.485 11.7966 111.611 11.4459 111.641 11.0322H112.504C112.478 11.5519 112.319 12.016 112.027 12.4247C111.739 12.8283 111.361 13.1462 110.892 13.3782C110.428 13.6053 109.915 13.7188 109.355 13.7188C108.785 13.7188 108.281 13.6154 107.842 13.4085C107.408 13.2016 107.045 12.9141 106.752 12.5458C106.46 12.1724 106.238 11.7386 106.086 11.2441C105.94 10.7447 105.867 10.2074 105.867 9.63221V9.31436C105.867 8.73921 105.94 8.20443 106.086 7.71C106.238 7.21053 106.46 6.77665 106.752 6.40836C107.045 6.03501 107.408 5.74492 107.842 5.53807C108.276 5.33122 108.778 5.22779 109.348 5.22779C109.933 5.22779 110.458 5.34635 110.922 5.58347C111.391 5.8206 111.765 6.1561 112.042 6.58998C112.325 7.02386 112.478 7.53847 112.504 8.1338H111.641C111.616 7.69487 111.5 7.31648 111.293 6.99864C111.086 6.68079 110.814 6.4361 110.475 6.26457C110.137 6.09303 109.762 6.00727 109.348 6.00727C108.884 6.00727 108.488 6.09808 108.16 6.2797C107.832 6.45628 107.564 6.70097 107.358 7.01377C107.156 7.32153 107.007 7.67469 106.911 8.07326C106.815 8.46678 106.767 8.88048 106.767 9.31436V9.63221C106.767 10.0711 106.813 10.4899 106.904 10.8884C106.999 11.282 107.148 11.6326 107.35 11.9404C107.557 12.2481 107.824 12.4928 108.152 12.6744C108.485 12.851 108.886 12.9393 109.355 12.9393Z"/>
<path d="M121.941 3.20721L118.126 13.5674H117.158L121.32 2.54882H121.994L121.941 3.20721ZM125.407 13.5674L121.585 3.20721L121.532 2.54882H122.205L126.375 13.5674H125.407ZM124.726 9.67761V10.4798H118.876V9.67761H124.726Z"/>
<path d="M131.211 8.20191H129.849V7.54351H131.173C131.849 7.54351 132.397 7.45522 132.815 7.27864C133.234 7.10206 133.539 6.85485 133.731 6.53701C133.923 6.21916 134.019 5.84582 134.019 5.41698C134.019 4.99824 133.918 4.62237 133.716 4.28939C133.514 3.95137 133.201 3.68397 132.778 3.48721C132.354 3.29045 131.809 3.19207 131.143 3.19207C130.633 3.19207 130.169 3.28541 129.75 3.47208C129.337 3.6537 129.004 3.91353 128.752 4.25155C128.504 4.58958 128.381 4.98562 128.381 5.43969H127.45C127.45 4.97049 127.548 4.54922 127.745 4.17588C127.942 3.79749 128.209 3.47712 128.547 3.21478C128.89 2.94738 129.284 2.74558 129.728 2.60936C130.177 2.46809 130.649 2.39746 131.143 2.39746C131.723 2.39746 132.245 2.46305 132.709 2.59422C133.179 2.72035 133.58 2.91207 133.913 3.16937C134.251 3.42667 134.508 3.74452 134.685 4.1229C134.861 4.50129 134.95 4.94274 134.95 5.44725C134.95 5.82564 134.864 6.18132 134.692 6.5143C134.526 6.84728 134.281 7.1399 133.958 7.39216C133.64 7.64442 133.249 7.8437 132.785 7.99001C132.326 8.13127 131.801 8.20191 131.211 8.20191ZM129.849 7.71H131.211C131.857 7.71 132.422 7.77307 132.906 7.8992C133.396 8.02533 133.804 8.20947 134.132 8.45164C134.46 8.69381 134.707 8.99399 134.874 9.3522C135.04 9.70536 135.124 10.1115 135.124 10.5706C135.124 11.0751 135.025 11.5216 134.828 11.9101C134.632 12.2986 134.354 12.629 133.996 12.9015C133.643 13.1739 133.224 13.3808 132.74 13.522C132.255 13.6582 131.723 13.7263 131.143 13.7263C130.679 13.7263 130.217 13.6633 129.758 13.5372C129.304 13.406 128.89 13.2117 128.517 12.9544C128.149 12.6921 127.851 12.3591 127.624 11.9555C127.402 11.5468 127.291 11.065 127.291 10.5101H128.229C128.229 10.9692 128.35 11.3804 128.593 11.7436C128.84 12.1069 129.18 12.3969 129.614 12.6139C130.053 12.8258 130.563 12.9317 131.143 12.9317C131.794 12.9317 132.344 12.8359 132.793 12.6442C133.247 12.4474 133.592 12.175 133.829 11.8268C134.072 11.4737 134.193 11.065 134.193 10.6009C134.193 10.2074 134.127 9.86933 133.996 9.5868C133.865 9.29923 133.671 9.06463 133.413 8.883C133.161 8.70138 132.848 8.56768 132.475 8.48191C132.102 8.39614 131.668 8.35326 131.173 8.35326H129.849V7.71Z"/>
<path d="M144.106 10.1317H145.037C144.962 10.8733 144.757 11.514 144.424 12.0539C144.091 12.5887 143.637 12.9998 143.062 13.2874C142.487 13.575 141.793 13.7188 140.981 13.7188C140.355 13.7188 139.788 13.6002 139.278 13.3631C138.774 13.126 138.34 12.7905 137.977 12.3566C137.613 11.9177 137.333 11.393 137.137 10.7825C136.94 10.172 136.841 9.49346 136.841 8.74678V7.36946C136.841 6.62277 136.94 5.94672 137.137 5.34131C137.333 4.73084 137.616 4.20615 137.984 3.76722C138.352 3.32829 138.794 2.99027 139.309 2.75314C139.823 2.51602 140.403 2.39746 141.049 2.39746C141.831 2.39746 142.507 2.54125 143.077 2.82882C143.647 3.11135 144.096 3.52001 144.424 4.05479C144.757 4.58958 144.962 5.23536 145.037 5.99213H144.106C144.036 5.3968 143.879 4.89229 143.637 4.47859C143.395 4.06488 143.06 3.74956 142.631 3.53262C142.207 3.31063 141.68 3.19964 141.049 3.19964C140.535 3.19964 140.075 3.29802 139.672 3.49478C139.268 3.69154 138.925 3.97407 138.643 4.34237C138.36 4.70562 138.143 5.14202 137.992 5.65158C137.845 6.16114 137.772 6.72872 137.772 7.35432V8.74678C137.772 9.3522 137.843 9.90969 137.984 10.4193C138.125 10.9288 138.332 11.3703 138.605 11.7436C138.882 12.1169 139.22 12.407 139.619 12.6139C140.017 12.8207 140.471 12.9242 140.981 12.9242C141.632 12.9242 142.174 12.8207 142.608 12.6139C143.047 12.402 143.388 12.0892 143.63 11.6755C143.872 11.2618 144.031 10.7472 144.106 10.1317Z"/>
</mask>
<path d="M76.1861 2.54882V13.5674H75.2629V2.54882H76.1861ZM79.9624 2.54882V3.35099H71.4941V2.54882H79.9624Z" stroke="#5B5B5B" mask="url(#path-22-outside-1_1267_3723)"/>
<path d="M81.6046 6.95323V16.7156H80.6965V5.37914H81.5441L81.6046 6.95323ZM87.2956 9.39761V9.55653C87.2956 10.167 87.2249 10.727 87.0837 11.2366C86.9424 11.7461 86.7381 12.1876 86.4707 12.5609C86.2083 12.9292 85.8829 13.2143 85.4944 13.4161C85.106 13.6179 84.6645 13.7188 84.1701 13.7188C83.6807 13.7188 83.2443 13.6431 82.8609 13.4917C82.4774 13.3404 82.147 13.126 81.8695 12.8485C81.5971 12.566 81.3776 12.238 81.2111 11.8647C81.0497 11.4863 80.9361 11.0726 80.8706 10.6236V8.52732C80.9462 8.03289 81.0698 7.58388 81.2414 7.18026C81.4129 6.77665 81.6324 6.42854 81.8998 6.13592C82.1722 5.8433 82.4951 5.61879 82.8684 5.46239C83.2418 5.30599 83.6681 5.22779 84.1474 5.22779C84.6468 5.22779 85.0908 5.32617 85.4793 5.52293C85.8728 5.71465 86.2033 5.99465 86.4707 6.36295C86.7431 6.7262 86.9474 7.16513 87.0837 7.67973C87.2249 8.18929 87.2956 8.76192 87.2956 9.39761ZM86.3874 9.55653V9.39761C86.3874 8.91832 86.337 8.47434 86.2361 8.06569C86.1402 7.65703 85.9914 7.30135 85.7896 6.99864C85.5928 6.69088 85.3406 6.45124 85.0328 6.2797C84.7301 6.10817 84.3694 6.0224 83.9506 6.0224C83.5167 6.0224 83.1459 6.09556 82.8382 6.24187C82.5355 6.38313 82.2832 6.57232 82.0814 6.80944C81.8796 7.04152 81.7207 7.2963 81.6046 7.57379C81.4886 7.85127 81.4028 8.12371 81.3473 8.3911V10.8052C81.4432 11.1886 81.5971 11.5443 81.8089 11.8723C82.0208 12.1951 82.3034 12.455 82.6565 12.6517C83.0147 12.8434 83.4511 12.9393 83.9658 12.9393C84.3795 12.9393 84.7377 12.8535 85.0404 12.682C85.3431 12.5105 85.5928 12.2708 85.7896 11.9631C85.9914 11.6553 86.1402 11.2971 86.2361 10.8884C86.337 10.4798 86.3874 10.0358 86.3874 9.55653Z" stroke="#5B5B5B" mask="url(#path-22-outside-1_1267_3723)"/>
<path d="M94.2881 12.0993V7.87649C94.2881 7.48802 94.2074 7.15252 94.046 6.86999C93.8845 6.58746 93.6474 6.37052 93.3346 6.21916C93.0218 6.06781 92.6358 5.99213 92.1767 5.99213C91.7529 5.99213 91.3746 6.06781 91.0416 6.21916C90.7136 6.36547 90.4538 6.56475 90.2621 6.81701C90.0754 7.06422 89.9821 7.33919 89.9821 7.64189L89.074 7.63433C89.074 7.32657 89.1496 7.02891 89.301 6.74134C89.4524 6.45376 89.6668 6.19646 89.9443 5.96943C90.2217 5.7424 90.5522 5.56329 90.9356 5.43212C91.3241 5.2959 91.7504 5.22779 92.2146 5.22779C92.7998 5.22779 93.3144 5.32617 93.7584 5.52293C94.2074 5.71969 94.558 6.01483 94.8103 6.40836C95.0626 6.80188 95.1887 7.2963 95.1887 7.89163V11.8496C95.1887 12.1321 95.2089 12.4247 95.2492 12.7274C95.2946 13.0301 95.3577 13.2798 95.4384 13.4766V13.5674H94.4773C94.4168 13.3858 94.3689 13.1588 94.3335 12.8863C94.3033 12.6088 94.2881 12.3465 94.2881 12.0993ZM94.5 8.79976L94.5152 9.49599H92.7367C92.2726 9.49599 91.8564 9.53887 91.4881 9.62464C91.1248 9.70536 90.8171 9.82645 90.5648 9.98789C90.3126 10.1443 90.1183 10.3335 89.9821 10.5555C89.8509 10.7775 89.7853 11.0297 89.7853 11.3122C89.7853 11.6049 89.8585 11.8723 90.0048 12.1144C90.1562 12.3566 90.368 12.5508 90.6405 12.6971C90.918 12.8384 91.2459 12.909 91.6243 12.909C92.1288 12.909 92.5728 12.8157 92.9562 12.629C93.3447 12.4424 93.6651 12.1977 93.9173 11.895C94.1696 11.5922 94.3386 11.2618 94.4243 10.9036L94.8179 11.4258C94.7523 11.678 94.6312 11.9378 94.4546 12.2052C94.2831 12.4676 94.0586 12.7148 93.7811 12.9469C93.5036 13.1739 93.1757 13.3606 92.7973 13.5069C92.4239 13.6481 92.0002 13.7188 91.5259 13.7188C90.9911 13.7188 90.5244 13.6179 90.1259 13.4161C89.7324 13.2143 89.4246 12.9393 89.2026 12.5912C88.9857 12.238 88.8772 11.8395 88.8772 11.3955C88.8772 10.9919 88.963 10.6311 89.1345 10.3133C89.306 9.99041 89.5533 9.71797 89.8761 9.49599C90.2041 9.26896 90.5976 9.09742 91.0567 8.98138C91.5209 8.8603 92.0405 8.79976 92.6157 8.79976H94.5Z" stroke="#5B5B5B" mask="url(#path-22-outside-1_1267_3723)"/>
<path d="M103.203 9.04192V9.81383H98.3444V9.04192H103.203ZM98.579 5.37914V13.5674H97.6785V5.37914H98.579ZM103.899 5.37914V13.5674H102.991V5.37914H103.899Z" stroke="#5B5B5B" mask="url(#path-22-outside-1_1267_3723)"/>
<path d="M109.355 12.9393C109.739 12.9393 110.097 12.8687 110.43 12.7274C110.768 12.5811 111.046 12.3667 111.263 12.0841C111.485 11.7966 111.611 11.4459 111.641 11.0322H112.504C112.478 11.5519 112.319 12.016 112.027 12.4247C111.739 12.8283 111.361 13.1462 110.892 13.3782C110.428 13.6053 109.915 13.7188 109.355 13.7188C108.785 13.7188 108.281 13.6154 107.842 13.4085C107.408 13.2016 107.045 12.9141 106.752 12.5458C106.46 12.1724 106.238 11.7386 106.086 11.2441C105.94 10.7447 105.867 10.2074 105.867 9.63221V9.31436C105.867 8.73921 105.94 8.20443 106.086 7.71C106.238 7.21053 106.46 6.77665 106.752 6.40836C107.045 6.03501 107.408 5.74492 107.842 5.53807C108.276 5.33122 108.778 5.22779 109.348 5.22779C109.933 5.22779 110.458 5.34635 110.922 5.58347C111.391 5.8206 111.765 6.1561 112.042 6.58998C112.325 7.02386 112.478 7.53847 112.504 8.1338H111.641C111.616 7.69487 111.5 7.31648 111.293 6.99864C111.086 6.68079 110.814 6.4361 110.475 6.26457C110.137 6.09303 109.762 6.00727 109.348 6.00727C108.884 6.00727 108.488 6.09808 108.16 6.2797C107.832 6.45628 107.564 6.70097 107.358 7.01377C107.156 7.32153 107.007 7.67469 106.911 8.07326C106.815 8.46678 106.767 8.88048 106.767 9.31436V9.63221C106.767 10.0711 106.813 10.4899 106.904 10.8884C106.999 11.282 107.148 11.6326 107.35 11.9404C107.557 12.2481 107.824 12.4928 108.152 12.6744C108.485 12.851 108.886 12.9393 109.355 12.9393Z" stroke="#5B5B5B" mask="url(#path-22-outside-1_1267_3723)"/>
<path d="M121.941 3.20721L118.126 13.5674H117.158L121.32 2.54882H121.994L121.941 3.20721ZM125.407 13.5674L121.585 3.20721L121.532 2.54882H122.205L126.375 13.5674H125.407ZM124.726 9.67761V10.4798H118.876V9.67761H124.726Z" stroke="#5B5B5B" mask="url(#path-22-outside-1_1267_3723)"/>
<path d="M131.211 8.20191H129.849V7.54351H131.173C131.849 7.54351 132.397 7.45522 132.815 7.27864C133.234 7.10206 133.539 6.85485 133.731 6.53701C133.923 6.21916 134.019 5.84582 134.019 5.41698C134.019 4.99824 133.918 4.62237 133.716 4.28939C133.514 3.95137 133.201 3.68397 132.778 3.48721C132.354 3.29045 131.809 3.19207 131.143 3.19207C130.633 3.19207 130.169 3.28541 129.75 3.47208C129.337 3.6537 129.004 3.91353 128.752 4.25155C128.504 4.58958 128.381 4.98562 128.381 5.43969H127.45C127.45 4.97049 127.548 4.54922 127.745 4.17588C127.942 3.79749 128.209 3.47712 128.547 3.21478C128.89 2.94738 129.284 2.74558 129.728 2.60936C130.177 2.46809 130.649 2.39746 131.143 2.39746C131.723 2.39746 132.245 2.46305 132.709 2.59422C133.179 2.72035 133.58 2.91207 133.913 3.16937C134.251 3.42667 134.508 3.74452 134.685 4.1229C134.861 4.50129 134.95 4.94274 134.95 5.44725C134.95 5.82564 134.864 6.18132 134.692 6.5143C134.526 6.84728 134.281 7.1399 133.958 7.39216C133.64 7.64442 133.249 7.8437 132.785 7.99001C132.326 8.13127 131.801 8.20191 131.211 8.20191ZM129.849 7.71H131.211C131.857 7.71 132.422 7.77307 132.906 7.8992C133.396 8.02533 133.804 8.20947 134.132 8.45164C134.46 8.69381 134.707 8.99399 134.874 9.3522C135.04 9.70536 135.124 10.1115 135.124 10.5706C135.124 11.0751 135.025 11.5216 134.828 11.9101C134.632 12.2986 134.354 12.629 133.996 12.9015C133.643 13.1739 133.224 13.3808 132.74 13.522C132.255 13.6582 131.723 13.7263 131.143 13.7263C130.679 13.7263 130.217 13.6633 129.758 13.5372C129.304 13.406 128.89 13.2117 128.517 12.9544C128.149 12.6921 127.851 12.3591 127.624 11.9555C127.402 11.5468 127.291 11.065 127.291 10.5101H128.229C128.229 10.9692 128.35 11.3804 128.593 11.7436C128.84 12.1069 129.18 12.3969 129.614 12.6139C130.053 12.8258 130.563 12.9317 131.143 12.9317C131.794 12.9317 132.344 12.8359 132.793 12.6442C133.247 12.4474 133.592 12.175 133.829 11.8268C134.072 11.4737 134.193 11.065 134.193 10.6009C134.193 10.2074 134.127 9.86933 133.996 9.5868C133.865 9.29923 133.671 9.06463 133.413 8.883C133.161 8.70138 132.848 8.56768 132.475 8.48191C132.102 8.39614 131.668 8.35326 131.173 8.35326H129.849V7.71Z" stroke="#5B5B5B" mask="url(#path-22-outside-1_1267_3723)"/>
<path d="M144.106 10.1317H145.037C144.962 10.8733 144.757 11.514 144.424 12.0539C144.091 12.5887 143.637 12.9998 143.062 13.2874C142.487 13.575 141.793 13.7188 140.981 13.7188C140.355 13.7188 139.788 13.6002 139.278 13.3631C138.774 13.126 138.34 12.7905 137.977 12.3566C137.613 11.9177 137.333 11.393 137.137 10.7825C136.94 10.172 136.841 9.49346 136.841 8.74678V7.36946C136.841 6.62277 136.94 5.94672 137.137 5.34131C137.333 4.73084 137.616 4.20615 137.984 3.76722C138.352 3.32829 138.794 2.99027 139.309 2.75314C139.823 2.51602 140.403 2.39746 141.049 2.39746C141.831 2.39746 142.507 2.54125 143.077 2.82882C143.647 3.11135 144.096 3.52001 144.424 4.05479C144.757 4.58958 144.962 5.23536 145.037 5.99213H144.106C144.036 5.3968 143.879 4.89229 143.637 4.47859C143.395 4.06488 143.06 3.74956 142.631 3.53262C142.207 3.31063 141.68 3.19964 141.049 3.19964C140.535 3.19964 140.075 3.29802 139.672 3.49478C139.268 3.69154 138.925 3.97407 138.643 4.34237C138.36 4.70562 138.143 5.14202 137.992 5.65158C137.845 6.16114 137.772 6.72872 137.772 7.35432V8.74678C137.772 9.3522 137.843 9.90969 137.984 10.4193C138.125 10.9288 138.332 11.3703 138.605 11.7436C138.882 12.1169 139.22 12.407 139.619 12.6139C140.017 12.8207 140.471 12.9242 140.981 12.9242C141.632 12.9242 142.174 12.8207 142.608 12.6139C143.047 12.402 143.388 12.0892 143.63 11.6755C143.872 11.2618 144.031 10.7472 144.106 10.1317Z" stroke="#5B5B5B" mask="url(#path-22-outside-1_1267_3723)"/>
<path d="M38 92C38 89.2386 40.2386 87 43 87H60C62.7614 87 65 89.2386 65 92V141H43C40.2386 141 38 138.761 38 136V92Z" fill="white"/>
<path d="M74 107L66.5 96.5V100L69.5 104V105.5L69 109L71 111.5L72.5 113L74.5 126.5C75.3333 130.333 77 138.3 77 139.5C77 141 76 142.5 75 143.5C74 144.5 71.5 143.5 71 142C70.5 140.5 71 135.5 71.5 133C72 130.5 71 129.5 70.5 128C70.1 126.8 67.6667 126.167 66.5 126V128C67 127.667 68.5 129 69 130.5C69.5 132 67.5 136 69 141.5C70.5 147 78 144.5 79 141.5C80 138.5 78 131.5 77 127C76 122.5 74.5 113 74.5 111C74.5 109.4 74.1667 107.667 74 107Z" fill="white"/>
<path fill-rule="evenodd" clip-rule="evenodd" d="M60 88H42C39.7909 88 38 89.7909 38 92V141H64V92C64 89.7909 62.2091 88 60 88ZM42 87C39.2386 87 37 89.2386 37 92V142H65V92C65 89.2386 62.7614 87 60 87H42Z" fill="#5B5B5B"/>
<path fill-rule="evenodd" clip-rule="evenodd" d="M59 97H43V113H59V97ZM42 96V114H60V96H42Z" fill="#5B5B5B"/>
<path d="M70.5 144C68.9 142.4 68.5 141 68.5 140.5L70.5 140C71.1667 142 72.1 145.6 70.5 144Z" fill="white"/>
<path d="M76.8828 144C78.4828 142.4 78.8828 141 78.8828 140.5L76.8828 140C76.2161 142 75.2828 145.6 76.8828 144Z" fill="white"/>
<path fill-rule="evenodd" clip-rule="evenodd" d="M65.8418 94.7749L74.7416 106.876L74.7507 107.357C74.8004 109.991 75.2171 116.763 76.4691 122.606C76.7516 123.924 77.0911 125.352 77.4411 126.823L77.4418 126.826L77.4441 126.836C78.0522 129.392 78.6916 132.081 79.1018 134.505C79.428 136.433 79.6323 138.309 79.5568 139.941C79.4833 141.529 79.1344 143.164 78.0832 144.332C76.3867 146.217 73.7683 147.138 71.4561 146.118C69.0729 145.067 67.8285 142.34 68.0373 138.623C68.1263 137.039 68.2919 135.616 68.4343 134.393L68.4787 134.01C68.6339 132.667 68.7354 131.657 68.703 130.847C68.6712 130.052 68.5143 129.667 68.3354 129.444C68.1646 129.23 67.7931 128.939 66.8364 128.735L66.8353 128.735L65.8418 128.521L65.8418 125.319L67.4896 125.67C68.8565 125.961 70.0003 126.508 70.7826 127.486C71.5565 128.453 71.7901 129.612 71.8345 130.722C71.8783 131.818 71.7417 133.075 71.592 134.37L71.5481 134.748L71.5476 134.752C71.4047 135.981 71.2498 137.315 71.1664 138.799C70.9945 141.859 72.0322 142.947 72.7207 143.25C73.4803 143.585 74.7103 143.395 75.7537 142.235C76.0745 141.879 76.3639 141.141 76.4261 139.796C76.4864 138.494 76.3239 136.873 76.0117 135.028C75.6168 132.694 75.0189 130.183 74.4218 127.677L74.4211 127.674L74.4204 127.671C74.0661 126.183 73.7123 124.698 73.4047 123.263C72.6751 119.858 72.2202 116.183 71.9512 113.125L71.3901 112.769C69.6892 111.69 68.9673 110.084 68.7525 108.62C68.5438 107.197 68.7953 105.838 69.1047 104.975L69.2373 104.605L65.8418 99.9273L65.8418 94.7749ZM66.8418 97.8223L73.7478 107.212L73.7509 107.376C73.8013 110.048 74.2212 116.888 75.4913 122.816C75.7766 124.147 76.1188 125.585 76.4681 127.054L76.4689 127.057L76.4696 127.06C77.08 129.627 77.7118 132.284 78.1159 134.672C78.4375 136.573 78.6285 138.368 78.5579 139.895C78.4879 141.406 78.158 142.754 77.34 143.663C75.8487 145.32 73.6729 146.003 71.8596 145.203C70.0206 144.392 68.8384 142.192 69.0357 138.679C69.123 137.126 69.2854 135.73 69.4281 134.504L69.472 134.126C69.6254 132.798 69.7382 131.708 69.7022 130.807C69.6663 129.911 69.4848 129.28 69.1162 128.819C68.7509 128.362 68.1338 127.989 67.0459 127.757C67.0459 127.757 67.0458 127.757 67.0459 127.757C67.0455 127.757 67.0451 127.757 67.0448 127.757L66.8418 127.713L66.8418 126.554L67.2812 126.648C68.5179 126.911 69.4149 127.377 70.0017 128.11C70.5857 128.84 70.7949 129.752 70.8353 130.762C70.8755 131.766 70.75 132.945 70.5986 134.255C70.5986 134.255 70.5986 134.255 70.5986 134.255L70.5553 134.628L70.5548 134.633L70.5543 134.637C70.4116 135.864 70.2532 137.225 70.168 138.743C69.9839 142.019 71.0925 143.625 72.3172 144.165C73.5673 144.717 75.2408 144.3 76.497 142.904C77.0508 142.289 77.3592 141.265 77.4251 139.842C77.4902 138.435 77.3144 136.733 76.9977 134.861C76.5966 132.491 75.9911 129.949 75.3963 127.452L75.3941 127.443L75.3933 127.439C75.0384 125.95 74.6873 124.476 74.3825 123.053C73.6451 119.612 73.1901 115.875 72.9262 112.792L72.905 112.545L71.9257 111.924C70.5258 111.036 69.9249 109.722 69.7419 108.474C69.561 107.241 69.782 106.049 70.046 105.312L70.3569 104.445L66.8418 99.6026L66.8418 97.8223ZM70.9847 105.31L72.6203 107.563L72.6244 107.718C72.6419 108.384 72.6785 109.247 72.7397 110.253L72.8154 111.496L71.9011 110.65C71.187 109.99 70.8529 109.158 70.7313 108.329C70.633 107.659 70.6769 107 70.7752 106.46L70.9847 105.31Z" fill="#5B5B5B"/>
<path d="M240 92C240 89.2386 237.761 87 235 87H218C215.239 87 213 89.2386 213 92V141H235C237.761 141 240 138.761 240 136V92Z" fill="white"/>
<path fill-rule="evenodd" clip-rule="evenodd" d="M236 88H218C215.791 88 214 89.7909 214 92V141H240V92C240 89.7909 238.209 88 236 88ZM218 87C215.239 87 213 89.2386 213 92V142H241V92C241 89.2386 238.761 87 236 87H218Z" fill="#5B5B5B"/>
<path fill-rule="evenodd" clip-rule="evenodd" d="M235 97H219V113H235V97ZM218 96V114H236V96H218Z" fill="#5B5B5B"/>
<path fill-rule="evenodd" clip-rule="evenodd" d="M242 142.167H212V146.833H242V142.167ZM212 141C211.448 141 211 141.522 211 142.167V146.833C211 147.478 211.448 148 212 148H242C242.552 148 243 147.478 243 146.833V142.167C243 141.522 242.552 141 242 141H212Z" fill="#5B5B5B"/>
<path fill-rule="evenodd" clip-rule="evenodd" d="M241.842 94.7749L250.742 106.876L250.751 107.357C250.8 109.991 251.217 116.763 252.469 122.606C252.752 123.924 253.091 125.352 253.441 126.823L253.442 126.826L253.444 126.836C254.052 129.392 254.692 132.081 255.102 134.505C255.428 136.433 255.632 138.309 255.557 139.941C255.483 141.529 255.134 143.164 254.083 144.332C252.387 146.217 249.768 147.138 247.456 146.118C245.073 145.067 243.828 142.34 244.037 138.623C244.126 137.039 244.292 135.616 244.434 134.393L244.479 134.01C244.634 132.667 244.735 131.657 244.703 130.847C244.671 130.052 244.514 129.667 244.335 129.444C244.165 129.23 243.793 128.939 242.836 128.735L242.835 128.735L241.842 128.521L241.842 125.319L243.49 125.67C244.857 125.961 246 126.508 246.783 127.486C247.556 128.453 247.79 129.612 247.834 130.722C247.878 131.818 247.742 133.075 247.592 134.37L247.548 134.748L247.548 134.752C247.405 135.981 247.25 137.315 247.166 138.799C246.994 141.859 248.032 142.947 248.721 143.25C249.48 143.585 250.71 143.395 251.754 142.235C252.075 141.879 252.364 141.141 252.426 139.796C252.486 138.494 252.324 136.873 252.012 135.028C251.617 132.694 251.019 130.183 250.422 127.677L250.421 127.674L250.42 127.671C250.066 126.183 249.712 124.698 249.405 123.263C248.675 119.858 248.22 116.183 247.951 113.125L247.39 112.769C245.689 111.69 244.967 110.084 244.752 108.62C244.544 107.197 244.795 105.838 245.105 104.975L245.237 104.605L241.842 99.9273L241.842 94.7749ZM242.842 97.8223L249.748 107.212L249.751 107.376C249.801 110.048 250.221 116.888 251.491 122.816C251.777 124.147 252.119 125.585 252.468 127.054L252.469 127.057L252.47 127.06C253.08 129.627 253.712 132.284 254.116 134.672C254.438 136.573 254.629 138.368 254.558 139.895C254.488 141.406 254.158 142.754 253.34 143.663C251.849 145.32 249.673 146.003 247.86 145.203C246.021 144.392 244.838 142.192 245.036 138.679C245.123 137.126 245.285 135.73 245.428 134.504L245.472 134.126C245.625 132.798 245.738 131.708 245.702 130.807C245.666 129.911 245.485 129.28 245.116 128.819C244.751 128.362 244.134 127.989 243.046 127.757C243.046 127.757 243.046 127.757 243.046 127.757C243.046 127.757 243.045 127.757 243.045 127.757L242.842 127.713L242.842 126.554L243.281 126.648C244.518 126.911 245.415 127.377 246.002 128.11C246.586 128.84 246.795 129.752 246.835 130.762C246.875 131.766 246.75 132.945 246.599 134.255C246.599 134.255 246.599 134.255 246.599 134.255L246.555 134.628L246.555 134.633L246.554 134.637C246.412 135.864 246.253 137.225 246.168 138.743C245.984 142.019 247.092 143.625 248.317 144.165C249.567 144.717 251.241 144.3 252.497 142.904C253.051 142.289 253.359 141.265 253.425 139.842C253.49 138.435 253.314 136.733 252.998 134.861C252.597 132.491 251.991 129.949 251.396 127.452L251.394 127.443L251.393 127.439C251.038 125.95 250.687 124.476 250.382 123.053C249.645 119.612 249.19 115.875 248.926 112.792L248.905 112.545L247.926 111.924C246.526 111.036 245.925 109.722 245.742 108.474C245.561 107.241 245.782 106.049 246.046 105.312L246.357 104.445L242.842 99.6026L242.842 97.8223ZM246.985 105.31L248.62 107.563L248.624 107.718C248.642 108.384 248.679 109.247 248.74 110.253L248.815 111.496L247.901 110.65C247.187 109.99 246.853 109.158 246.731 108.329C246.633 107.659 246.677 107 246.775 106.46L246.985 105.31Z" fill="#5B5B5B"/>
<rect x="212" y="142" width="30" height="5" fill="white"/>
</svg>
