<svg width="169" height="203" viewBox="0 0 169 203" fill="none" xmlns="http://www.w3.org/2000/svg">
<path d="M84.5 0L169 73H0L84.5 0Z" fill="#FFD200"/>
<path d="M75 59.001H85.3923V48.6375H75V59.001Z" fill="white"/>
<path fill-rule="evenodd" clip-rule="evenodd" d="M83.6603 57.2737H76.7321V50.3647H83.6603V57.2737ZM75 59.001V48.6375H85.3923V59.001H75Z" fill="#5B5B5B"/>
<path d="M75 50.3633H85.3923V39.9998H75V50.3633Z" fill="white"/>
<path fill-rule="evenodd" clip-rule="evenodd" d="M83.6603 48.636H76.7321V41.727H83.6603V48.636ZM75 50.3633V39.9998H85.3923V50.3633H75Z" fill="#5B5B5B"/>
<path d="M83.6602 50.3633H94.0525V39.9998H83.6602V50.3633Z" fill="white"/>
<path fill-rule="evenodd" clip-rule="evenodd" d="M92.3204 48.636H85.3922V41.727H92.3204V48.636ZM83.6602 50.3633V39.9998H94.0525V50.3633H83.6602Z" fill="#5B5B5B"/>
<path d="M83.6602 59.001H94.0525V48.6375H83.6602V59.001Z" fill="white"/>
<path fill-rule="evenodd" clip-rule="evenodd" d="M92.3204 57.2737H85.3922V50.3647H92.3204V57.2737ZM83.6602 59.001V48.6375H94.0525V59.001H83.6602Z" fill="#5B5B5B"/>
<rect x="1" y="74" width="167" height="128" fill="white"/>
<path fill-rule="evenodd" clip-rule="evenodd" d="M167.143 74.6572H1.73205V201.322H167.143V74.6572ZM0 72.9795V203H168.875V72.9795H0Z" fill="#5B5B5B"/>
<path fill-rule="evenodd" clip-rule="evenodd" d="M40.7037 98.9834H22.5172V150.992H40.7037V98.9834ZM20.7852 97.3057V152.669H42.4358V97.3057H20.7852Z" fill="#5B5B5B"/>
<path fill-rule="evenodd" clip-rule="evenodd" d="M126.44 98.9834H108.254V150.992H126.44V98.9834ZM106.521 97.3057V152.669H128.172V97.3057H106.521Z" fill="#5B5B5B"/>
<path fill-rule="evenodd" clip-rule="evenodd" d="M60.6217 98.9834H42.4352V150.992H60.6217V98.9834ZM40.7031 97.3057V152.669H62.3538V97.3057H40.7031Z" fill="#5B5B5B"/>
<path fill-rule="evenodd" clip-rule="evenodd" d="M146.358 98.9834H128.172V150.992H146.358V98.9834ZM126.439 97.3057V152.669H148.09V97.3057H126.439Z" fill="#5B5B5B"/>
<path fill-rule="evenodd" clip-rule="evenodd" d="M93.5299 166.091H75.3434V201.322H93.5299V166.091ZM73.6113 164.413V203H95.262V164.413H73.6113Z" fill="#5B5B5B"/>
</svg>
