<svg width="325" height="153" viewBox="0 0 325 153" fill="none" xmlns="http://www.w3.org/2000/svg">
<g filter="url(#filter0_d_1203_842)">
<rect x="82" y="77" width="111" height="30" fill="#FFD200"/>
<rect x="193" y="107" width="128" height="32" fill="#FFD200"/>
<path fill-rule="evenodd" clip-rule="evenodd" d="M193 63H82V77H193V107H321V63H193.238H193Z" fill="#FFD200"/>
<rect x="117.5" y="88.5" width="7" height="12" fill="white" stroke="#5B5B5B"/>
<rect x="117.5" y="81.5" width="7" height="7" fill="white" stroke="#5B5B5B"/>
<rect x="124.5" y="88.5" width="7" height="12" fill="white" stroke="#5B5B5B"/>
<rect x="124.5" y="81.5" width="7" height="7" fill="white" stroke="#5B5B5B"/>
<rect x="147.5" y="88.5" width="7" height="12" fill="white" stroke="#5B5B5B"/>
<rect x="147.5" y="81.5" width="7" height="7" fill="white" stroke="#5B5B5B"/>
<rect x="154.5" y="88.5" width="7" height="12" fill="white" stroke="#5B5B5B"/>
<rect x="154.5" y="81.5" width="7" height="7" fill="white" stroke="#5B5B5B"/>
<rect x="200.5" y="121.5" width="7" height="12" fill="white" stroke="#5B5B5B"/>
<rect x="200.5" y="114.5" width="7" height="7" fill="white" stroke="#5B5B5B"/>
<rect x="207.5" y="121.5" width="7" height="12" fill="white" stroke="#5B5B5B"/>
<rect x="207.5" y="114.5" width="7" height="7" fill="white" stroke="#5B5B5B"/>
<rect x="225.5" y="121.5" width="7" height="12" fill="white" stroke="#5B5B5B"/>
<rect x="225.5" y="114.5" width="7" height="7" fill="white" stroke="#5B5B5B"/>
<rect x="232.5" y="121.5" width="7" height="12" fill="white" stroke="#5B5B5B"/>
<rect x="232.5" y="114.5" width="7" height="7" fill="white" stroke="#5B5B5B"/>
<rect x="250.5" y="121.5" width="7" height="12" fill="white" stroke="#5B5B5B"/>
<rect x="250.5" y="114.5" width="7" height="7" fill="white" stroke="#5B5B5B"/>
<rect x="257.5" y="121.5" width="7" height="12" fill="white" stroke="#5B5B5B"/>
<rect x="257.5" y="114.5" width="7" height="7" fill="white" stroke="#5B5B5B"/>
<rect x="275.5" y="121.5" width="7" height="12" fill="white" stroke="#5B5B5B"/>
<rect x="275.5" y="114.5" width="7" height="7" fill="white" stroke="#5B5B5B"/>
<rect x="282.5" y="121.5" width="7" height="12" fill="white" stroke="#5B5B5B"/>
<rect x="282.5" y="114.5" width="7" height="7" fill="white" stroke="#5B5B5B"/>
<rect x="300.5" y="121.5" width="7" height="12" fill="white" stroke="#5B5B5B"/>
<rect x="300.5" y="114.5" width="7" height="7" fill="white" stroke="#5B5B5B"/>
<rect x="307.5" y="121.5" width="7" height="12" fill="white" stroke="#5B5B5B"/>
<rect x="307.5" y="114.5" width="7" height="7" fill="white" stroke="#5B5B5B"/>
<rect x="4" y="126" width="317" height="19" fill="white"/>
<path d="M65.5 1H82V31.5H192.5V63H320.5V125.5H6V12H41V6.5H65.5V1Z" fill="white" stroke="#5B5B5B"/>
<rect x="18.5" y="45.5" width="7" height="12" fill="white" stroke="#5B5B5B"/>
<rect x="18.5" y="38.5" width="7" height="7" fill="white" stroke="#5B5B5B"/>
<rect x="42.5" y="45.5" width="7" height="12" fill="white" stroke="#5B5B5B"/>
<rect x="42.5" y="38.5" width="7" height="7" fill="white" stroke="#5B5B5B"/>
<rect x="67.5" y="45.5" width="7" height="12" fill="white" stroke="#5B5B5B"/>
<rect x="67.5" y="38.5" width="7" height="7" fill="white" stroke="#5B5B5B"/>
<rect x="92.5" y="45.5" width="7" height="12" fill="white" stroke="#5B5B5B"/>
<rect x="92.5" y="38.5" width="7" height="7" fill="white" stroke="#5B5B5B"/>
<rect x="99.5" y="45.5" width="7" height="12" fill="white" stroke="#5B5B5B"/>
<rect x="99.5" y="38.5" width="7" height="7" fill="white" stroke="#5B5B5B"/>
<rect x="92.5" y="72.9492" width="7" height="16.55" fill="white" stroke="#5B5B5B"/>
<rect x="92.5" y="63.5" width="7" height="9.8" fill="white" stroke="#5B5B5B"/>
<rect x="99.5" y="72.9492" width="7" height="16.55" fill="white" stroke="#5B5B5B"/>
<rect x="99.5" y="63.5" width="7" height="9.8" fill="white" stroke="#5B5B5B"/>
<rect x="64.5" y="77.5" width="7" height="12" fill="white" stroke="#5B5B5B"/>
<rect x="64.5" y="70.5" width="7" height="7" fill="white" stroke="#5B5B5B"/>
<rect x="71.5" y="77.5" width="7" height="12" fill="white" stroke="#5B5B5B"/>
<rect x="71.5" y="70.5" width="7" height="7" fill="white" stroke="#5B5B5B"/>
<rect x="39.5" y="77.5" width="7" height="12" fill="white" stroke="#5B5B5B"/>
<rect x="39.5" y="70.5" width="7" height="7" fill="white" stroke="#5B5B5B"/>
<rect x="46.5" y="77.5" width="7" height="12" fill="white" stroke="#5B5B5B"/>
<rect x="46.5" y="70.5" width="7" height="7" fill="white" stroke="#5B5B5B"/>
<rect x="39.5" y="107.5" width="7" height="12" fill="white" stroke="#5B5B5B"/>
<rect x="39.5" y="100.5" width="7" height="7" fill="white" stroke="#5B5B5B"/>
<rect x="46.5" y="107.5" width="7" height="12" fill="white" stroke="#5B5B5B"/>
<rect x="46.5" y="100.5" width="7" height="7" fill="white" stroke="#5B5B5B"/>
<rect x="58.5" y="107.5" width="12" height="18" fill="white" stroke="#5B5B5B"/>
<rect x="69.5" y="107.5" width="12" height="18" fill="white" stroke="#5B5B5B"/>
<rect x="15.5" y="77.5" width="7" height="12" fill="white" stroke="#5B5B5B"/>
<rect x="15.5" y="70.5" width="7" height="7" fill="white" stroke="#5B5B5B"/>
<rect x="22.5" y="77.5" width="7" height="12" fill="white" stroke="#5B5B5B"/>
<rect x="22.5" y="70.5" width="7" height="7" fill="white" stroke="#5B5B5B"/>
<rect x="15.5" y="107.5" width="7" height="12" fill="white" stroke="#5B5B5B"/>
<rect x="15.5" y="100.5" width="7" height="7" fill="white" stroke="#5B5B5B"/>
<rect x="22.5" y="107.5" width="7" height="12" fill="white" stroke="#5B5B5B"/>
<rect x="22.5" y="100.5" width="7" height="7" fill="white" stroke="#5B5B5B"/>
<rect x="117.5" y="45.5" width="7" height="12" fill="white" stroke="#5B5B5B"/>
<rect x="117.5" y="38.5" width="7" height="7" fill="white" stroke="#5B5B5B"/>
<rect x="124.5" y="45.5" width="7" height="12" fill="white" stroke="#5B5B5B"/>
<rect x="124.5" y="38.5" width="7" height="7" fill="white" stroke="#5B5B5B"/>
<rect x="117.5" y="77.5" width="7" height="12" fill="white" stroke="#5B5B5B"/>
<rect x="117.5" y="70.5" width="7" height="7" fill="white" stroke="#5B5B5B"/>
<rect x="124.5" y="77.5" width="7" height="12" fill="white" stroke="#5B5B5B"/>
<rect x="124.5" y="70.5" width="7" height="7" fill="white" stroke="#5B5B5B"/>
<rect x="117.5" y="107.5" width="7" height="12" fill="white" stroke="#5B5B5B"/>
<rect x="117.5" y="100.5" width="7" height="7" fill="white" stroke="#5B5B5B"/>
<rect x="124.5" y="107.5" width="7" height="12" fill="white" stroke="#5B5B5B"/>
<rect x="124.5" y="100.5" width="7" height="7" fill="white" stroke="#5B5B5B"/>
<rect x="89.5" y="102.5" width="20" height="23" fill="white" stroke="#5B5B5B"/>
<rect x="94.5" y="107.5" width="10" height="18" fill="white" stroke="#5B5B5B"/>
<rect x="94.5" y="102.5" width="10" height="5" fill="white" stroke="#5B5B5B"/>
<rect x="96.5" y="107.5" width="6" height="8" fill="white" stroke="#5B5B5B"/>
<rect x="147.5" y="45.5" width="7" height="12" fill="white" stroke="#5B5B5B"/>
<rect x="147.5" y="38.5" width="7" height="7" fill="white" stroke="#5B5B5B"/>
<rect x="154.5" y="45.5" width="7" height="12" fill="white" stroke="#5B5B5B"/>
<rect x="154.5" y="38.5" width="7" height="7" fill="white" stroke="#5B5B5B"/>
<rect x="147.5" y="77.5" width="7" height="12" fill="white" stroke="#5B5B5B"/>
<rect x="147.5" y="70.5" width="7" height="7" fill="white" stroke="#5B5B5B"/>
<rect x="154.5" y="77.5" width="7" height="12" fill="white" stroke="#5B5B5B"/>
<rect x="154.5" y="70.5" width="7" height="7" fill="white" stroke="#5B5B5B"/>
<rect x="147.5" y="107.5" width="7" height="12" fill="white" stroke="#5B5B5B"/>
<rect x="147.5" y="100.5" width="7" height="7" fill="white" stroke="#5B5B5B"/>
<rect x="154.5" y="107.5" width="7" height="12" fill="white" stroke="#5B5B5B"/>
<rect x="154.5" y="100.5" width="7" height="7" fill="white" stroke="#5B5B5B"/>
<rect x="168.5" y="45.5" width="7" height="12" fill="white" stroke="#5B5B5B"/>
<rect x="168.5" y="38.5" width="7" height="7" fill="white" stroke="#5B5B5B"/>
<rect x="175.5" y="45.5" width="7" height="12" fill="white" stroke="#5B5B5B"/>
<rect x="175.5" y="38.5" width="7" height="7" fill="white" stroke="#5B5B5B"/>
<rect x="168.5" y="77.5" width="7" height="12" fill="white" stroke="#5B5B5B"/>
<rect x="168.5" y="70.5" width="7" height="7" fill="white" stroke="#5B5B5B"/>
<rect x="175.5" y="77.5" width="7" height="12" fill="white" stroke="#5B5B5B"/>
<rect x="175.5" y="70.5" width="7" height="7" fill="white" stroke="#5B5B5B"/>
<rect x="200.5" y="77.5" width="7" height="12" fill="white" stroke="#5B5B5B"/>
<rect x="200.5" y="70.5" width="7" height="7" fill="white" stroke="#5B5B5B"/>
<rect x="207.5" y="77.5" width="7" height="12" fill="white" stroke="#5B5B5B"/>
<rect x="207.5" y="70.5" width="7" height="7" fill="white" stroke="#5B5B5B"/>
<rect x="200.5" y="107.5" width="7" height="12" fill="white" stroke="#5B5B5B"/>
<rect x="200.5" y="100.5" width="7" height="7" fill="white" stroke="#5B5B5B"/>
<rect x="207.5" y="107.5" width="7" height="12" fill="white" stroke="#5B5B5B"/>
<rect x="207.5" y="100.5" width="7" height="7" fill="white" stroke="#5B5B5B"/>
<rect x="225.5" y="77.5" width="7" height="12" fill="white" stroke="#5B5B5B"/>
<rect x="225.5" y="70.5" width="7" height="7" fill="white" stroke="#5B5B5B"/>
<rect x="232.5" y="77.5" width="7" height="12" fill="white" stroke="#5B5B5B"/>
<rect x="232.5" y="70.5" width="7" height="7" fill="white" stroke="#5B5B5B"/>
<rect x="225.5" y="107.5" width="7" height="12" fill="white" stroke="#5B5B5B"/>
<rect x="225.5" y="100.5" width="7" height="7" fill="white" stroke="#5B5B5B"/>
<rect x="232.5" y="107.5" width="7" height="12" fill="white" stroke="#5B5B5B"/>
<rect x="232.5" y="100.5" width="7" height="7" fill="white" stroke="#5B5B5B"/>
<rect x="250.5" y="77.5" width="7" height="12" fill="white" stroke="#5B5B5B"/>
<rect x="250.5" y="70.5" width="7" height="7" fill="white" stroke="#5B5B5B"/>
<rect x="257.5" y="77.5" width="7" height="12" fill="white" stroke="#5B5B5B"/>
<rect x="257.5" y="70.5" width="7" height="7" fill="white" stroke="#5B5B5B"/>
<rect x="250.5" y="107.5" width="7" height="12" fill="white" stroke="#5B5B5B"/>
<rect x="250.5" y="100.5" width="7" height="7" fill="white" stroke="#5B5B5B"/>
<rect x="257.5" y="107.5" width="7" height="12" fill="white" stroke="#5B5B5B"/>
<rect x="257.5" y="100.5" width="7" height="7" fill="white" stroke="#5B5B5B"/>
<rect x="275.5" y="77.5" width="7" height="12" fill="white" stroke="#5B5B5B"/>
<rect x="275.5" y="70.5" width="7" height="7" fill="white" stroke="#5B5B5B"/>
<rect x="282.5" y="77.5" width="7" height="12" fill="white" stroke="#5B5B5B"/>
<rect x="282.5" y="70.5" width="7" height="7" fill="white" stroke="#5B5B5B"/>
<rect x="275.5" y="100.5" width="14" height="19" fill="white" stroke="#5B5B5B"/>
<rect x="300.5" y="77.5" width="7" height="12" fill="white" stroke="#5B5B5B"/>
<rect x="300.5" y="70.5" width="7" height="7" fill="white" stroke="#5B5B5B"/>
<rect x="307.5" y="77.5" width="7" height="12" fill="white" stroke="#5B5B5B"/>
<rect x="307.5" y="70.5" width="7" height="7" fill="white" stroke="#5B5B5B"/>
<rect x="300.5" y="107.5" width="7" height="12" fill="white" stroke="#5B5B5B"/>
<rect x="300.5" y="100.5" width="7" height="7" fill="white" stroke="#5B5B5B"/>
<rect x="307.5" y="107.5" width="7" height="12" fill="white" stroke="#5B5B5B"/>
<rect x="307.5" y="100.5" width="7" height="7" fill="white" stroke="#5B5B5B"/>
<path d="M83 95L99 90L115 95" stroke="#5B5B5B"/>
<path d="M86 125V94" stroke="#5B5B5B"/>
<path d="M113 125V94.5" stroke="#5B5B5B"/>
<path fill-rule="evenodd" clip-rule="evenodd" d="M241.5 125.5V94H296.5V125.5H293.5H256V96H244V125.5H241.5ZM293 96H259V118H293V96Z" fill="#5B5B5B"/>
<path d="M241.5 94V93.5H241V94H241.5ZM241.5 125.5H241V126H241.5V125.5ZM296.5 94H297V93.5H296.5V94ZM296.5 125.5V126H297V125.5H296.5ZM256 125.5H255.5V126H256V125.5ZM256 96H256.5V95.5H256V96ZM244 96V95.5H243.5V96H244ZM244 125.5V126H244.5V125.5H244ZM259 96V95.5H258.5V96H259ZM293 96H293.5V95.5H293V96ZM259 118H258.5V118.5H259V118ZM293 118V118.5H293.5V118H293ZM241 94V125.5H242V94H241ZM296.5 93.5H241.5V94.5H296.5V93.5ZM297 125.5V94H296V125.5H297ZM293.5 126H296.5V125H293.5V126ZM256 126H293.5V125H256V126ZM255.5 96V125.5H256.5V96H255.5ZM244 96.5H256V95.5H244V96.5ZM244.5 125.5V96H243.5V125.5H244.5ZM241.5 126H244V125H241.5V126ZM259 96.5H293V95.5H259V96.5ZM259.5 118V96H258.5V118H259.5ZM293 117.5H259V118.5H293V117.5ZM292.5 96V118H293.5V96H292.5Z" fill="#5B5B5B"/>
</g>
<defs>
<filter id="filter0_d_1203_842" x="0" y="0.5" width="325" height="152.5" filterUnits="userSpaceOnUse" color-interpolation-filters="sRGB">
<feFlood flood-opacity="0" result="BackgroundImageFix"/>
<feColorMatrix in="SourceAlpha" type="matrix" values="0 0 0 0 0 0 0 0 0 0 0 0 0 0 0 0 0 0 127 0" result="hardAlpha"/>
<feOffset dy="4"/>
<feGaussianBlur stdDeviation="2"/>
<feComposite in2="hardAlpha" operator="out"/>
<feColorMatrix type="matrix" values="0 0 0 0 0 0 0 0 0 0 0 0 0 0 0 0 0 0 0.25 0"/>
<feBlend mode="normal" in2="BackgroundImageFix" result="effect1_dropShadow_1203_842"/>
<feBlend mode="normal" in="SourceGraphic" in2="effect1_dropShadow_1203_842" result="shape"/>
</filter>
</defs>
</svg>
