<svg width="566" height="170" viewBox="0 0 566 170" fill="none" xmlns="http://www.w3.org/2000/svg">
<path d="M499.312 158.766V134.578C499.312 132.766 498.984 131.203 498.328 129.891C497.672 128.578 496.672 127.562 495.328 126.844C494.016 126.125 492.359 125.766 490.359 125.766C488.516 125.766 486.922 126.078 485.578 126.703C484.234 127.328 483.188 128.172 482.438 129.234C481.688 130.297 481.312 131.5 481.312 132.844H470.062C470.062 130.844 470.547 128.906 471.516 127.031C472.484 125.156 473.891 123.484 475.734 122.016C477.578 120.547 479.781 119.391 482.344 118.547C484.906 117.703 487.781 117.281 490.969 117.281C494.781 117.281 498.156 117.922 501.094 119.203C504.062 120.484 506.391 122.422 508.078 125.016C509.797 127.578 510.656 130.797 510.656 134.672V157.219C510.656 159.531 510.812 161.609 511.125 163.453C511.469 165.266 511.953 166.844 512.578 168.188V168.938H501C500.469 167.719 500.047 166.172 499.734 164.297C499.453 162.391 499.312 160.547 499.312 158.766ZM500.953 138.094L501.047 145.078H492.938C490.844 145.078 489 145.281 487.406 145.688C485.812 146.062 484.484 146.625 483.422 147.375C482.359 148.125 481.562 149.031 481.031 150.094C480.5 151.156 480.234 152.359 480.234 153.703C480.234 155.047 480.547 156.281 481.172 157.406C481.797 158.5 482.703 159.359 483.891 159.984C485.109 160.609 486.578 160.922 488.297 160.922C490.609 160.922 492.625 160.453 494.344 159.516C496.094 158.547 497.469 157.375 498.469 156C499.469 154.594 500 153.266 500.062 152.016L503.719 157.031C503.344 158.312 502.703 159.688 501.797 161.156C500.891 162.625 499.703 164.031 498.234 165.375C496.797 166.688 495.062 167.766 493.031 168.609C491.031 169.453 488.719 169.875 486.094 169.875C482.781 169.875 479.828 169.219 477.234 167.906C474.641 166.562 472.609 164.766 471.141 162.516C469.672 160.234 468.938 157.656 468.938 154.781C468.938 152.094 469.438 149.719 470.438 147.656C471.469 145.562 472.969 143.812 474.938 142.406C476.938 141 479.375 139.938 482.25 139.219C485.125 138.469 488.406 138.094 492.094 138.094H500.953Z" fill="#242424"/>
<path d="M557.109 139.406V148.312H530.859V139.406H557.109ZM534.141 118.219V168.938H522.844V118.219H534.141ZM565.266 118.219V168.938H553.969V118.219H565.266Z" fill="#242424"/>
<path fill-rule="evenodd" clip-rule="evenodd" d="M346 22H565V73H346V22Z" fill="#FFD200"/>
<rect x="85" y="15" width="261" height="65" fill="white"/>
<path d="M359.531 144.141V143.062C359.531 139.406 360.062 136.016 361.125 132.891C362.188 129.734 363.719 127 365.719 124.688C367.75 122.344 370.219 120.531 373.125 119.25C376.062 117.938 379.375 117.281 383.062 117.281C386.781 117.281 390.094 117.938 393 119.25C395.938 120.531 398.422 122.344 400.453 124.688C402.484 127 404.031 129.734 405.094 132.891C406.156 136.016 406.688 139.406 406.688 143.062V144.141C406.688 147.797 406.156 151.188 405.094 154.312C404.031 157.438 402.484 160.172 400.453 162.516C398.422 164.828 395.953 166.641 393.047 167.953C390.141 169.234 386.844 169.875 383.156 169.875C379.438 169.875 376.109 169.234 373.172 167.953C370.266 166.641 367.797 164.828 365.766 162.516C363.734 160.172 362.188 157.438 361.125 154.312C360.062 151.188 359.531 147.797 359.531 144.141ZM370.828 143.062V144.141C370.828 146.422 371.062 148.578 371.531 150.609C372 152.641 372.734 154.422 373.734 155.953C374.734 157.484 376.016 158.688 377.578 159.562C379.141 160.438 381 160.875 383.156 160.875C385.25 160.875 387.062 160.438 388.594 159.562C390.156 158.688 391.438 157.484 392.438 155.953C393.438 154.422 394.172 152.641 394.641 150.609C395.141 148.578 395.391 146.422 395.391 144.141V143.062C395.391 140.812 395.141 138.688 394.641 136.688C394.172 134.656 393.422 132.859 392.391 131.297C391.391 129.734 390.109 128.516 388.547 127.641C387.016 126.734 385.188 126.281 383.062 126.281C380.938 126.281 379.094 126.734 377.531 127.641C376 128.516 374.734 129.734 373.734 131.297C372.734 132.859 372 134.656 371.531 136.688C371.062 138.688 370.828 140.812 370.828 143.062Z" fill="#242424"/>
<path d="M440.812 147.234H424.594L424.5 139.266H437.812C440 139.266 441.797 139.047 443.203 138.609C444.641 138.172 445.703 137.516 446.391 136.641C447.078 135.734 447.422 134.641 447.422 133.359C447.422 132.297 447.219 131.375 446.812 130.594C446.406 129.781 445.781 129.125 444.938 128.625C444.125 128.094 443.094 127.719 441.844 127.5C440.625 127.25 439.203 127.125 437.578 127.125H428.344V168.938H417.047V118.219H437.578C440.828 118.219 443.75 118.5 446.344 119.062C448.969 119.625 451.203 120.484 453.047 121.641C454.891 122.797 456.297 124.266 457.266 126.047C458.266 127.797 458.766 129.859 458.766 132.234C458.766 133.797 458.422 135.266 457.734 136.641C457.078 138.016 456.094 139.234 454.781 140.297C453.469 141.359 451.859 142.234 449.953 142.922C448.047 143.578 445.859 143.984 443.391 144.141L440.812 147.234ZM440.812 168.938H421.312L425.812 160.031H440.812C442.812 160.031 444.469 159.781 445.781 159.281C447.094 158.781 448.062 158.062 448.688 157.125C449.344 156.156 449.672 155.016 449.672 153.703C449.672 152.359 449.359 151.203 448.734 150.234C448.109 149.266 447.141 148.531 445.828 148.031C444.547 147.5 442.875 147.234 440.812 147.234H427.922L428.016 139.266H443.344L446.578 142.359C449.797 142.578 452.469 143.266 454.594 144.422C456.719 145.578 458.312 147.031 459.375 148.781C460.438 150.531 460.969 152.438 460.969 154.5C460.969 156.875 460.516 158.969 459.609 160.781C458.734 162.594 457.422 164.109 455.672 165.328C453.953 166.516 451.844 167.422 449.344 168.047C446.844 168.641 444 168.938 440.812 168.938Z" fill="#242424"/>
<path d="M269.391 152.438L289.312 118.219H300.609V168.938H289.312V134.672L269.391 168.938H258.094V118.219H269.391V152.438Z" fill="#242424"/>
<path d="M333.562 144.703H323.812V138.984H331.688C333.688 138.984 335.281 138.719 336.469 138.188C337.688 137.656 338.547 136.922 339.047 135.984C339.578 135.016 339.844 133.891 339.844 132.609C339.844 131.484 339.578 130.422 339.047 129.422C338.547 128.391 337.688 127.547 336.469 126.891C335.25 126.234 333.594 125.906 331.5 125.906C329.781 125.906 328.234 126.188 326.859 126.75C325.516 127.312 324.453 128.094 323.672 129.094C322.891 130.094 322.5 131.25 322.5 132.562H311.203C311.203 129.406 312.094 126.688 313.875 124.406C315.688 122.125 318.109 120.375 321.141 119.156C324.172 117.938 327.5 117.328 331.125 117.328C334.219 117.328 337 117.656 339.469 118.312C341.938 118.938 344.031 119.875 345.75 121.125C347.5 122.344 348.828 123.875 349.734 125.719C350.672 127.531 351.141 129.641 351.141 132.047C351.141 133.766 350.734 135.391 349.922 136.922C349.109 138.453 347.938 139.812 346.406 141C344.875 142.156 343.016 143.062 340.828 143.719C338.672 144.375 336.25 144.703 333.562 144.703ZM323.812 141.422H333.562C336.562 141.422 339.219 141.719 341.531 142.312C343.844 142.875 345.781 143.719 347.344 144.844C348.906 145.969 350.078 147.359 350.859 149.016C351.672 150.641 352.078 152.516 352.078 154.641C352.078 157.016 351.562 159.156 350.531 161.062C349.531 162.938 348.094 164.531 346.219 165.844C344.375 167.156 342.172 168.156 339.609 168.844C337.047 169.531 334.219 169.875 331.125 169.875C327.75 169.875 324.469 169.312 321.281 168.188C318.125 167.062 315.516 165.328 313.453 162.984C311.422 160.609 310.406 157.594 310.406 153.938H321.703C321.703 155.219 322.094 156.422 322.875 157.547C323.656 158.672 324.781 159.594 326.25 160.312C327.719 161 329.484 161.344 331.547 161.344C333.672 161.344 335.406 161.016 336.75 160.359C338.094 159.672 339.094 158.781 339.75 157.688C340.406 156.562 340.734 155.375 340.734 154.125C340.734 152.438 340.406 151.078 339.75 150.047C339.094 149.016 338.094 148.266 336.75 147.797C335.406 147.297 333.719 147.047 331.688 147.047H323.812V141.422Z" fill="#242424"/>
<path d="M179.625 158.766V134.578C179.625 132.766 179.297 131.203 178.641 129.891C177.984 128.578 176.984 127.562 175.641 126.844C174.328 126.125 172.672 125.766 170.672 125.766C168.828 125.766 167.234 126.078 165.891 126.703C164.547 127.328 163.5 128.172 162.75 129.234C162 130.297 161.625 131.5 161.625 132.844H150.375C150.375 130.844 150.859 128.906 151.828 127.031C152.797 125.156 154.203 123.484 156.047 122.016C157.891 120.547 160.094 119.391 162.656 118.547C165.219 117.703 168.094 117.281 171.281 117.281C175.094 117.281 178.469 117.922 181.406 119.203C184.375 120.484 186.703 122.422 188.391 125.016C190.109 127.578 190.969 130.797 190.969 134.672V157.219C190.969 159.531 191.125 161.609 191.438 163.453C191.781 165.266 192.266 166.844 192.891 168.188V168.938H181.312C180.781 167.719 180.359 166.172 180.047 164.297C179.766 162.391 179.625 160.547 179.625 158.766ZM181.266 138.094L181.359 145.078H173.25C171.156 145.078 169.312 145.281 167.719 145.688C166.125 146.062 164.797 146.625 163.734 147.375C162.672 148.125 161.875 149.031 161.344 150.094C160.812 151.156 160.547 152.359 160.547 153.703C160.547 155.047 160.859 156.281 161.484 157.406C162.109 158.5 163.016 159.359 164.203 159.984C165.422 160.609 166.891 160.922 168.609 160.922C170.922 160.922 172.938 160.453 174.656 159.516C176.406 158.547 177.781 157.375 178.781 156C179.781 154.594 180.312 153.266 180.375 152.016L184.031 157.031C183.656 158.312 183.016 159.688 182.109 161.156C181.203 162.625 180.016 164.031 178.547 165.375C177.109 166.688 175.375 167.766 173.344 168.609C171.344 169.453 169.031 169.875 166.406 169.875C163.094 169.875 160.141 169.219 157.547 167.906C154.953 166.562 152.922 164.766 151.453 162.516C149.984 160.234 149.25 157.656 149.25 154.781C149.25 152.094 149.75 149.719 150.75 147.656C151.781 145.562 153.281 143.812 155.25 142.406C157.25 141 159.688 139.938 162.562 139.219C165.438 138.469 168.719 138.094 172.406 138.094H181.266Z" fill="#242424"/>
<path d="M236.859 118.219V127.219H212.109V118.219H236.859ZM245.719 118.219V168.938H234.422V118.219H245.719ZM209.344 118.219H220.5L219.141 143.297C218.953 147.016 218.578 150.297 218.016 153.141C217.484 155.953 216.766 158.375 215.859 160.406C214.953 162.406 213.844 164.031 212.531 165.281C211.219 166.531 209.688 167.453 207.938 168.047C206.188 168.641 204.219 168.938 202.031 168.938H198.516L198.469 159.656L200.25 159.516C201.406 159.422 202.406 159.125 203.25 158.625C204.094 158.094 204.812 157.344 205.406 156.375C206.031 155.406 206.531 154.156 206.906 152.625C207.312 151.094 207.625 149.281 207.844 147.188C208.094 145.094 208.281 142.656 208.406 139.875L209.344 118.219Z" fill="#242424"/>
<path d="M38.3906 118.219V127.219H13.6406V118.219H38.3906ZM47.25 118.219V168.938H35.9531V118.219H47.25ZM10.875 118.219H22.0312L20.6719 143.297C20.4844 147.016 20.1094 150.297 19.5469 153.141C19.0156 155.953 18.2969 158.375 17.3906 160.406C16.4844 162.406 15.375 164.031 14.0625 165.281C12.75 166.531 11.2188 167.453 9.46875 168.047C7.71875 168.641 5.75 168.938 3.5625 168.938H0.046875L0 159.656L1.78125 159.516C2.9375 159.422 3.9375 159.125 4.78125 158.625C5.625 158.094 6.34375 157.344 6.9375 156.375C7.5625 155.406 8.0625 154.156 8.4375 152.625C8.84375 151.094 9.15625 149.281 9.375 147.188C9.625 145.094 9.8125 142.656 9.9375 139.875L10.875 118.219Z" fill="#242424"/>
<path d="M81.6094 169.875C77.8594 169.875 74.4688 169.266 71.4375 168.047C68.4375 166.797 65.875 165.062 63.75 162.844C61.6562 160.625 60.0469 158.016 58.9219 155.016C57.7969 152.016 57.2344 148.781 57.2344 145.312V143.438C57.2344 139.469 57.8125 135.875 58.9688 132.656C60.125 129.438 61.7344 126.688 63.7969 124.406C65.8594 122.094 68.2969 120.328 71.1094 119.109C73.9219 117.891 76.9688 117.281 80.25 117.281C83.875 117.281 87.0469 117.891 89.7656 119.109C92.4844 120.328 94.7344 122.047 96.5156 124.266C98.3281 126.453 99.6719 129.062 100.547 132.094C101.453 135.125 101.906 138.469 101.906 142.125V146.953H62.7188V138.844H90.75V137.953C90.6875 135.922 90.2812 134.016 89.5312 132.234C88.8125 130.453 87.7031 129.016 86.2031 127.922C84.7031 126.828 82.7031 126.281 80.2031 126.281C78.3281 126.281 76.6562 126.688 75.1875 127.5C73.75 128.281 72.5469 129.422 71.5781 130.922C70.6094 132.422 69.8594 134.234 69.3281 136.359C68.8281 138.453 68.5781 140.812 68.5781 143.438V145.312C68.5781 147.531 68.875 149.594 69.4688 151.5C70.0938 153.375 71 155.016 72.1875 156.422C73.375 157.828 74.8125 158.938 76.5 159.75C78.1875 160.531 80.1094 160.922 82.2656 160.922C84.9844 160.922 87.4062 160.375 89.5312 159.281C91.6562 158.188 93.5 156.641 95.0625 154.641L101.016 160.406C99.9219 162 98.5 163.531 96.75 165C95 166.438 92.8594 167.609 90.3281 168.516C87.8281 169.422 84.9219 169.875 81.6094 169.875Z" fill="#242424"/>
<path d="M144.469 118.219V127.219H122.344V168.938H111.047V118.219H144.469Z" fill="#242424"/>
<path d="M249.75 22.2188V72.9375H238.453V22.2188H249.75ZM282.844 22.2188L260.016 52.7344H247.125L245.625 42.5156H255.047L268.734 22.2188H282.844ZM269.625 72.9375L254.344 50.8125L263.25 44.3906L284.484 72.9375H269.625Z" fill="#242424"/>
<path d="M314.156 22.2188V72.9375H302.812V22.2188H314.156ZM330.797 22.2188V31.125H286.453V22.2188H330.797Z" fill="#242424"/>
<path d="M144.656 22.2188V31.2188H120.188V22.2188H144.656ZM142.5 38.3438H157.406C161.812 38.3438 165.531 39.0781 168.562 40.5469C171.625 42.0156 173.953 44.0625 175.547 46.6875C177.172 49.2812 177.984 52.25 177.984 55.5938C177.984 58.0625 177.531 60.3594 176.625 62.4844C175.719 64.5781 174.391 66.4062 172.641 67.9688C170.891 69.5312 168.734 70.75 166.172 71.625C163.609 72.5 160.688 72.9375 157.406 72.9375H134.953V22.2188H146.297V63.9844H157.406C159.656 63.9844 161.453 63.5938 162.797 62.8125C164.141 62.0312 165.109 61.0156 165.703 59.7656C166.328 58.5156 166.641 57.1875 166.641 55.7812C166.641 54.3438 166.328 52.9844 165.703 51.7031C165.109 50.4219 164.141 49.375 162.797 48.5625C161.453 47.75 159.656 47.3438 157.406 47.3438H142.5V38.3438Z" fill="#242424"/>
<path d="M208.453 73.875C204.703 73.875 201.312 73.2656 198.281 72.0469C195.281 70.7969 192.719 69.0625 190.594 66.8438C188.5 64.625 186.891 62.0156 185.766 59.0156C184.641 56.0156 184.078 52.7812 184.078 49.3125V47.4375C184.078 43.4688 184.656 39.875 185.812 36.6562C186.969 33.4375 188.578 30.6875 190.641 28.4062C192.703 26.0938 195.141 24.3281 197.953 23.1094C200.766 21.8906 203.812 21.2812 207.094 21.2812C210.719 21.2812 213.891 21.8906 216.609 23.1094C219.328 24.3281 221.578 26.0469 223.359 28.2656C225.172 30.4531 226.516 33.0625 227.391 36.0938C228.297 39.125 228.75 42.4688 228.75 46.125V50.9531H189.562V42.8438H217.594V41.9531C217.531 39.9219 217.125 38.0156 216.375 36.2344C215.656 34.4531 214.547 33.0156 213.047 31.9219C211.547 30.8281 209.547 30.2812 207.047 30.2812C205.172 30.2812 203.5 30.6875 202.031 31.5C200.594 32.2812 199.391 33.4219 198.422 34.9219C197.453 36.4219 196.703 38.2344 196.172 40.3594C195.672 42.4531 195.422 44.8125 195.422 47.4375V49.3125C195.422 51.5312 195.719 53.5938 196.312 55.5C196.938 57.375 197.844 59.0156 199.031 60.4219C200.219 61.8281 201.656 62.9375 203.344 63.75C205.031 64.5312 206.953 64.9219 209.109 64.9219C211.828 64.9219 214.25 64.375 216.375 63.2812C218.5 62.1875 220.344 60.6406 221.906 58.6406L227.859 64.4062C226.766 66 225.344 67.5312 223.594 69C221.844 70.4375 219.703 71.6094 217.172 72.5156C214.672 73.4219 211.766 73.875 208.453 73.875Z" fill="#242424"/>
<path d="M59.8594 36.9375V40.6875C59.8594 45.8438 59.1875 50.4688 57.8438 54.5625C56.5 58.6562 54.5781 62.1406 52.0781 65.0156C49.6094 67.8906 46.6406 70.0938 43.1719 71.625C39.7031 73.125 35.8594 73.875 31.6406 73.875C27.4531 73.875 23.625 73.125 20.1562 71.625C16.7188 70.0938 13.7344 67.8906 11.2031 65.0156C8.67188 62.1406 6.70312 58.6562 5.29688 54.5625C3.92188 50.4688 3.23438 45.8438 3.23438 40.6875V36.9375C3.23438 31.7812 3.92188 27.1719 5.29688 23.1094C6.67188 19.0156 8.60938 15.5312 11.1094 12.6562C13.6406 9.75 16.625 7.54688 20.0625 6.04688C23.5312 4.51562 27.3594 3.75 31.5469 3.75C35.7656 3.75 39.6094 4.51562 43.0781 6.04688C46.5469 7.54688 49.5312 9.75 52.0312 12.6562C54.5312 15.5312 56.4531 19.0156 57.7969 23.1094C59.1719 27.1719 59.8594 31.7812 59.8594 36.9375ZM48.0938 40.6875V36.8438C48.0938 33.0312 47.7188 29.6719 46.9688 26.7656C46.25 23.8281 45.1719 21.375 43.7344 19.4062C42.3281 17.4062 40.5938 15.9062 38.5312 14.9062C36.4688 13.875 34.1406 13.3594 31.5469 13.3594C28.9531 13.3594 26.6406 13.875 24.6094 14.9062C22.5781 15.9062 20.8438 17.4062 19.4062 19.4062C18 21.375 16.9219 23.8281 16.1719 26.7656C15.4219 29.6719 15.0469 33.0312 15.0469 36.8438V40.6875C15.0469 44.5 15.4219 47.875 16.1719 50.8125C16.9219 53.75 18.0156 56.2344 19.4531 58.2656C20.9219 60.2656 22.6719 61.7812 24.7031 62.8125C26.7344 63.8125 29.0469 64.3125 31.6406 64.3125C34.2656 64.3125 36.5938 63.8125 38.625 62.8125C40.6562 61.7812 42.375 60.2656 43.7812 58.2656C45.1875 56.2344 46.25 53.75 46.9688 50.8125C47.7188 47.875 48.0938 44.5 48.0938 40.6875Z" fill="#242424"/>
<path d="M102.328 0H111.469C111.469 2.78125 111.078 5.07812 110.297 6.89062C109.547 8.67188 108.422 10.1406 106.922 11.2969C105.453 12.4219 103.625 13.3281 101.438 14.0156C99.2812 14.7031 96.7812 15.3281 93.9375 15.8906C91.3125 16.4531 88.9375 17.3438 86.8125 18.5625C84.7188 19.75 82.9531 21.4219 81.5156 23.5781C80.1094 25.7031 79.0938 28.4375 78.4688 31.7812C77.8438 35.125 77.6562 39.2031 77.9062 44.0156V47.2031L68.9531 48V44.8125C68.9531 38.8438 69.5 33.6406 70.5938 29.2031C71.6875 24.7656 73.2344 21.0312 75.2344 18C77.2656 14.9375 79.6719 12.5 82.4531 10.6875C85.2656 8.875 88.3906 7.625 91.8281 6.9375C94.1719 6.4375 96.125 5.9375 97.6875 5.4375C99.25 4.90625 100.406 4.23438 101.156 3.42188C101.938 2.57812 102.328 1.4375 102.328 0ZM94.4062 25.0781C97.7812 25.0781 100.781 25.6719 103.406 26.8594C106.031 28.0156 108.25 29.6406 110.062 31.7344C111.875 33.8281 113.25 36.2969 114.188 39.1406C115.156 41.9844 115.641 45.0781 115.641 48.4219V49.4531C115.641 52.9531 115.125 56.1875 114.094 59.1562C113.062 62.125 111.547 64.7188 109.547 66.9375C107.547 69.125 105.094 70.8438 102.188 72.0938C99.3125 73.3125 96.0156 73.9219 92.2969 73.9219C88.6094 73.9219 85.3125 73.2812 82.4062 72C79.5 70.7188 77.0469 68.9375 75.0469 66.6562C73.0469 64.3438 71.5312 61.6406 70.5 58.5469C69.4688 55.4531 68.9531 52.0781 68.9531 48.4219V47.3906C68.9219 46.7344 69.0938 46.0938 69.4688 45.4688C69.875 44.8438 70.3594 44.1719 70.9219 43.4531C71.4844 42.7344 71.9844 41.9062 72.4219 40.9688C73.9844 37.8125 75.8281 35.0469 77.9531 32.6719C80.0781 30.2969 82.5 28.4375 85.2188 27.0938C87.9688 25.75 91.0312 25.0781 94.4062 25.0781ZM92.2031 34.0312C89.3906 34.0312 87.0938 34.7031 85.3125 36.0469C83.5625 37.3594 82.2656 39.1094 81.4219 41.2969C80.6094 43.4844 80.2031 45.8594 80.2031 48.4219V49.4531C80.2031 51.5469 80.4375 53.5312 80.9062 55.4062C81.375 57.2812 82.0781 58.9375 83.0156 60.375C83.9844 61.7812 85.2344 62.8906 86.7656 63.7031C88.3281 64.5156 90.1719 64.9219 92.2969 64.9219C94.4531 64.9219 96.2812 64.5156 97.7812 63.7031C99.3125 62.8906 100.547 61.7812 101.484 60.375C102.453 58.9375 103.156 57.2812 103.594 55.4062C104.062 53.5312 104.297 51.5469 104.297 49.4531V48.4219C104.297 46.4844 104.062 44.6562 103.594 42.9375C103.156 41.2188 102.453 39.7031 101.484 38.3906C100.516 37.0469 99.2656 35.9844 97.7344 35.2031C96.2031 34.4219 94.3594 34.0312 92.2031 34.0312Z" fill="#242424"/>
</svg>
