<svg width="330" height="110" viewBox="0 0 330 110" fill="none" xmlns="http://www.w3.org/2000/svg">
<path d="M32.1557 43.4709H25.149V25.2136H7.04438V43.4709H0.00919984V2.26102H7.04438V19.4169H25.149V2.26102H32.1557V43.4709ZM53.0898 44.0502C48.8074 44.0502 45.3332 42.6791 42.6749 39.9352C40.0168 37.182 38.6777 33.5305 38.6777 28.9612V28.1114C38.6777 25.0588 39.2568 22.325 40.4248 19.9197C41.5833 17.5141 43.2067 15.6403 45.3049 14.2974C47.3931 12.9542 49.7285 12.2882 52.3107 12.2882C56.4127 12.2882 59.5741 13.6211 61.8052 16.2869C64.0455 18.9534 65.1564 22.7204 65.1564 27.59V30.3713H45.4945C45.7037 32.8933 46.5294 34.8828 47.9814 36.3415C49.4435 37.8105 51.2759 38.5446 53.4787 38.5446C56.5741 38.5446 59.0993 37.2788 61.0454 34.7383L64.6908 38.274C63.4854 40.1097 61.8714 41.5291 59.8584 42.5337C57.8463 43.5483 55.596 44.0502 53.0898 44.0502V44.0502ZM52.2825 17.7941C50.4315 17.7941 48.931 18.461 47.7918 19.7843C46.6524 21.1078 45.9218 22.962 45.6083 25.3292H58.4825V24.8173C58.3395 22.5088 57.7317 20.7599 56.6784 19.5717C55.6245 18.3836 54.1532 17.7941 52.2825 17.7941ZM77.5843 43.4709H70.8248V0H77.5843V43.4709V43.4709ZM111.297 28.4781C111.297 33.2216 110.233 36.9991 108.126 39.8195C106.008 42.6401 103.17 44.0502 99.6102 44.0502C96.3158 44.0502 93.6667 42.9497 91.6822 40.7373V55.237H84.9228V12.8674H91.1599L91.4356 15.9687C93.4201 13.5147 96.1161 12.2882 99.5241 12.2882C103.199 12.2882 106.075 13.6789 108.163 16.4611C110.252 19.2434 111.297 23.1077 111.297 28.0537V28.4781V28.4781ZM104.566 27.8699C104.566 24.8173 103.968 22.3921 102.771 20.5957C101.575 18.8087 99.866 17.9098 97.635 17.9098C94.8721 17.9098 92.8885 19.069 91.6822 21.3877V34.9799C92.9069 37.3564 94.9105 38.5446 97.6917 38.5446C99.8467 38.5446 101.528 37.6651 102.742 35.8975C103.958 34.1292 104.566 31.4636 104.566 27.8699ZM49.834 98.3098C45.5515 98.3098 42.0774 96.9387 39.4191 94.1948C36.7608 91.4415 35.4216 87.7901 35.4216 83.2208V82.371C35.4216 79.3184 36.001 76.5845 37.1687 74.1792C38.3274 71.7737 39.9506 69.8999 42.0489 68.557C44.137 67.2138 46.4726 66.5478 49.0549 66.5478C53.1567 66.5478 56.3183 67.8807 58.5493 70.5463C60.7896 73.213 61.9006 76.98 61.9006 81.8495V84.6309H42.2387C42.4476 87.1528 43.2736 89.1424 44.7256 90.6011C46.1877 92.0701 48.02 92.8041 50.2226 92.8041C53.318 92.8041 55.8435 91.5383 57.7893 88.9979L61.4349 92.5336C60.2295 94.3692 58.6153 95.7887 56.6023 96.7933C54.5903 97.8079 52.3401 98.3098 49.834 98.3098V98.3098ZM49.0264 72.0536C47.1756 72.0536 45.6752 72.7205 44.5357 74.0439C43.3963 75.3674 42.6657 77.2216 42.3522 79.5887H55.2264V79.0769C55.0835 76.7683 54.4758 75.0194 53.4226 73.8313C52.3684 72.6431 50.8973 72.0536 49.0264 72.0536V72.0536ZM77.4036 89.0173L83.7652 67.127H90.7526L80.3186 97.7305H74.4512L63.9418 67.127H70.9478L77.4036 89.0173ZM107.861 98.3098C103.578 98.3098 100.104 96.9387 97.446 94.1948C94.7877 91.4415 93.4486 87.7901 93.4486 83.2208V82.371C93.4486 79.3184 94.0277 76.5845 95.1957 74.1792C96.3542 71.7737 97.9776 69.8999 100.076 68.557C102.164 67.2138 104.5 66.5478 107.082 66.5478C111.184 66.5478 114.345 67.8807 116.576 70.5463C118.817 73.213 119.928 76.98 119.928 81.8495V84.6309H100.265C100.475 87.1528 101.3 89.1424 102.753 90.6011C104.214 92.0701 106.047 92.8041 108.25 92.8041C111.345 92.8041 113.87 91.5383 115.816 88.9979L119.462 92.5336C118.257 94.3692 116.642 95.7887 114.629 96.7933C112.617 97.8079 110.367 98.3098 107.861 98.3098V98.3098ZM107.053 72.0536C105.203 72.0536 103.702 72.7205 102.563 74.0439C101.423 75.3674 100.693 77.2216 100.379 79.5887H113.253V79.0769C113.11 76.7683 112.503 75.0194 111.45 73.8313C110.395 72.6431 108.924 72.0536 107.053 72.0536V72.0536ZM132.355 97.7305H125.596V54.2596H132.355V97.7305ZM138.431 82.1491C138.431 79.144 139.019 76.4391 140.187 74.0338C141.355 71.6283 142.997 69.7835 145.115 68.4889C147.222 67.1944 149.653 66.5478 152.397 66.5478C156.46 66.5478 159.755 67.8807 162.289 70.5371C164.814 73.2037 166.182 76.7291 166.391 81.1248L166.419 82.7377C166.419 85.7615 165.849 88.4568 164.71 90.8333C163.561 93.2099 161.938 95.0546 159.811 96.3586C157.685 97.6625 155.235 98.3098 152.453 98.3098C148.209 98.3098 144.811 96.8707 142.257 93.9923C139.712 91.1132 138.431 87.278 138.431 82.4868V82.1491V82.1491ZM145.191 82.7283C145.191 85.8779 145.836 88.3412 147.118 90.1283C148.39 91.9153 150.175 92.8041 152.453 92.8041C154.732 92.8041 156.508 91.8957 157.779 90.089C159.052 88.2732 159.688 85.6261 159.688 82.1294C159.688 79.0385 159.033 76.5846 157.722 74.7685C156.422 72.9621 154.647 72.0536 152.397 72.0536C150.194 72.0536 148.438 72.9425 147.146 74.7295C145.845 76.5165 145.191 79.1737 145.191 82.7283ZM198.499 82.7377C198.499 87.4812 197.436 91.2587 195.328 94.0791C193.211 96.8997 190.373 98.3098 186.813 98.3098C183.518 98.3098 180.869 97.2093 178.885 94.9969V109.497H172.125V67.127H178.362L178.638 70.2282C180.623 67.7743 183.318 66.5478 186.727 66.5478C190.401 66.5478 193.278 67.9384 195.366 70.7207C197.455 73.503 198.499 77.367 198.499 82.3132V82.7377ZM191.768 82.1294C191.768 79.0768 191.17 76.6517 189.973 74.8553C188.777 73.0683 187.068 72.1694 184.837 72.1694C182.075 72.1694 180.091 73.3285 178.885 75.6473V89.2394C180.109 91.6157 182.113 92.8041 184.894 92.8041C187.049 92.8041 188.73 91.9247 189.945 90.157C191.16 88.3887 191.768 85.7231 191.768 82.1294V82.1294ZM210.566 67.127L210.756 70.315C212.873 67.8033 215.769 66.5478 219.433 66.5478C223.459 66.5478 226.212 68.112 227.702 71.2422C229.886 68.112 232.962 66.5478 236.931 66.5478C240.254 66.5478 242.722 67.4843 244.345 69.3488C245.969 71.2132 246.795 73.9664 246.832 77.6088V97.7305H240.073V77.8017C240.073 75.8599 239.655 74.4302 238.82 73.532C237.994 72.6235 236.608 72.1694 234.68 72.1694C233.143 72.1694 231.88 72.5851 230.911 73.4256C229.933 74.266 229.26 75.3674 228.87 76.7291L228.899 97.7305H222.139V77.5798C222.044 73.9758 220.231 72.1694 216.709 72.1694C214.003 72.1694 212.085 73.2904 210.955 75.5409V97.7305H204.196V67.127H210.566V67.127ZM267.046 98.3098C262.764 98.3098 259.289 96.9387 256.631 94.1948C253.973 91.4415 252.634 87.7901 252.634 83.2208V82.371C252.634 79.3184 253.213 76.5845 254.381 74.1792C255.539 71.7737 257.163 69.8999 259.261 68.557C261.349 67.2138 263.685 66.5478 266.267 66.5478C270.369 66.5478 273.53 67.8807 275.762 70.5463C278.002 73.213 279.113 76.98 279.113 81.8495V84.6309H259.451C259.66 87.1528 260.486 89.1424 261.938 90.6011C263.4 92.0701 265.232 92.8041 267.435 92.8041C270.53 92.8041 273.055 91.5383 275.002 88.9979L278.647 92.5336C277.442 94.3692 275.828 95.7887 273.815 96.7933C271.803 97.8079 269.552 98.3098 267.046 98.3098V98.3098ZM266.239 72.0536C264.388 72.0536 262.887 72.7205 261.748 74.0439C260.609 75.3674 259.878 77.2216 259.564 79.5887H272.439V79.0769C272.296 76.7683 271.688 75.0194 270.635 73.8313C269.581 72.6431 268.109 72.0536 266.239 72.0536V72.0536ZM290.619 67.127L290.809 70.6527C293.04 67.919 295.955 66.5478 299.572 66.5478C305.838 66.5478 309.028 70.1995 309.142 77.5024V97.7305H302.383V77.8885C302.383 75.9466 301.975 74.5076 301.149 73.5701C300.322 72.6338 298.974 72.1694 297.104 72.1694C294.369 72.1694 292.347 73.4256 291.009 75.9373V97.7305H284.249V67.127H290.619V67.127ZM324.522 59.7083V67.127H329.829V72.228H324.522V89.3168C324.522 90.4854 324.749 91.3352 325.206 91.8473C325.651 92.3694 326.468 92.6297 327.636 92.6297C328.414 92.6297 329.203 92.5336 330 92.3498V97.6625C328.462 98.0981 326.981 98.3098 325.547 98.3098C320.354 98.3098 317.762 95.3932 317.762 89.5677V72.228H312.807V67.127H317.762V59.7083H324.522V59.7083ZM0 97.7305V56.5206H11.962C15.5417 56.5206 18.7122 57.332 21.4841 58.9549C24.2571 60.5778 26.402 62.8769 27.9217 65.8615C29.4406 68.8366 30.1995 72.2568 30.1995 76.1108V78.1684C30.1995 82.081 29.4406 85.5106 27.9116 88.4764C26.3836 91.4415 24.2001 93.722 21.3706 95.3252C18.5417 96.9284 15.3043 97.7305 11.6486 97.7305H0V97.7305ZM7.03518 62.3162V91.9927H11.6203C15.3135 91.9927 18.143 90.8239 20.1174 88.4764C22.092 86.1289 23.0983 82.7571 23.1369 78.3716V76.0818C23.1369 71.6189 22.1871 68.209 20.2787 65.8521C18.3611 63.4952 15.5883 62.3162 11.962 62.3162H7.03518V62.3162Z" fill="white"/>
<path fill-rule="evenodd" clip-rule="evenodd" d="M125.355 14.3477H330.001V40.7779H125.355V14.3477Z" fill="#FFD200"/>
</svg>
