<svg width="129" height="43" viewBox="0 0 129 43" fill="none" xmlns="http://www.w3.org/2000/svg">
<path fill-rule="evenodd" clip-rule="evenodd" d="M49 5.94531H128.792V16.282H49V5.94531Z" fill="#FFD200"/>
<path d="M12.5392 17.1432H9.80691V10.0531H2.74698V17.1432H0.0035875V1.13976H2.74698V7.80205H9.80691V1.13976H12.5392V17.1432ZM20.7025 17.3681C19.0326 17.3681 17.6778 16.8357 16.6412 15.7701C15.6047 14.7009 15.0825 13.2829 15.0825 11.5085V11.1785C15.0825 9.99303 15.3083 8.93136 15.7637 7.99729C16.2155 7.06313 16.8486 6.33546 17.6668 5.81394C18.481 5.29233 19.3918 5.0337 20.3987 5.0337C21.9983 5.0337 23.2311 5.55132 24.1011 6.58656C24.9747 7.62206 25.4079 9.08493 25.4079 10.976V12.0561H17.7407C17.8223 13.0354 18.1443 13.8081 18.7105 14.3745C19.2806 14.945 19.9952 15.23 20.8541 15.23C22.0612 15.23 23.0459 14.7385 23.8048 13.7519L25.2263 15.125C24.7563 15.8378 24.1269 16.3891 23.3419 16.7792C22.5573 17.1732 21.6798 17.3681 20.7025 17.3681V17.3681ZM20.3877 7.17183C19.6659 7.17183 19.0808 7.43082 18.6365 7.94471C18.1922 8.4587 17.9073 9.17874 17.7851 10.098H22.8054V9.89922C22.7497 9.00274 22.5126 8.32357 22.1019 7.86217C21.6909 7.40076 21.1172 7.17183 20.3877 7.17183ZM30.2542 17.1432H27.6183V0.261719H30.2542V17.1432V17.1432ZM43.4004 11.3209C43.4004 13.1629 42.9857 14.6299 42.1639 15.7251C41.3382 16.8205 40.2315 17.3681 38.8433 17.3681C37.5586 17.3681 36.5256 16.9407 35.7517 16.0816V21.7124H33.1159V5.25864H35.548L35.6555 6.46296C36.4294 5.51 37.4807 5.0337 38.8097 5.0337C40.2427 5.0337 41.3643 5.57375 42.1786 6.65421C42.9932 7.73467 43.4004 9.23531 43.4004 11.156V11.3209V11.3209ZM40.7756 11.0847C40.7756 9.89922 40.5425 8.95743 40.0757 8.25982C39.6092 7.56585 38.943 7.21678 38.073 7.21678C36.9956 7.21678 36.2221 7.66693 35.7517 8.5674V13.8457C36.2293 14.7686 37.0106 15.23 38.0951 15.23C38.9355 15.23 39.591 14.8885 40.0647 14.2021C40.5387 13.5154 40.7756 12.4802 40.7756 11.0847ZM19.4329 38.4392C17.7629 38.4392 16.4082 37.9067 15.3716 36.8412C14.335 35.772 13.8127 34.354 13.8127 32.5795V32.2495C13.8127 31.0641 14.0387 30.0024 14.494 29.0684C14.9459 28.1342 15.5788 27.4065 16.3971 26.885C17.2113 26.3634 18.1221 26.1048 19.1291 26.1048C20.7286 26.1048 21.9615 26.6224 22.8315 27.6575C23.7051 28.6931 24.1383 30.156 24.1383 32.047V33.1271H16.4711C16.5526 34.1065 16.8746 34.8791 17.4408 35.4456C18.011 36.0161 18.7255 36.3011 19.5844 36.3011C20.7915 36.3011 21.7763 35.8096 22.5351 34.823L23.9567 36.196C23.4867 36.9089 22.8572 37.4601 22.0722 37.8503C21.2876 38.2443 20.4102 38.4392 19.4329 38.4392V38.4392ZM19.118 28.2429C18.3963 28.2429 17.8112 28.5019 17.3668 29.0158C16.9225 29.5298 16.6376 30.2498 16.5154 31.1691H21.5357V30.9703C21.4799 30.0738 21.243 29.3946 20.8323 28.9332C20.4212 28.4718 19.8475 28.2429 19.118 28.2429V28.2429ZM30.1837 34.8305L32.6645 26.3297H35.3892L31.3204 38.2142H29.0324L24.9343 26.3297H27.6663L30.1837 34.8305ZM42.0605 38.4392C40.3906 38.4392 39.0358 37.9067 37.9993 36.8412C36.9627 35.772 36.4405 34.354 36.4405 32.5795V32.2495C36.4405 31.0641 36.6663 30.0024 37.1218 29.0684C37.5735 28.1342 38.2066 27.4065 39.0248 26.885C39.8391 26.3634 40.7499 26.1048 41.7568 26.1048C43.3563 26.1048 44.5891 26.6224 45.4592 27.6575C46.3328 28.6931 46.766 30.156 46.766 32.047V33.1271H39.0988C39.1803 34.1065 39.5023 34.8791 40.0686 35.4456C40.6387 36.0161 41.3532 36.3011 42.2122 36.3011C43.4193 36.3011 44.404 35.8096 45.1629 34.823L46.5845 36.196C46.1144 36.9089 45.4849 37.4601 44.7 37.8503C43.9154 38.2443 43.0378 38.4392 42.0605 38.4392V38.4392ZM41.7457 28.2429C41.024 28.2429 40.4389 28.5019 39.9946 29.0158C39.5503 29.5298 39.2654 30.2498 39.1431 31.1691H44.1634V30.9703C44.1077 30.0738 43.8707 29.3946 43.46 28.9332C43.0489 28.4718 42.4752 28.2429 41.7457 28.2429V28.2429ZM51.6122 38.2142H48.9765V21.3328H51.6122V38.2142ZM53.9814 32.1633C53.9814 30.9964 54.2109 29.946 54.6663 29.0119C55.1217 28.0777 55.7622 27.3613 56.5879 26.8586C57.4097 26.3559 58.3576 26.1048 59.4275 26.1048C61.012 26.1048 62.2967 26.6224 63.285 27.654C64.2698 28.6895 64.803 30.0586 64.8846 31.7656L64.8956 32.3919C64.8956 33.5662 64.6733 34.6129 64.229 35.5358C63.7811 36.4587 63.1481 37.1751 62.3188 37.6814C61.4896 38.1878 60.5344 38.4392 59.4496 38.4392C57.7946 38.4392 56.4693 37.8803 55.4734 36.7625C54.4812 35.6445 53.9814 34.1551 53.9814 32.2945V32.1633V32.1633ZM56.6176 32.3883C56.6176 33.6114 56.8692 34.568 57.3689 35.262C57.8651 35.9559 58.561 36.3011 59.4496 36.3011C60.3382 36.3011 61.0305 35.9483 61.5264 35.2467C62.0225 34.5416 62.2706 33.5136 62.2706 32.1557C62.2706 30.9554 62.0154 30.0024 61.5042 29.2972C60.997 28.5957 60.305 28.2429 59.4275 28.2429C58.5685 28.2429 57.8836 28.5881 57.3801 29.282C56.8728 29.976 56.6176 31.0079 56.6176 32.3883ZM77.4052 32.3919C77.4052 34.234 76.9906 35.701 76.1688 36.7962C75.3431 37.8916 74.2364 38.4392 72.848 38.4392C71.5635 38.4392 70.5304 38.0118 69.7566 37.1526V42.7834H67.1207V26.3297H69.5528L69.6604 27.534C70.4343 26.5811 71.4855 26.1048 72.8145 26.1048C74.2475 26.1048 75.3692 26.6448 76.1835 27.7253C76.9981 28.8057 77.4052 30.3063 77.4052 32.2271V32.3919ZM74.7805 32.1557C74.7805 30.9703 74.5474 30.0285 74.0806 29.3309C73.6141 28.6369 72.9478 28.2878 72.0778 28.2878C71.0005 28.2878 70.2269 28.738 69.7566 29.6385V34.9168C70.2341 35.8396 71.0154 36.3011 72.1 36.3011C72.9404 36.3011 73.5959 35.9596 74.0695 35.2731C74.5434 34.5864 74.7805 33.5513 74.7805 32.1557V32.1557ZM82.1106 26.3297L82.1849 27.5677C83.0103 26.5923 84.1395 26.1048 85.5685 26.1048C87.1384 26.1048 88.2118 26.7122 88.7931 27.9278C89.6448 26.7122 90.8441 26.1048 92.3918 26.1048C93.6876 26.1048 94.6502 26.4685 95.2831 27.1925C95.9162 27.9165 96.2383 28.9857 96.2529 30.4002V38.2142H93.6171V30.4751C93.6171 29.721 93.4541 29.1658 93.1284 28.817C92.8064 28.4642 92.266 28.2878 91.5142 28.2878C90.9145 28.2878 90.4222 28.4493 90.0444 28.7757C89.6631 29.102 89.4003 29.5298 89.2484 30.0586L89.2595 38.2142H86.6237V30.3889C86.5865 28.9894 85.8795 28.2878 84.5062 28.2878C83.451 28.2878 82.7033 28.7232 82.2625 29.5971V38.2142H79.6267V26.3297H82.1106V26.3297ZM104.135 38.4392C102.465 38.4392 101.111 37.9067 100.074 36.8412C99.0374 35.772 98.5152 34.354 98.5152 32.5795V32.2495C98.5152 31.0641 98.741 30.0024 99.1965 29.0684C99.6482 28.1342 100.281 27.4065 101.1 26.885C101.914 26.3634 102.825 26.1048 103.831 26.1048C105.431 26.1048 106.664 26.6224 107.534 27.6575C108.408 28.6931 108.841 30.156 108.841 32.047V33.1271H101.173C101.255 34.1065 101.577 34.8791 102.143 35.4456C102.713 36.0161 103.428 36.3011 104.287 36.3011C105.494 36.3011 106.479 35.8096 107.238 34.823L108.659 36.196C108.189 36.9089 107.56 37.4601 106.775 37.8503C105.99 38.2443 105.113 38.4392 104.135 38.4392V38.4392ZM103.82 28.2429C103.099 28.2429 102.514 28.5019 102.069 29.0158C101.625 29.5298 101.34 30.2498 101.218 31.1691H106.238V30.9703C106.182 30.0738 105.945 29.3946 105.535 28.9332C105.124 28.4718 104.55 28.2429 103.82 28.2429V28.2429ZM113.328 26.3297L113.402 27.6989C114.272 26.6373 115.408 26.1048 116.819 26.1048C119.262 26.1048 120.506 27.5229 120.551 30.3589V38.2142H117.915V30.5088C117.915 29.7547 117.756 29.1959 117.434 28.8318C117.111 28.4682 116.586 28.2878 115.856 28.2878C114.79 28.2878 114.001 28.7757 113.48 29.7511V38.2142H110.844V26.3297H113.328V26.3297ZM126.548 23.4488V26.3297H128.618V28.3106H126.548V34.9469C126.548 35.4006 126.637 35.7307 126.815 35.9295C126.989 36.1323 127.307 36.2334 127.762 36.2334C128.066 36.2334 128.373 36.196 128.684 36.1247V38.1878C128.085 38.357 127.507 38.4392 126.948 38.4392C124.923 38.4392 123.912 37.3066 123.912 35.0443V28.3106H121.98V26.3297H123.912V23.4488H126.548V23.4488ZM0 38.2142V22.2108H4.66462C6.06051 22.2108 7.29689 22.5259 8.37777 23.1562C9.4591 23.7864 10.2955 24.6792 10.8881 25.8382C11.4804 26.9936 11.7764 28.3218 11.7764 29.8185V30.6175C11.7764 32.1369 11.4804 33.4687 10.8842 34.6205C10.2883 35.772 9.43687 36.6575 8.3335 37.2801C7.23039 37.9027 5.96794 38.2142 4.54239 38.2142H0V38.2142ZM2.74339 24.4615V35.986H4.53136C5.97152 35.986 7.0749 35.5321 7.84481 34.6205C8.61481 33.7088 9.00725 32.3995 9.0223 30.6964V29.8072C9.0223 28.0741 8.65191 26.7499 7.90772 25.8346C7.15995 24.9193 6.07871 24.4615 4.66462 24.4615H2.74339V24.4615Z" fill="white"/>
</svg>
