<svg width="25" height="20" viewBox="0 0 25 20" fill="none" xmlns="http://www.w3.org/2000/svg">
<path d="M6.07454 0.280079C10.3501 -0.0933593 14.6499 -0.0933596 18.9255 0.280078L20.9854 0.459996C22.3567 0.579769 23.5311 1.4016 24.1397 2.57716C24.2175 2.72755 24.1592 2.90963 24.0157 2.99886L15.4691 8.31483C13.6361 9.45495 11.3248 9.47887 9.46885 8.37692L0.865114 3.26869C0.726111 3.18616 0.662307 3.01627 0.724951 2.86675C1.28167 1.53799 2.5333 0.589378 4.01462 0.459997L6.07454 0.280079Z" fill="#FFD200"/>
<path d="M0.71795 5.5691C0.505219 5.4428 0.233784 5.57872 0.208986 5.82573C-0.137103 9.27334 -0.0533397 12.7536 0.460276 16.1854C0.731044 17.9946 2.2006 19.3816 4.01462 19.54L6.07454 19.7199C10.3501 20.0934 14.6499 20.0934 18.9255 19.7199L20.9854 19.54C22.7994 19.3816 24.269 17.9946 24.5397 16.1854C25.0683 12.6536 25.1416 9.07047 24.7597 5.52442C24.7329 5.27565 24.4568 5.14224 24.2451 5.27394L16.546 10.0627C14.0661 11.6052 10.939 11.6376 8.428 10.1467L0.71795 5.5691Z" fill="#FFD200"/>
</svg>
