<svg width="25" height="25" viewBox="0 0 25 25" fill="none" xmlns="http://www.w3.org/2000/svg">
<path d="M1.26471 9.96504C4.17413 16.3054 9.35109 21.3465 15.7874 24.0793L16.8192 24.5392C19.1796 25.5915 21.9545 24.7921 23.3942 22.6449L24.7425 20.6341C25.1808 19.9803 25.0474 19.0998 24.435 18.6054L19.8625 14.9144C19.1909 14.3723 18.2033 14.4986 17.6895 15.1923L16.275 17.1021C12.6454 15.3106 9.69851 12.3621 7.90807 8.73027L9.81679 7.31492C10.5101 6.80084 10.6363 5.81267 10.0945 5.14066L6.40551 0.565335C5.91158 -0.0472742 5.03179 -0.180902 4.37843 0.257452L2.35495 1.61503C0.195589 3.06378 -0.598991 5.86318 0.476983 8.23132L1.26353 9.96246L1.26471 9.96504Z" fill="#FFD200"/>
</svg>
