<svg width="23" height="29" viewBox="0 0 23 29" fill="none" xmlns="http://www.w3.org/2000/svg">
<path d="M6.97289 12.223C6.97289 9.64188 8.99973 7.54948 11.5 7.54948C14.0002 7.54948 16.027 9.64188 16.027 12.223C16.027 14.8041 14.0002 16.8965 11.5 16.8965C8.99973 16.8965 6.97289 14.8041 6.97289 12.223Z" fill="#FFD200"/>
<path fill-rule="evenodd" clip-rule="evenodd" d="M0.0409556 10.6087C0.519626 4.61374 5.37236 0 11.1992 0H11.8008C17.6276 0 22.4804 4.61374 22.959 10.6087C23.2168 13.8364 22.251 17.0414 20.2651 19.5486L13.5886 27.9778C12.5091 29.3407 10.4909 29.3407 9.41136 27.9778L2.73489 19.5486C0.749023 17.0414 -0.216765 13.8364 0.0409556 10.6087ZM11.5 5.39249C7.84578 5.39249 4.88347 8.4506 4.88347 12.223C4.88347 15.9953 7.84578 19.0535 11.5 19.0535C15.1542 19.0535 18.1165 15.9953 18.1165 12.223C18.1165 8.4506 15.1542 5.39249 11.5 5.39249Z" fill="#FFD200"/>
</svg>
