<svg width="25" height="22" viewBox="0 0 25 22" fill="none" xmlns="http://www.w3.org/2000/svg">
<path fill-rule="evenodd" clip-rule="evenodd" d="M21.1991 20.5574L21.1999 20.5552L21.2218 20.5003L25 1.42086V1.35889C25 0.883508 24.8246 0.468505 24.443 0.219574C24.109 0.00168383 23.7251 -0.0138337 23.4558 0.00663584C23.1711 0.0282843 22.9026 0.0994776 22.7167 0.158739C22.621 0.189227 22.541 0.218604 22.4838 0.240822C22.455 0.251973 22.4318 0.261436 22.4148 0.268486L22.3982 0.275499L1.33301 8.55253L1.32721 8.55461C1.31584 8.55876 1.30079 8.56438 1.28262 8.57147C1.24639 8.58559 1.19708 8.60581 1.13915 8.6321C1.02541 8.68374 0.868252 8.76342 0.708872 8.87274C0.43818 9.05841 -0.0772595 9.49798 0.00977661 10.1949C0.0818685 10.7721 0.479117 11.1387 0.746931 11.3285C0.890494 11.4302 1.02784 11.5036 1.12841 11.5516C1.17937 11.5759 1.22266 11.5945 1.2549 11.6076C1.27106 11.6142 1.28457 11.6195 1.29503 11.6235L1.30842 11.6285L1.31697 11.6316L5.00247 12.8744C4.99003 13.106 5.01296 13.3422 5.07428 13.5752L6.92038 20.5896C7.13927 21.4213 7.89045 22.0006 8.74916 22C9.51887 21.9994 10.2015 21.533 10.4915 20.8372L13.3738 17.7504L18.3238 21.5516L18.3942 21.5824C18.844 21.779 19.2642 21.8413 19.6483 21.7887C20.032 21.7362 20.3368 21.5751 20.5658 21.3916C20.7912 21.211 20.9456 21.0072 21.0427 20.8537C21.0921 20.7758 21.1289 20.7073 21.1544 20.6557C21.1672 20.6298 21.1773 20.6079 21.1849 20.5908L21.1943 20.5688L21.1977 20.5607L21.1991 20.5574ZM6.90163 13.0926C6.85967 12.9332 6.92554 12.7649 7.06449 12.6766L19.5652 4.72513C19.5652 4.72513 20.3004 4.27803 20.2741 4.72513C20.2741 4.72513 20.4054 4.80409 20.0114 5.17223C19.6377 5.52189 11.1018 13.7764 10.2381 14.6116C10.1883 14.6598 10.1585 14.7151 10.1409 14.7823L8.74773 20.1071L6.90163 13.0926Z" fill="#FFD200"/>
</svg>
