<svg width="25" height="25" viewBox="0 0 25 25" fill="none" xmlns="http://www.w3.org/2000/svg">
<path fill-rule="evenodd" clip-rule="evenodd" d="M0.125621 24.3615C0.0229176 24.7358 0.362456 25.0812 0.736589 24.9831L6.52008 23.4666C8.3457 24.4593 10.4011 24.9867 12.4938 24.9867H12.5C19.3864 24.9867 25 19.3838 25 12.4965C25 9.15833 23.7021 6.01865 21.3425 3.66077C18.9829 1.30301 15.8469 0 12.4999 0C5.61356 0 7.96203e-07 5.60292 7.96203e-07 12.4903C-0.000781747 14.6814 0.575288 16.834 1.67038 18.7323L0.125621 24.3615ZM8.53822 6.51506C8.76789 6.52124 9.02251 6.5337 9.26476 7.07355C9.4254 7.43294 9.69601 8.09454 9.91646 8.63348C10.088 9.05287 10.2291 9.39797 10.2645 9.46861C10.3452 9.62992 10.3949 9.81604 10.2893 10.0332C10.2769 10.0588 10.2651 10.0833 10.2538 10.1069C10.1691 10.2833 10.1089 10.4088 9.96646 10.573C9.9079 10.6405 9.84691 10.7145 9.78614 10.7882C9.67926 10.9179 9.57308 11.0467 9.48206 11.1377C9.32063 11.2989 9.15291 11.4728 9.33918 11.7954C9.52556 12.118 10.1776 13.179 11.1401 14.0353C12.1748 14.9602 13.0746 15.3499 13.5295 15.5469C13.6178 15.5852 13.6893 15.6162 13.7418 15.6424C14.0648 15.8037 14.2572 15.7789 14.4435 15.5617C14.6299 15.3445 15.2508 14.6185 15.4682 14.2959C15.6793 13.9733 15.8966 14.023 16.1947 14.1346C16.4927 14.2463 18.0824 15.0281 18.4052 15.1894C18.4691 15.2213 18.5288 15.25 18.5841 15.2766C18.8088 15.3848 18.9615 15.4583 19.0262 15.5679C19.1069 15.7044 19.1069 16.3497 18.8399 17.1067C18.5668 17.8637 17.2503 18.5897 16.6541 18.6455C16.5977 18.6508 16.5415 18.6576 16.4837 18.6647C15.9374 18.731 15.2439 18.8152 12.7731 17.8389C9.72859 16.6369 7.71887 13.6548 7.31255 13.0519C7.28047 13.0043 7.25839 12.9715 7.24657 12.9556L7.2397 12.9464C7.05485 12.6981 5.9239 11.1788 5.9239 9.61138C5.9239 8.1117 6.65977 7.33093 6.99542 6.9748C7.01669 6.95224 7.03635 6.93137 7.05412 6.91214C7.35213 6.58953 7.69994 6.50888 7.91724 6.50888C8.13465 6.50888 8.35195 6.50888 8.53822 6.51506Z" fill="#FFD200"/>
</svg>
