<svg width="187" height="174" viewBox="0 0 187 174" fill="none" xmlns="http://www.w3.org/2000/svg">
<path opacity="0.4" d="M184.276 127.82L158.029 66.9114C153.249 55.7615 146.122 49.4377 137.988 49.0217C129.937 48.6057 122.139 54.1806 116.185 64.8312L100.252 93.2051C96.8978 99.1961 92.118 102.774 86.9189 103.19C81.6359 103.689 76.353 100.943 72.0763 95.5349L70.2315 93.2051C64.2776 85.7996 56.8983 82.2217 49.3512 82.9705C41.8041 83.7194 35.3471 88.8783 31.0704 97.2823L16.5633 125.989C11.3641 136.39 11.8673 148.455 17.9888 158.274C24.1103 168.092 34.7601 174 46.4162 174H153.417C164.654 174 175.136 168.425 181.341 159.106C187.714 149.786 188.721 138.054 184.276 127.82Z" fill="#D8D8D8"/>
<path d="M58 57C73.464 57 86 44.2401 86 28.5C86 12.7599 73.464 0 58 0C42.536 0 30 12.7599 30 28.5C30 44.2401 42.536 57 58 57Z" fill="#F4F4F4"/>
<path d="M11.4082 108.633H5.16797L5.13281 106.031H10.2305C11.2383 106.031 12.0762 105.932 12.7441 105.732C13.4238 105.533 13.9336 105.234 14.2734 104.836C14.6133 104.438 14.7832 103.945 14.7832 103.359C14.7832 102.902 14.6836 102.504 14.4844 102.164C14.2969 101.812 14.0098 101.525 13.623 101.303C13.2363 101.068 12.7559 100.898 12.1816 100.793C11.6191 100.676 10.957 100.617 10.1953 100.617H6.0293V117H2.77734V97.9805H10.1953C11.4023 97.9805 12.4863 98.0859 13.4473 98.2969C14.4199 98.5078 15.2461 98.8301 15.9258 99.2637C16.6172 99.6855 17.1445 100.225 17.5078 100.881C17.8711 101.537 18.0527 102.311 18.0527 103.201C18.0527 103.775 17.9355 104.32 17.7012 104.836C17.4668 105.352 17.1211 105.809 16.6641 106.207C16.207 106.605 15.6445 106.934 14.9766 107.191C14.3086 107.438 13.541 107.596 12.6738 107.666L11.4082 108.633ZM11.4082 117H3.99023L5.60742 114.363H11.4082C12.3105 114.363 13.0605 114.252 13.6582 114.029C14.2559 113.795 14.7012 113.467 14.9941 113.045C15.2988 112.611 15.4512 112.096 15.4512 111.498C15.4512 110.9 15.2988 110.391 14.9941 109.969C14.7012 109.535 14.2559 109.207 13.6582 108.984C13.0605 108.75 12.3105 108.633 11.4082 108.633H6.46875L6.50391 106.031H12.6738L13.8516 107.016C14.8945 107.098 15.7793 107.355 16.5059 107.789C17.2324 108.223 17.7832 108.773 18.1582 109.441C18.5332 110.098 18.7207 110.812 18.7207 111.586C18.7207 112.477 18.5508 113.262 18.2109 113.941C17.8828 114.621 17.4023 115.189 16.7695 115.646C16.1367 116.092 15.3691 116.432 14.4668 116.666C13.5645 116.889 12.5449 117 11.4082 117ZM35.2617 101.637V124.312H31.9922V97.9805H34.9805L35.2617 101.637ZM48.0762 107.332V107.701C48.0762 109.084 47.9121 110.367 47.584 111.551C47.2559 112.723 46.7754 113.742 46.1426 114.609C45.5215 115.477 44.7539 116.15 43.8398 116.631C42.9258 117.111 41.877 117.352 40.6934 117.352C39.4863 117.352 38.4199 117.152 37.4941 116.754C36.5684 116.355 35.7832 115.775 35.1387 115.014C34.4941 114.252 33.9785 113.338 33.5918 112.271C33.2168 111.205 32.959 110.004 32.8184 108.668V106.699C32.959 105.293 33.2227 104.033 33.6094 102.92C33.9961 101.807 34.5059 100.857 35.1387 100.072C35.7832 99.2754 36.5625 98.6719 37.4766 98.2617C38.3906 97.8398 39.4453 97.6289 40.6406 97.6289C41.8359 97.6289 42.8965 97.8633 43.8223 98.332C44.748 98.7891 45.5273 99.4453 46.1602 100.301C46.793 101.156 47.2676 102.182 47.584 103.377C47.9121 104.561 48.0762 105.879 48.0762 107.332ZM44.8066 107.701V107.332C44.8066 106.383 44.707 105.492 44.5078 104.66C44.3086 103.816 43.998 103.078 43.5762 102.445C43.166 101.801 42.6387 101.297 41.9941 100.934C41.3496 100.559 40.582 100.371 39.6914 100.371C38.8711 100.371 38.1562 100.512 37.5469 100.793C36.9492 101.074 36.4395 101.455 36.0176 101.936C35.5957 102.404 35.25 102.943 34.9805 103.553C34.7227 104.15 34.5293 104.771 34.4004 105.416V109.969C34.6348 110.789 34.9629 111.562 35.3848 112.289C35.8066 113.004 36.3691 113.584 37.0723 114.029C37.7754 114.463 38.6602 114.68 39.7266 114.68C40.6055 114.68 41.3613 114.498 41.9941 114.135C42.6387 113.76 43.166 113.25 43.5762 112.605C43.998 111.961 44.3086 111.223 44.5078 110.391C44.707 109.547 44.8066 108.65 44.8066 107.701ZM63.4395 113.748V103.957C63.4395 103.207 63.2871 102.557 62.9824 102.006C62.6895 101.443 62.2441 101.01 61.6465 100.705C61.0488 100.4 60.3105 100.248 59.4316 100.248C58.6113 100.248 57.8906 100.389 57.2695 100.67C56.6602 100.951 56.1797 101.32 55.8281 101.777C55.4883 102.234 55.3184 102.727 55.3184 103.254H52.0664C52.0664 102.574 52.2422 101.9 52.5938 101.232C52.9453 100.564 53.4492 99.9609 54.1055 99.4219C54.7734 98.8711 55.5703 98.4375 56.4961 98.1211C57.4336 97.793 58.4766 97.6289 59.625 97.6289C61.0078 97.6289 62.2266 97.8633 63.2812 98.332C64.3477 98.8008 65.1797 99.5098 65.7773 100.459C66.3867 101.396 66.6914 102.574 66.6914 103.992V112.852C66.6914 113.484 66.7441 114.158 66.8496 114.873C66.9668 115.588 67.1367 116.203 67.3594 116.719V117H63.9668C63.8027 116.625 63.6738 116.127 63.5801 115.506C63.4863 114.873 63.4395 114.287 63.4395 113.748ZM64.002 105.469L64.0371 107.754H60.75C59.8242 107.754 58.998 107.83 58.2715 107.982C57.5449 108.123 56.9355 108.34 56.4434 108.633C55.9512 108.926 55.5762 109.295 55.3184 109.74C55.0605 110.174 54.9316 110.684 54.9316 111.27C54.9316 111.867 55.0664 112.412 55.3359 112.904C55.6055 113.396 56.0098 113.789 56.5488 114.082C57.0996 114.363 57.7734 114.504 58.5703 114.504C59.5664 114.504 60.4453 114.293 61.207 113.871C61.9688 113.449 62.5723 112.934 63.0176 112.324C63.4746 111.715 63.7207 111.123 63.7559 110.549L65.1445 112.113C65.0625 112.605 64.8398 113.15 64.4766 113.748C64.1133 114.346 63.627 114.92 63.0176 115.471C62.4199 116.01 61.7051 116.461 60.873 116.824C60.0527 117.176 59.127 117.352 58.0957 117.352C56.8066 117.352 55.6758 117.1 54.7031 116.596C53.7422 116.092 52.9922 115.418 52.4531 114.574C51.9258 113.719 51.6621 112.764 51.6621 111.709C51.6621 110.689 51.8613 109.793 52.2598 109.02C52.6582 108.234 53.2324 107.584 53.9824 107.068C54.7324 106.541 55.6348 106.143 56.6895 105.873C57.7441 105.604 58.9219 105.469 60.2227 105.469H64.002ZM84.0059 89.7012H86.6777C86.6777 90.8496 86.502 91.7637 86.1504 92.4434C85.7988 93.1113 85.3184 93.627 84.709 93.9902C84.1113 94.3535 83.4316 94.6289 82.6699 94.8164C81.9199 95.0039 81.1406 95.1855 80.332 95.3613C79.3242 95.5723 78.3867 95.9062 77.5195 96.3633C76.6641 96.8086 75.9258 97.4414 75.3047 98.2617C74.6953 99.082 74.2441 100.148 73.9512 101.461C73.6699 102.773 73.5938 104.396 73.7227 106.33V107.947H71.0508V106.33C71.0508 104.162 71.2559 102.27 71.666 100.652C72.0879 99.0352 72.6797 97.6699 73.4414 96.5566C74.2031 95.4434 75.1055 94.5586 76.1484 93.9023C77.2031 93.2461 78.3633 92.7949 79.6289 92.5488C80.543 92.373 81.3281 92.1855 81.9844 91.9863C82.6406 91.7754 83.1387 91.4941 83.4785 91.1426C83.8301 90.791 84.0059 90.3105 84.0059 89.7012ZM80.1562 99.0703C81.3984 99.0703 82.5059 99.2871 83.4785 99.7207C84.4512 100.154 85.2773 100.758 85.957 101.531C86.6367 102.305 87.1523 103.219 87.5039 104.273C87.8672 105.316 88.0488 106.453 88.0488 107.684V108.07C88.0488 109.395 87.8555 110.625 87.4688 111.762C87.0938 112.887 86.5371 113.871 85.7988 114.715C85.0723 115.547 84.1816 116.197 83.127 116.666C82.084 117.135 80.8945 117.369 79.5586 117.369C78.2227 117.369 77.0273 117.135 75.9727 116.666C74.9297 116.197 74.0391 115.547 73.3008 114.715C72.5625 113.871 72 112.887 71.6133 111.762C71.2383 110.625 71.0508 109.395 71.0508 108.07V107.684C71.0508 107.391 71.1035 107.104 71.209 106.822C71.3145 106.541 71.4434 106.254 71.5957 105.961C71.7598 105.668 71.9062 105.357 72.0352 105.029C72.4688 103.975 73.0605 102.996 73.8105 102.094C74.5723 101.191 75.4805 100.465 76.5352 99.9141C77.6016 99.3516 78.8086 99.0703 80.1562 99.0703ZM79.5234 101.725C78.3281 101.725 77.3438 102 76.5703 102.551C75.8086 103.102 75.2402 103.834 74.8652 104.748C74.4902 105.65 74.3027 106.629 74.3027 107.684V108.07C74.3027 108.961 74.4082 109.805 74.6191 110.602C74.8301 111.398 75.1465 112.107 75.5684 112.729C76.002 113.338 76.5469 113.818 77.2031 114.17C77.8711 114.521 78.6562 114.697 79.5586 114.697C80.4609 114.697 81.2402 114.521 81.8965 114.17C82.5527 113.818 83.0918 113.338 83.5137 112.729C83.9355 112.107 84.252 111.398 84.4629 110.602C84.6738 109.805 84.7793 108.961 84.7793 108.07V107.684C84.7793 106.887 84.6738 106.131 84.4629 105.416C84.252 104.701 83.9297 104.068 83.4961 103.518C83.0742 102.967 82.5293 102.533 81.8613 102.217C81.2051 101.889 80.4258 101.725 79.5234 101.725ZM90.8789 107.701V107.297C90.8789 105.926 91.0781 104.654 91.4766 103.482C91.875 102.299 92.4492 101.273 93.1992 100.406C93.9492 99.5273 94.8574 98.8477 95.9238 98.3672C96.9902 97.875 98.1855 97.6289 99.5098 97.6289C100.846 97.6289 102.047 97.875 103.113 98.3672C104.191 98.8477 105.105 99.5273 105.855 100.406C106.617 101.273 107.197 102.299 107.596 103.482C107.994 104.654 108.193 105.926 108.193 107.297V107.701C108.193 109.072 107.994 110.344 107.596 111.516C107.197 112.688 106.617 113.713 105.855 114.592C105.105 115.459 104.197 116.139 103.131 116.631C102.076 117.111 100.881 117.352 99.5449 117.352C98.209 117.352 97.0078 117.111 95.9414 116.631C94.875 116.139 93.9609 115.459 93.1992 114.592C92.4492 113.713 91.875 112.688 91.4766 111.516C91.0781 110.344 90.8789 109.072 90.8789 107.701ZM94.1309 107.297V107.701C94.1309 108.65 94.2422 109.547 94.4648 110.391C94.6875 111.223 95.0215 111.961 95.4668 112.605C95.9238 113.25 96.4922 113.76 97.1719 114.135C97.8516 114.498 98.6426 114.68 99.5449 114.68C100.436 114.68 101.215 114.498 101.883 114.135C102.562 113.76 103.125 113.25 103.57 112.605C104.016 111.961 104.35 111.223 104.572 110.391C104.807 109.547 104.924 108.65 104.924 107.701V107.297C104.924 106.359 104.807 105.475 104.572 104.643C104.35 103.799 104.01 103.055 103.553 102.41C103.107 101.754 102.545 101.238 101.865 100.863C101.197 100.488 100.412 100.301 99.5098 100.301C98.6191 100.301 97.834 100.488 97.1543 100.863C96.4863 101.238 95.9238 101.754 95.4668 102.41C95.0215 103.055 94.6875 103.799 94.4648 104.643C94.2422 105.475 94.1309 106.359 94.1309 107.297ZM119.637 97.9805V117H116.367V97.9805H119.637ZM126.018 97.9805V100.617H110.109V97.9805H126.018ZM135.703 117.352C134.379 117.352 133.178 117.129 132.1 116.684C131.033 116.227 130.113 115.588 129.34 114.768C128.578 113.947 127.992 112.975 127.582 111.85C127.172 110.725 126.967 109.494 126.967 108.158V107.42C126.967 105.873 127.195 104.496 127.652 103.289C128.109 102.07 128.73 101.039 129.516 100.195C130.301 99.3516 131.191 98.7129 132.188 98.2793C133.184 97.8457 134.215 97.6289 135.281 97.6289C136.641 97.6289 137.812 97.8633 138.797 98.332C139.793 98.8008 140.607 99.457 141.24 100.301C141.873 101.133 142.342 102.117 142.646 103.254C142.951 104.379 143.104 105.609 143.104 106.945V108.404H128.9V105.75H139.852V105.504C139.805 104.66 139.629 103.84 139.324 103.043C139.031 102.246 138.562 101.59 137.918 101.074C137.273 100.559 136.395 100.301 135.281 100.301C134.543 100.301 133.863 100.459 133.242 100.775C132.621 101.08 132.088 101.537 131.643 102.146C131.197 102.756 130.852 103.5 130.605 104.379C130.359 105.258 130.236 106.271 130.236 107.42V108.158C130.236 109.061 130.359 109.91 130.605 110.707C130.863 111.492 131.232 112.184 131.713 112.781C132.205 113.379 132.797 113.848 133.488 114.188C134.191 114.527 134.988 114.697 135.879 114.697C137.027 114.697 138 114.463 138.797 113.994C139.594 113.525 140.291 112.898 140.889 112.113L142.857 113.678C142.447 114.299 141.926 114.891 141.293 115.453C140.66 116.016 139.881 116.473 138.955 116.824C138.041 117.176 136.957 117.352 135.703 117.352Z" fill="black"/>
<path d="M173.5 91C166.061 91 160 97.0615 160 104.5C160 111.939 166.061 118 173.5 118C180.939 118 187 111.939 187 104.5C187 97.0615 180.939 91 173.5 91ZM179.373 109.319C179.184 109.643 178.846 109.819 178.495 109.819C178.319 109.819 178.144 109.778 177.982 109.67L173.797 107.173C172.758 106.552 171.988 105.189 171.988 103.987V98.452C171.988 97.8985 172.447 97.4395 173.001 97.4395C173.554 97.4395 174.013 97.8985 174.013 98.452V103.987C174.013 104.473 174.418 105.188 174.837 105.431L179.021 107.929C179.507 108.212 179.67 108.833 179.373 109.319Z" fill="#FFD200"/>
</svg>
