<svg width="66" height="55" viewBox="0 0 66 55" fill="none" xmlns="http://www.w3.org/2000/svg">
<path d="M20.2941 27.1452C22.8824 28.2097 24.8823 29.9247 26.2941 32.2903C27.8235 34.5376 28.5882 37.2581 28.5882 40.4516C28.5882 44.7097 27.2353 48.1989 24.5294 50.9194C21.8235 53.6398 18.4706 55 14.4706 55C10.2353 55 6.76471 53.6398 4.05882 50.9194C1.35294 48.1989 0 44.7097 0 40.4516C0 38.3226 0.235294 36.2527 0.705882 34.2419C1.29412 32.2312 2.35294 29.2151 3.88235 25.1935L13.2353 0H27.3529L20.2941 27.1452ZM57.7059 27.1452C60.2941 28.2097 62.2941 29.9247 63.7059 32.2903C65.2353 34.5376 66 37.2581 66 40.4516C66 44.7097 64.6471 48.1989 61.9412 50.9194C59.2353 53.6398 55.8824 55 51.8824 55C47.6471 55 44.1765 53.6398 41.4706 50.9194C38.7647 48.1989 37.4118 44.7097 37.4118 40.4516C37.4118 38.3226 37.6471 36.2527 38.1176 34.2419C38.7059 32.2312 39.7647 29.2151 41.2941 25.1935L50.6471 0H64.7647L57.7059 27.1452Z" fill="#FFD200"/>
</svg>
